<svg width="420" height="323" viewBox="0 0 420 323" fill="none" xmlns="http://www.w3.org/2000/svg">
<g clip-path="url(#clip0)">
<path opacity="0.5" d="M104.225 211.537C78.8314 199.829 49.7969 189.92 26.0717 206.743C23.0648 208.876 20.1019 211.56 18.4818 215.555C14.2025 226.064 21.0044 239.692 17.6893 250.8C14.3742 261.908 1.89749 267.5 2.91887 279.366C3.18743 282.468 4.44655 285.276 5.93019 287.696C15.2239 302.846 32.2616 304.379 46.6623 300.619C61.0629 296.86 75.1465 289.065 89.8069 290.046C103.895 291.015 116.856 300.032 129.764 307.621C151.526 320.451 176.941 329.656 198.686 316.762C208.648 310.852 216.886 300.79 226.421 293.764C239.272 284.383 254.044 280.767 268.553 283.449C278.239 285.27 287.484 289.852 296.963 293.012C318.491 300.185 340.962 299.95 363.146 299.668C367.275 299.615 371.471 299.55 375.429 297.976C381.289 295.626 386.123 290.216 390.776 284.923C396.891 277.974 403.332 270.338 405.304 259.946C407.633 247.61 402.813 234.499 395.663 226.116C388.513 217.734 379.374 213.152 370.454 208.735C368.253 207.654 365.902 206.555 363.648 207.372C362.169 207.912 360.923 209.228 359.818 210.644C353.487 218.774 348.138 232.525 339.504 230.317C336.423 229.529 333.9 226.669 331.461 224.025C318.438 209.927 300.921 199.042 285.204 206.831C273.709 212.529 265.595 227.162 253.946 232.326C245.66 236.003 236.657 234.411 227.94 235.128C215.261 236.161 202.921 242.141 190.224 241.777C157.848 240.849 130.874 199.541 98.6296 203.477C96.1025 203.783 93.3465 204.558 91.7969 207.225" fill="#6C63FF"/>
<path d="M63.3963 172.244C63.3963 172.244 36.4925 193.914 86.1044 227.291C86.1044 227.291 97.0359 200.211 84.951 178.13C82.6058 173.828 79.1595 170.822 75.2648 169.683C71.3702 168.545 67.2977 169.351 63.8189 171.95L63.3963 172.244Z" fill="#6C63FF"/>
<path d="M63.7175 171.792C63.7175 171.792 86.7515 195.289 86.1087 227.274" stroke="#535461" stroke-miterlimit="10"/>
<path d="M403.777 154.192C409.227 180.785 385.977 256.545 385.977 256.545C385.977 256.545 337.057 207.125 331.602 180.532C330.175 174.157 329.718 167.464 330.257 160.849C330.796 154.234 332.321 147.829 334.741 142.012C337.162 136.194 340.429 131.08 344.352 126.972C348.275 122.863 352.773 119.842 357.584 118.086C362.394 116.33 367.419 115.874 372.363 116.746C377.307 117.618 382.07 119.8 386.373 123.163C390.677 126.527 394.432 131.004 397.42 136.331C400.408 141.659 402.568 147.729 403.772 154.187L403.777 154.192Z" fill="#6C63FF"/>
<path opacity="0.1" d="M403.777 154.192C409.227 180.785 385.977 256.545 385.977 256.545C385.977 256.545 337.057 207.125 331.602 180.532C330.175 174.157 329.718 167.464 330.257 160.849C330.796 154.234 332.321 147.829 334.741 142.012C337.162 136.194 340.429 131.08 344.352 126.972C348.275 122.863 352.773 119.842 357.584 118.086C362.394 116.33 367.419 115.874 372.363 116.746C377.307 117.618 382.07 119.8 386.373 123.163C390.677 126.527 394.432 131.004 397.42 136.331C400.408 141.659 402.568 147.729 403.772 154.187L403.777 154.192Z" fill="black"/>
<path d="M358.017 119.364C358.017 119.364 388.469 180.703 386.193 256.692" stroke="#535461" stroke-miterlimit="10"/>
<path d="M411.547 202.796C411.547 202.796 383.935 182.753 387.43 256.739C387.43 256.739 410.464 255.64 418.64 230.569C420.238 225.693 420.44 220.204 419.208 215.142C417.975 210.081 415.394 205.798 411.952 203.107L411.547 202.796Z" fill="#6C63FF"/>
<path d="M412.001 202.925C412.001 202.925 408.435 241.331 387.43 256.739" stroke="#535461" stroke-miterlimit="10"/>
<path d="M7.29059 194.548C7.29059 194.548 -19.6264 216.213 29.99 249.572C29.99 249.572 40.9214 222.492 28.8365 200.411C26.4913 196.109 23.045 193.103 19.1503 191.964C15.2557 190.825 11.1832 191.632 7.70443 194.231L7.29059 194.548Z" fill="#6C63FF"/>
<path d="M7.59863 194.096C7.59863 194.096 30.6326 217.593 29.9898 249.578" stroke="#535461" stroke-miterlimit="10"/>
<path d="M307.758 63.1538H85.5322V220.554H307.758V63.1538Z" fill="white"/>
<path d="M196.647 52.0515C197.729 52.0515 198.606 50.8811 198.606 49.4375C198.606 47.9938 197.729 46.8234 196.647 46.8234C195.565 46.8234 194.688 47.9938 194.688 49.4375C194.688 50.8811 195.565 52.0515 196.647 52.0515Z" fill="white"/>
<path d="M113.924 72.952V206.837H279.855" stroke="#535461" stroke-width="2" stroke-miterlimit="10"/>
<path opacity="0.5" d="M145.736 166.346H128.606V201.615H145.736V166.346Z" fill="#6C63FF"/>
<path opacity="0.7" d="M175.106 134.996H157.975V201.615H175.106V134.996Z" fill="#6C63FF"/>
<path opacity="0.5" d="M204.475 153.934H187.345V201.609H204.475V153.934Z" fill="#6C63FF"/>
<path opacity="0.8" d="M233.844 124.545H216.714V201.615H233.844V124.545Z" fill="#6C63FF"/>
<path d="M263.213 97.1127H246.083V201.609H263.213V97.1127Z" fill="#6C63FF"/>
<path d="M136.927 144.794L166.785 108.873L196.154 142.832L225.035 101.689L254.404 85.3583" stroke="#535461" stroke-width="2" stroke-miterlimit="10"/>
<path d="M136.927 149.364C138.819 149.364 140.352 147.318 140.352 144.794C140.352 142.27 138.819 140.224 136.927 140.224C135.035 140.224 133.502 142.27 133.502 144.794C133.502 147.318 135.035 149.364 136.927 149.364Z" fill="#6C63FF"/>
<path d="M195.665 146.75C197.557 146.75 199.091 144.704 199.091 142.18C199.091 139.656 197.557 137.61 195.665 137.61C193.774 137.61 192.24 139.656 192.24 142.18C192.24 144.704 193.774 146.75 195.665 146.75Z" fill="#6C63FF"/>
<path d="M225.523 106.259C227.415 106.259 228.948 104.213 228.948 101.689C228.948 99.1647 227.415 97.1185 225.523 97.1185C223.632 97.1185 222.098 99.1647 222.098 101.689C222.098 104.213 223.632 106.259 225.523 106.259Z" fill="#6C63FF"/>
<path d="M166.785 112.785C168.677 112.785 170.21 110.739 170.21 108.215C170.21 105.691 168.677 103.645 166.785 103.645C164.893 103.645 163.36 105.691 163.36 108.215C163.36 110.739 164.893 112.785 166.785 112.785Z" fill="#6C63FF"/>
<path d="M254.404 89.9285C256.296 89.9285 257.829 87.8824 257.829 85.3583C257.829 82.8343 256.296 80.7882 254.404 80.7882C252.512 80.7882 250.979 82.8343 250.979 85.3583C250.979 87.8824 252.512 89.9285 254.404 89.9285Z" fill="#6C63FF"/>
<path d="M381.835 226.598C380.03 225.805 377.353 224.889 375.231 225.212C373.21 224.231 368.46 221.687 365.215 217.857C365.309 214.092 365.237 210.322 364.999 206.567C363.34 181.384 367.073 164.784 367.073 164.784C367.073 164.784 370.005 152.119 369.684 141.61C369.873 142.086 369.979 142.368 369.979 142.368C370.234 133.304 372.55 123.923 374.284 118.078C374.35 118.053 374.415 118.021 374.478 117.984L376.415 111.851C376.569 111.493 376.692 111.113 376.78 110.717L377.093 109.748L377.001 109.695C377.031 109.537 377.062 109.366 377.093 109.196C378.33 102.212 379.294 85.6463 379.294 85.6463C382.614 68.2116 374.733 57.45 374.733 57.45L361.358 42.0948C361.425 42.2947 361.469 42.5064 361.491 42.7234L361.38 42.5941C361.191 41.8716 360.984 41.0081 360.782 40.0212C361.253 39.5692 361.695 39.0642 362.102 38.5115C363.623 36.5953 364.669 34.1052 365.101 31.3744C365.36 29.2388 365.426 27.0694 365.299 24.9127L365.079 17.5053C365.069 16.0556 364.958 14.6103 364.748 13.1878C363.74 7.31355 359.228 3.20159 354.697 2.93137C353.256 2.92017 351.815 3.02217 350.383 3.23683C349.212 3.36524 348.035 3.39859 346.861 3.3367C346.727 3.34615 346.595 3.29885 346.482 3.20159C346.38 3.06591 346.322 2.88263 346.319 2.69053C346.296 2.34673 346.326 2.00025 346.406 1.67208C346.486 1.34392 346.616 1.0409 346.786 0.781405C346.963 0.574025 347.17 0.416224 347.394 0.317345L347.072 0.417206C347.231 0.250491 347.409 0.121341 347.601 0.0353851C346.426 0.310873 345.297 0.857535 344.263 1.6508C343.979 1.90043 343.717 2.19423 343.484 2.52605C342.869 3.24678 342.468 4.23956 342.357 5.32219C341.806 4.7008 341.394 3.8874 341.169 2.9725C341.098 2.59839 341.098 2.20701 341.169 1.8329C341.089 1.96213 341.013 2.09527 340.94 2.23234C340.94 2.19122 340.94 2.1501 340.94 2.10898C340.089 3.50437 339.487 5.13937 339.179 6.8906C339.06 6.70096 338.971 6.48178 338.917 6.2458C338.862 6.00981 338.844 5.76175 338.862 5.51604C338.796 5.79212 338.734 6.06821 338.677 6.34429C338.657 6.1612 338.657 5.97521 338.677 5.79212C338.158 7.90988 337.924 10.1332 337.986 12.3595C337.986 14.58 338.725 18.0399 340.508 18.8211C340.601 18.8623 340.693 18.8916 340.79 18.921C339.787 20.9994 339.187 23.3773 339.042 25.8416C338.898 28.3059 339.214 30.7795 339.962 33.0407C340.71 35.3019 341.867 37.2799 343.33 38.7976C344.792 40.3153 346.514 41.3251 348.34 41.7365C348.37 42.0067 348.397 42.2906 348.424 42.5883H348.494C348.543 43.1757 348.582 43.8218 348.609 44.4797C348.159 45.068 347.666 45.5953 347.138 46.054C345.642 47.2347 343.972 47.9719 342.243 48.2158C340.178 48.4319 338.171 49.233 336.357 50.5654C334.221 52.1574 331.866 54.4777 331.126 57.2973C329.894 61.9967 323.105 69.3101 318.553 70.2206L316.933 70.0972L316.814 70.0502V70.0914L316.418 70.062H316.396H316.29V70.0914L315.88 70.062C315.88 70.062 315.841 70.3146 315.784 70.761C313.494 69.7095 308.63 66.7959 302.299 59.1301C295.255 50.5948 285.723 52.2749 282.047 53.3498C281.922 53.3867 281.808 53.4735 281.721 53.5987C281.634 53.724 281.578 53.8817 281.56 54.0509C281.541 54.22 281.562 54.3926 281.62 54.5454C281.677 54.6983 281.768 54.8243 281.88 54.9065C283.364 55.9932 285.662 57.5734 286.723 57.7496C286.723 57.7496 284.521 60.8218 286.864 62.449C287.145 62.6303 287.457 62.7048 287.768 62.6644C288.079 62.624 288.375 62.4702 288.625 62.2199C289.76 61.1097 292.917 63.6238 297.491 64.9338C297.491 64.9338 310.399 82.7562 316.809 85.4936C316.957 85.8828 317.12 86.2612 317.298 86.6273L317.694 86.5862V86.6273H317.862L317.91 87.2147C317.91 87.2147 327.877 86.5157 331.118 81.6871C331.347 81.413 331.558 81.1122 331.747 80.7883L328.282 138.943H328.313L328.282 139.495H330.831C331.05 146.648 330.818 153.812 330.14 160.913V198.825C330.14 198.825 330.008 202.161 335.203 207.049C340.65 212.109 345.899 217.538 350.929 223.315L351.558 224.043C350.603 235.645 348.604 257.268 346.936 258.072L347.966 258.313C346.205 261.291 341.204 269.474 339.68 269.692C337.814 269.968 336.568 273.845 339.68 274.673C345.895 276.108 352.286 275.268 358.171 272.241C358.758 271.932 359.25 271.369 359.57 270.643C359.889 269.917 360.016 269.069 359.932 268.235L359.329 262.126C359.443 262.21 359.535 262.339 359.593 262.496C360.007 264.158 359.593 260.281 359.593 260.281C361.299 252.967 362.638 245.51 363.604 237.959L369.767 245.067C369.767 245.067 369.891 244.861 370.106 244.479C371.616 249.05 374.311 258.401 373.707 265.251C372.88 274.649 380.752 266.355 379.928 260.821C379.259 256.345 382.253 237.372 383.419 230.276C383.545 229.509 383.452 228.708 383.159 228.028C382.866 227.348 382.394 226.839 381.835 226.598Z" fill="url(#paint0_linear)"/>
<path d="M317.421 73.0871C317.421 73.0871 311.549 71.736 302.84 61.1976C295.95 52.8621 286.657 54.501 283.073 55.5525C282.951 55.5877 282.84 55.672 282.755 55.7939C282.669 55.9159 282.614 56.0697 282.597 56.2347C282.579 56.3997 282.599 56.568 282.655 56.717C282.711 56.866 282.8 56.9885 282.91 57.0681C284.359 58.1254 286.604 59.6704 287.656 59.8466C287.656 59.8466 285.486 62.8424 287.793 64.4461C288.069 64.6271 288.377 64.7021 288.684 64.6627C288.99 64.6232 289.282 64.471 289.527 64.2229C290.637 63.142 293.718 65.5974 298.187 66.8721C298.187 66.8721 315.603 90.9212 319.654 86.8445L317.421 73.0871Z" fill="#FEC3BE"/>
<path d="M347.407 40.3912C347.407 40.3912 349.027 49.5784 347.407 56.0636L354.698 57.4146L361.178 53.0912V47.4167C361.178 47.4167 358.14 38.7699 358.95 28.7719L347.407 40.3912Z" fill="#FEC3BE"/>
<path d="M368.05 239.527C368.05 239.527 373.333 253.308 372.506 262.496C371.678 271.683 379.391 263.576 378.581 258.172C377.925 253.802 380.848 235.263 381.989 228.366C382.112 227.621 382.024 226.841 381.741 226.178C381.458 225.515 381 225.015 380.457 224.777C378.022 223.708 373.945 222.398 371.898 224.401C368.874 227.368 368.05 239.527 368.05 239.527Z" fill="#8B416F"/>
<path d="M348.015 254.659C348.015 254.659 341.129 266.549 339.306 266.819C337.484 267.089 336.269 270.872 339.306 271.683C345.372 273.091 351.61 272.279 357.357 269.333C357.932 269.034 358.415 268.485 358.729 267.776C359.042 267.067 359.169 266.237 359.087 265.421L357.925 253.849L348.015 254.659Z" fill="#8B416F"/>
<path d="M336.674 128.475L330.07 129.65C330.976 139.942 330.95 150.342 329.991 160.625V197.632C329.991 197.632 329.863 200.893 334.935 205.633C340.253 210.566 345.378 215.86 350.291 221.493L368.667 242.735C368.667 242.735 375.957 230.845 374.945 223.82C374.945 223.82 362.794 218.686 361.174 210.309C360.245 205.516 355.534 201.498 351.677 198.972C349.253 197.401 347.304 194.77 346.155 191.518C345.006 188.265 344.725 184.586 345.36 181.091C345.585 179.876 345.933 178.708 346.394 177.619C349.635 170.053 354.292 153.029 354.292 153.029L345.382 130.367L336.674 128.475Z" fill="#4D4981"/>
<path opacity="0.05" d="M336.674 128.475L330.07 129.65C330.976 139.942 330.95 150.342 329.991 160.625V197.632C329.991 197.632 329.863 200.893 334.935 205.633C340.253 210.566 345.378 215.86 350.291 221.493L368.667 242.735C368.667 242.735 375.957 230.845 374.945 223.82C374.945 223.82 362.794 218.686 361.174 210.309C360.245 205.516 355.534 201.498 351.677 198.972C349.253 197.401 347.304 194.77 346.155 191.518C345.006 188.265 344.725 184.586 345.36 181.091C345.585 179.876 345.933 178.708 346.394 177.619C349.635 170.053 354.292 153.029 354.292 153.029L345.382 130.367L336.674 128.475Z" fill="black"/>
<path d="M346.394 255.488C346.394 255.488 358.343 258.19 358.748 259.811C359.153 261.432 358.748 257.649 358.748 257.649C358.748 257.649 365.633 229.817 364.031 205.234C362.428 180.65 366.056 164.431 366.056 164.431C366.056 164.431 370.309 146.057 367.879 135.518C365.448 124.98 339.931 129.574 339.931 129.574C339.931 129.574 348.842 157.406 348.64 170.646C348.64 170.646 349.652 210.638 351.475 215.231C351.457 215.208 348.622 254.389 346.394 255.488Z" fill="#4D4981"/>
<path d="M347.799 47.4167C347.799 47.4167 349.014 57.4029 361.165 53.0912L353.082 135.23C353.082 135.23 329.59 136.311 329.792 132.528L334.635 82.8148L347.799 47.4167Z" fill="white"/>
<path opacity="0.1" d="M348.116 46.8763C346.533 48.9548 344.472 50.2607 342.265 50.5829C340.249 50.7891 338.289 51.5661 336.515 52.8621C334.433 54.4188 332.113 56.6804 331.408 59.4354C329.991 64.8397 321.08 73.7567 317.03 71.8652L318.447 88.0781C318.447 88.0781 329.991 87.2675 332.016 81.3228L328.577 139.178H331.615C331.615 139.178 333.235 123.506 334.45 120.263C335.665 117.02 338.096 99.1863 338.298 94.8628C338.501 90.5394 341.538 65.6797 344.171 61.3798L348.133 48.5446L348.116 46.8763Z" fill="black"/>
<path opacity="0.1" d="M348.116 47.6869C346.306 49.5759 344.142 50.7647 341.86 51.1234C339.844 51.334 337.886 52.115 336.114 53.4143C334.032 54.971 331.712 57.2326 331.008 59.9876C329.59 65.3918 320.679 74.3089 316.629 72.4174L318.047 88.6303C318.047 88.6303 329.59 87.8196 331.615 81.8749L328.172 139.695H331.21C331.21 139.695 332.83 124.022 334.045 120.78C335.26 117.537 337.691 99.7032 337.893 95.3798C338.096 91.0563 341.133 66.1966 343.766 61.8967L348.116 49.3024V47.6869Z" fill="black"/>
<path d="M348.116 47.1465C346.306 49.0355 344.142 50.2242 341.86 50.5829C339.844 50.7891 337.884 51.5661 336.11 52.8621C334.028 54.4188 331.708 56.6804 331.003 59.4354C329.586 64.8397 320.675 73.7567 316.625 71.8652L318.042 88.0781C318.042 88.0781 329.586 87.2675 331.611 81.3228L328.172 139.178H331.21C331.21 139.178 332.83 123.506 334.045 120.263C335.26 117.02 337.691 99.1863 337.893 94.8628C338.096 90.5394 341.133 65.6797 343.766 61.3798L348.12 48.8148L348.116 47.1465Z" fill="#FD6F8D"/>
<path opacity="0.1" d="M358.444 36.7433C358.18 34.1821 358.708 32.5843 358.95 29.5826L347.407 41.2018C347.407 41.2018 347.684 42.7702 347.896 45.067C348.478 45.1925 349.067 45.2554 349.657 45.255C353.663 45.255 356.547 41.0784 358.444 36.7433Z" fill="black"/>
<path d="M349.635 44.4502C355.674 44.4502 360.57 37.9174 360.57 29.8587C360.57 21.8 355.674 15.2671 349.635 15.2671C343.595 15.2671 338.699 21.8 338.699 29.8587C338.699 37.9174 343.595 44.4502 349.635 44.4502Z" fill="#FEC3BE"/>
<path opacity="0.1" d="M337.699 15.5549C337.629 13.0942 337.929 10.6396 338.58 8.33553C338.399 8.69804 338.323 9.13568 338.365 9.56758C338.407 9.99949 338.565 10.3965 338.809 10.6852C339.161 8.17404 340.127 5.88942 341.556 4.18833C340.777 4.35868 340.376 5.64513 340.57 6.66725C340.833 7.6656 341.301 8.545 341.921 9.20492C341.855 7.66 342.621 6.21494 343.59 5.36905C344.599 4.59562 345.702 4.06288 346.848 3.79475C346.455 3.98091 346.119 4.33543 345.893 4.80299C345.667 5.27055 345.563 5.82485 345.598 6.37941C345.601 6.56782 345.659 6.747 345.76 6.87872C345.87 6.97263 346 7.01786 346.13 7.00795C347.271 7.06661 348.413 7.03327 349.551 6.90809C350.95 6.69804 352.357 6.598 353.764 6.60851C358.167 6.85523 362.591 10.8673 363.577 16.5947C363.782 17.9844 363.889 19.3963 363.899 20.8124L364.115 28.0435C364.24 30.1532 364.175 32.2753 363.921 34.3642C363.616 36.2927 362.996 38.1076 362.105 39.6794C361.213 41.2513 360.073 42.5413 358.765 43.4575C357.176 40.3853 357.035 36.4378 356.485 32.7782C356.398 31.9336 356.163 31.1285 355.798 30.4285C355.61 30.0824 355.346 29.8229 355.042 29.6861C354.738 29.5493 354.41 29.5419 354.103 29.6648C353.509 29.982 353.254 31.1921 353.747 31.7326C353.306 32.4257 352.483 31.9088 351.986 31.292C350.596 29.5335 349.64 27.2536 349.243 24.754C349.045 23.4969 348.847 21.9461 347.922 21.5173C347.604 21.4007 347.272 21.3707 346.945 21.4292C345.016 21.6054 342.001 22.6686 340.134 21.8521C338.421 21.1061 337.699 17.7225 337.699 15.5549Z" fill="black"/>
<path d="M337.902 15.2847C337.832 12.824 338.131 10.3694 338.782 8.06531C338.601 8.42782 338.525 8.86545 338.567 9.29736C338.609 9.72926 338.767 10.1263 339.011 10.415C339.364 7.90383 340.33 5.61921 341.758 3.91811C340.979 4.08846 340.579 5.37492 340.772 6.39703C341.035 7.39538 341.504 8.27478 342.124 8.93469C342.058 7.38977 342.824 5.94471 343.792 5.09882C344.802 4.3254 345.904 3.79266 347.05 3.52454C346.657 3.7107 346.321 4.06521 346.095 4.53277C345.869 5.00033 345.765 5.55463 345.8 6.10919C345.803 6.2976 345.862 6.47678 345.963 6.6085C346.073 6.70241 346.202 6.74763 346.333 6.73773C347.473 6.79639 348.616 6.76304 349.753 6.63787C351.152 6.42781 352.559 6.32778 353.967 6.33828C358.369 6.585 362.794 10.5971 363.78 16.3245C363.984 17.7141 364.092 19.126 364.101 20.5422L364.317 27.7733C364.442 29.883 364.377 32.005 364.123 34.094C363.818 36.0224 363.198 37.8373 362.307 39.4092C361.416 40.981 360.276 42.2711 358.968 43.1873C357.379 40.1151 357.238 36.1676 356.687 32.5079C356.601 31.6634 356.365 30.8583 356.001 30.1583C355.812 29.8121 355.548 29.5527 355.244 29.4159C354.941 29.2791 354.613 29.2716 354.306 29.3946C353.711 29.7118 353.456 30.9219 353.949 31.4623C353.509 32.1555 352.685 31.6386 352.188 31.0218C350.799 29.2632 349.842 26.9834 349.445 24.4838C349.247 23.2267 349.049 21.6759 348.124 21.2471C347.806 21.1304 347.474 21.1005 347.147 21.1589C345.219 21.3352 342.203 22.3984 340.336 21.5819C338.624 20.83 337.902 17.4523 337.902 15.2847Z" fill="#784F69"/>
<path opacity="0.1" d="M316.101 71.8711C316.101 71.8711 314.481 81.8573 317.518 88.084L319.24 87.896L318.302 72.0356L316.101 71.8711Z" fill="black"/>
<path d="M316.541 71.8711C316.541 71.8711 314.921 81.8573 317.959 88.084L319.68 87.896L318.742 72.0356L316.541 71.8711Z" fill="#FD6F8D"/>
<path opacity="0.1" d="M360.064 44.603L373.126 59.5999C373.126 59.5999 380.822 70.1382 377.582 87.1617C377.582 87.1617 376.164 112.021 374.544 113.102C374.544 113.102 368.874 128.234 368.469 142.556C368.469 142.556 360.874 122.154 357.431 134.584C353.989 147.014 345.985 148.771 345.985 148.771L350.44 75.2488C350.44 75.2488 361.684 49.1731 360.064 44.603Z" fill="black"/>
<path d="M360.469 44.603L373.531 59.5999C373.531 59.5999 381.227 70.1382 377.987 87.1617C377.987 87.1617 376.569 112.021 374.949 113.102C374.949 113.102 369.279 128.234 368.874 142.556C368.874 142.556 360.874 121.074 357.427 133.503C353.98 145.933 346.39 148.776 346.39 148.776L350.845 75.284C350.845 75.284 362.089 49.1731 360.469 44.603Z" fill="#FD6F8D"/>
<path d="M366.443 107.945C366.443 107.945 369.684 104.972 374.949 113.079L361.988 144.424L357.634 135.653C357.634 135.653 366.848 111.457 366.443 107.945Z" fill="#FEC3BE"/>
<path opacity="0.1" d="M363.304 109.701C363.304 109.701 370.471 120.439 373.267 118.718L375.856 110.676L366.139 105.107L363.304 109.701Z" fill="black"/>
<path d="M363.304 109.161C363.304 109.161 370.471 119.899 373.267 118.178L375.856 110.136L366.139 104.567L363.304 109.161Z" fill="#FD6F8D"/>
<path opacity="0.1" d="M358.074 133.603C358.074 133.603 361.486 142.932 363.304 143.472L360.663 147.525L356.815 137.798L358.074 133.603Z" fill="black"/>
<path d="M357.872 133.891C357.872 133.891 361.284 143.219 363.102 143.76L360.46 147.813L356.604 138.068L357.872 133.891Z" fill="#4D4981"/>
<path opacity="0.1" d="M364.317 76.1945C364.317 76.1945 364.722 95.65 363.102 102.946L364.317 76.1945Z" fill="black"/>
<path opacity="0.1" d="M331.509 79.9775C331.509 79.9775 333.939 78.8967 333.939 76.1945L331.509 79.9775Z" fill="black"/>
<path d="M36.4043 83.2319C36.4043 83.2319 24.8609 115.094 32.442 152.8C40.0231 190.507 37.615 235.627 30.0558 246.788" stroke="#535461" stroke-width="2" stroke-miterlimit="10"/>
<path d="M36.4045 87.4848C38.1624 87.4848 39.5875 85.5833 39.5875 83.2377C39.5875 80.8921 38.1624 78.9907 36.4045 78.9907C34.6465 78.9907 33.2214 80.8921 33.2214 83.2377C33.2214 85.5833 34.6465 87.4848 36.4045 87.4848Z" fill="#6C63FF"/>
<path d="M31.6057 103.727C31.6057 103.727 43.5718 106.605 46.7548 100.79" stroke="#535461" stroke-width="2" stroke-miterlimit="10"/>
<path d="M30.4698 112.979C30.4698 112.979 23.2717 102.352 23.6679 95.9789" stroke="#535461" stroke-width="2" stroke-miterlimit="10"/>
<path d="M29.8579 132.446C29.8579 132.446 36.4044 134.749 42.3787 117.761" stroke="#535461" stroke-width="2" stroke-miterlimit="10"/>
<path d="M31.6056 146.603C31.6056 146.603 15.3163 132.616 17.3018 123.594" stroke="#535461" stroke-width="2" stroke-miterlimit="10"/>
<path d="M34.1504 162.61C34.1504 162.61 45.5617 149.1 44.3686 135.806" stroke="#535461" stroke-width="2" stroke-miterlimit="10"/>
<path d="M35.3918 172.021C35.3918 172.021 20.8635 166.605 21.3038 158.111" stroke="#535461" stroke-width="2" stroke-miterlimit="10"/>
<path d="M36.4045 183.235C36.4045 183.235 45.5574 171.921 46.7504 165.025" stroke="#535461" stroke-width="2" stroke-miterlimit="10"/>
<path d="M37.0429 202.473C37.0429 202.473 27.6523 187.846 27.2517 180.415" stroke="#535461" stroke-width="2" stroke-miterlimit="10"/>
<path d="M37.0427 214.579C37.0427 214.579 47.5515 199.001 48.344 191.57" stroke="#535461" stroke-width="2" stroke-miterlimit="10"/>
<path d="M23.6679 101.289C25.4258 101.289 26.8509 99.3878 26.8509 97.0422C26.8509 94.6966 25.4258 92.7951 23.6679 92.7951C21.9099 92.7951 20.4849 94.6966 20.4849 97.0422C20.4849 99.3878 21.9099 101.289 23.6679 101.289Z" fill="#6C63FF"/>
<path d="M20.0888 162.358C21.8467 162.358 23.2718 160.456 23.2718 158.111C23.2718 155.765 21.8467 153.864 20.0888 153.864C18.3308 153.864 16.9058 155.765 16.9058 158.111C16.9058 160.456 18.3308 162.358 20.0888 162.358Z" fill="#6C63FF"/>
<path d="M17.3019 127.841C19.0598 127.841 20.4849 125.939 20.4849 123.594C20.4849 121.248 19.0598 119.347 17.3019 119.347C15.544 119.347 14.1189 121.248 14.1189 123.594C14.1189 125.939 15.544 127.841 17.3019 127.841Z" fill="#6C63FF"/>
<path d="M46.7548 105.008C48.5127 105.008 49.9378 103.106 49.9378 100.761C49.9378 98.4149 48.5127 96.5135 46.7548 96.5135C44.9969 96.5135 43.5718 98.4149 43.5718 100.761C43.5718 103.106 44.9969 105.008 46.7548 105.008Z" fill="#6C63FF"/>
<path d="M46.7548 170.323C48.5127 170.323 49.9378 168.422 49.9378 166.076C49.9378 163.73 48.5127 161.829 46.7548 161.829C44.9969 161.829 43.5718 163.73 43.5718 166.076C43.5718 168.422 44.9969 170.323 46.7548 170.323Z" fill="#6C63FF"/>
<path d="M41.5817 122.002C43.3396 122.002 44.7647 120.1 44.7647 117.755C44.7647 115.409 43.3396 113.508 41.5817 113.508C39.8238 113.508 38.3987 115.409 38.3987 117.755C38.3987 120.1 39.8238 122.002 41.5817 122.002Z" fill="#6C63FF"/>
<path d="M47.9479 198.472C49.7058 198.472 51.1309 196.571 51.1309 194.225C51.1309 191.88 49.7058 189.978 47.9479 189.978C46.19 189.978 44.7649 191.88 44.7649 194.225C44.7649 196.571 46.19 198.472 47.9479 198.472Z" fill="#6C63FF"/>
<path d="M26.4547 187.317C28.2127 187.317 29.6378 185.416 29.6378 183.07C29.6378 180.725 28.2127 178.823 26.4547 178.823C24.6968 178.823 23.2717 180.725 23.2717 183.07C23.2717 185.416 24.6968 187.317 26.4547 187.317Z" fill="#6C63FF"/>
<path d="M44.7648 140.053C46.5227 140.053 47.9478 138.152 47.9478 135.806C47.9478 133.461 46.5227 131.559 44.7648 131.559C43.0069 131.559 41.5818 133.461 41.5818 135.806C41.5818 138.152 43.0069 140.053 44.7648 140.053Z" fill="#6C63FF"/>
</g>
<defs>
<linearGradient id="paint0_linear" x1="89801.7" y1="177242" x2="89801.7" y2="48200.2" gradientUnits="userSpaceOnUse">
<stop stop-color="#808080" stop-opacity="0.25"/>
<stop offset="0.54" stop-color="#808080" stop-opacity="0.12"/>
<stop offset="1" stop-color="#808080" stop-opacity="0.1"/>
</linearGradient>
<clipPath id="clip0">
<rect width="420" height="323" fill="white"/>
</clipPath>
</defs>
</svg>
