<?xml version="1.0" encoding="utf-8"?>
<!-- Generator: Adobe Illustrator 23.0.2, SVG Export Plug-In . SVG Version: 6.00 Build 0)  -->
<svg version="1.1" id="Layer_1" xmlns="http://www.w3.org/2000/svg" xmlns:xlink="http://www.w3.org/1999/xlink" x="0px" y="0px"
	 viewBox="0 0 612 792" style="enable-background:new 0 0 612 792;" xml:space="preserve">
<g>
	<path style="fill:#B35EF3;" d="M252.97,546.13c3.49-1.35,5.77-4.33,8.66-6.49c4.37-3.26,8.56-6.76,12.82-10.16
		c0.41,0.63,0.75,1.3,1.22,1.87c11.63,14.18,23.28,28.35,34.9,42.54c10.98,13.42,21.91,26.89,32.93,40.29
		c0.89,1.08,1.08,1.95,0.5,3.11c-1.25,1.46-2.83,2.52-4.38,3.64c-1.46,1.05-2.32,0.75-3.43-0.64c-5.17-6.47-10.45-12.85-15.69-19.25
		c-5.13-6.31-10.26-12.63-15.4-18.93c-9.92-12.17-19.87-24.32-29.72-36.54c-1.33-1.65-2.2-1.61-3.74-0.34
		c-6.67,5.49-13.42,10.87-20.14,16.29c-1.33,0.93-2.44,1.04-3.39-0.61c-0.52-0.9-1.38-1.6-2.09-2.39c-0.17-0.18-0.34-0.36-0.51-0.54
		l0.04,0.02c-6.19-7.7-12.37-15.42-18.59-23.09c-9.78-12.07-19.63-24.09-29.37-36.19c-1.09-1.36-1.69-1.26-2.91-0.25
		c-7.18,5.92-14.43,11.76-21.65,17.63c-3.04,1.8-3.02,1.79-5.27-1c-0.99-1.23-2.04-2.4-3.07-3.59c-0.22-0.17-0.45-0.34-0.67-0.52
		c0,0,0.07,0,0.07,0c-2.9-4.36-6.44-8.23-9.74-12.28c-14.71-18.09-29.46-36.14-44.2-54.2c-0.42-0.52-0.93-0.97-1.3-1.52
		c-0.89-1.3-1.73-1.14-2.85-0.19c-1.51,1.3-3.15,2.45-4.77,3.61c-0.87,0.62-1.54,0.84-1.85-0.66c-2.05-9.93-4.57-19.75-6.28-29.75
		c0.25,0.02,0.53-0.03,0.74,0.06c9.11,4.02,18.21,8.06,27.32,12.09c0.61,0.27,0.81,0.8,0.87,1.41c0,0,0.01-0.02,0.01-0.02
		c-0.43-0.01-0.83,0.06-1.02,0.52c0,0,0.03-0.03,0.03-0.03c-0.17,0.17-0.35,0.35-0.52,0.52c0,0,0.02-0.02,0.02-0.02
		c-0.18,0.18-0.35,0.35-0.53,0.53c0,0,0.03-0.03,0.03-0.03c-0.18,0.18-0.35,0.35-0.53,0.53c0,0,0.03-0.03,0.03-0.03
		c-0.18,0.17-0.35,0.34-0.53,0.52l0.01-0.01c-0.69-0.01-1.01,0.34-1.01,1.02c0,0,0.01-0.03,0.01-0.03c-3.45,1.34-3.63,1.79-1.5,4.5
		c2.41,3.06,4.89,6.06,7.36,9.08c8.08,9.88,16.17,19.76,24.25,29.65c6.93,8.47,13.81,16.98,20.79,25.4c1.93,2.33,2.62,2.13,4.18-0.7
		c1.68-0.24,2.67-1.58,3.86-2.53c6.14-4.93,12.23-9.93,18.35-14.9c0.31-0.25,0.72-0.36,1.09-0.53c0.7,0.18,1.1,0.74,1.51,1.25
		c5.93,7.27,11.87,14.53,17.76,21.82c10.96,13.55,21.9,27.12,32.85,40.67C250.44,549.07,251.46,548.91,252.97,546.13z"/>
	<path style="fill:#D4EAFD;" d="M164.68,511.48c1.02,1.2,2.08,2.37,3.07,3.59c2.25,2.79,2.23,2.8,5.27,1
		c0.02,0.57,0.4,0.85,0.86,1.11c9.25,5.36,18.49,10.76,27.75,16.11c11.77,6.81,23.52,13.65,35.38,20.31
		c2.78,1.56,5.19,3.91,8.54,4.37c0,0-0.04-0.02-0.04-0.02c0.17,0.18,0.34,0.36,0.51,0.54c0.71,0.79,1.57,1.49,2.09,2.39
		c0.95,1.65,2.06,1.54,3.39,0.61c0.69,1.12,1.88,1.59,2.95,2.2c4.9,2.82,9.84,5.56,14.72,8.4c16.31,9.46,32.6,18.95,48.93,28.39
		c0.67,0.39,1.38,1.41,2.4,0.54c5.24,6.41,10.53,12.78,15.69,19.25c1.1,1.38,1.97,1.69,3.43,0.64c1.55-1.12,3.13-2.17,4.38-3.64
		c0.83-0.44,1.25-1.45,2.28-1.6c0.17,1.72,1.84,1.97,3.23,2.96c-3.06,2.09-5.9,4.02-8.73,5.97c-1.05,0.72-1.92,0.12-2.77-0.37
		c-7.55-4.36-15.07-8.77-22.62-13.13c-11.72-6.77-23.47-13.49-35.18-20.27c-8.55-4.95-17.05-9.99-25.6-14.94
		c-9.49-5.49-19.03-10.9-28.53-16.37c-10.15-5.85-20.27-11.73-30.4-17.59c-11.29-6.52-22.59-13.02-33.88-19.54
		c-11.15-6.43-22.29-12.88-33.44-19.32c-10.5-6.06-21.01-12.11-31.52-18.15c-4.61-2.65-9.21-5.3-13.83-7.93
		c-1.48-0.84-1.75-1.59-0.13-2.61c2.11-1.33,4.14-2.77,6.22-4.15c1.11-0.73,2.09-0.87,3.43-0.1c15.8,9.18,31.66,18.25,47.48,27.38
		c6.83,3.94,13.61,7.98,20.45,11.91c1.13,0.65,2.24,1.48,3.64,1.53c0,0-0.07,0-0.07,0C164.23,511.14,164.46,511.31,164.68,511.48z"
		/>
	<path style="fill:#973CE8;" d="M261.17,343.06c-4.14-4.08-4.68-8.87-3.04-14.25c3.24-10.62,4.78-21.56,5.86-32.58
		c0.24-2.4-0.65-3.97-2.6-5.18c-2.91-1.8-6.02-3.19-9.08-4.7c-3.9-1.94-3.99-2.14-3.42-6.56c0.05-0.41,0.02-0.83,0.02-1.24
		c0.81-2.62,1.23-5.41,3.22-7.52c4.2-0.13,8.04,1.71,12.12,2.26c2.44,0.33,4.78,1.32,7.3,1.19c0.96-0.01,1.42,1.15,2.42,1.05
		l-0.02-0.01c0.55,1.25,2.14,0.91,2.88,1.88c-2.96,2.79-3.04,5.87-0.13,8.6c2.71,2.53,6,3.26,9.52,2.38
		c4.21-1.05,5.59-4.84,3.3-8.59c-0.25-0.41-0.72-0.73-0.52-1.31L289,278.5c8.86,4.17,18.38,5.78,27.96,7.14
		c1.9,2.32,1.71,5.19,2.09,7.91c-0.51,4.8-1.08,5.26-5.76,5.54c-3.97,0.24-7.97,0.34-11.76,1.85c-2.04,0.82-3.02,2.01-3.15,4.43
		c-0.71,12.54-1.19,25.07-0.81,37.63c0.07,2.17-1.37,3.04-2.67,4.16C283.07,350.63,271.71,350.24,261.17,343.06z"/>
	<path style="fill:#FCD562;" d="M261.17,343.06c10.54,7.17,21.9,7.57,33.74,4.1c0.42,8.66-0.84,17.26-1.16,25.89
		c-0.23,6.22-0.83,12.43-1.22,18.64c-0.2,3.07-0.32,6.14-0.47,9.21c-0.18,2.88-0.36,5.77-0.54,8.65c0,0.65,0.01,1.31,0.01,1.96
		c-0.16,1.98-0.32,3.96-0.49,5.94c-0.17,1.92,0.46,2.57,2.2,1.39c1.23-0.84,2.26-1.15,2.83,0.67c-0.81,0.1-1.65,0.25-1.94,1.12
		c-0.19,0.6,0.34,0.8,0.86,0.87c0.72,2.26,1.13,4.52-0.76,6.44c-1.45,1.48-3.16,1.97-5.12,0.99c0.43-2.71-0.52-3.94-3.42-3.38
		c-1.22,0.23-2.5-0.16-3.62-0.69c-1.11-0.52-1.64-0.25-2.01,0.88c-1.15,3.49-2.23,6.97-0.83,10.65c-2.72,0.73-5.45,1.55-8.29,1.05
		c-2.22-0.39-4.39-1.56-6.53,0.31c-0.55,0.49-1.23-0.32-1.89-0.25c-0.03-0.93,1.63-1.33,0.71-2.57c-1.13-1.54-0.75-3.29-0.47-5
		c2.75,0.2,5.29-0.64,7.82-1.55c0.5,0.2,0.99,0.41,1.49,0.61c-0.29,0.74-1.07,0.91-1.58,1.39c-0.62,0.57-1.48,1.15-0.5,2.13
		c0.69,1.26,1.69,1.08,2.78,0.62c1.45-0.62,2.72-1.47,2.7-3.21c-0.02-1.56-0.31-3.12-0.48-4.68c1.06-1.47,2.75-2.39,3.54-4.09
		c0.9-1.11,0.5-2.41,0.43-3.61c-0.6-9.08-1.33-18.16-1.89-27.25c-0.45-7.2-0.53-14.42-1.14-21.6c-0.27-3.21-0.24-6.43-0.53-9.86
		c-0.62,0.97-0.39,1.8-0.37,2.58c0.13,5.56-0.02,11.11,0.35,16.68c0.52,7.86,0.06,15.77,0.54,23.66c0.38,6.3,0.11,12.64,0.13,18.96
		c-2.59-0.09-4.53-1.34-6.05-3.36c-0.69-2.06-0.05-4.32-0.97-6.35c-0.01-0.65-0.01-1.29-0.02-1.94c-0.44-3.01-0.88-6.01-1.32-9.02
		c-1.85-14.95-3.74-29.89-5.52-44.85C261.67,351.16,261.49,347.1,261.17,343.06z"/>
	<path style="fill:#D4EAFD;" d="M393.87,522.24c1.39,2.52,3.17,4.78,3.72,7.78c1.01,5.48-0.86,9.96-4.31,13.93
		c-5.58,6.45-13.15,9.44-21.11,11.46c-6.1,1.55-12.38,2.37-18.7,2.05c-9.86-0.49-19.41-2.36-28.1-7.33c-3.84-2.2-7.31-5-9.64-8.83
		c-2.87-4.71-3.67-9.7-0.98-14.85c0.5-0.95,0.86-1.97,1.28-2.96c0.78,0.4,1.57,0.8,2.35,1.2c0.4,0.48,0.91,0.78,1.52,0.9
		c1.44,0.97,3,1.69,4.62,2.28c0.72,0.56,1.58,0.71,2.44,0.87c1.05,0.77,2.25,1.13,3.53,1.26c0.7,0.65,1.63,0.57,2.47,0.77
		c1.29,0.59,2.65,0.9,4.06,1.05c0.65,0.11,1.3,0.22,1.94,0.32c1.33,0.43,2.69,0.67,4.09,0.66c10.05,1.42,20.02,1.02,29.89-1.32
		c5.65-1.34,11.16-3.13,16.08-6.36C390.88,524.57,392.21,523.13,393.87,522.24z"/>
	<path style="fill:#FCD662;" d="M221.15,325.35c9.03,2.5,16.87,6.88,22.54,14.56c0.81,1.1,1.79,1.91,2.86,2.7
		c5.02,3.69,8.92,8.19,10.2,14.5c0.53,2.63,0.19,5.29,0.14,7.94c-0.1,0.03-0.2,0.03-0.3,0c-0.08-0.04-0.15-0.1-0.23-0.1
		c-0.07-0.01-0.21,0.03-0.22,0.07c-1.16,4.54-4.04,8.02-7.45,10.92c-5.44,4.63-11.88,7.48-18.68,9.61c-9.58,3-19.41,3.33-29.3,2.89
		c-1.78-0.08-3.81,0.22-5.36-1.21c0.57-0.07,1.15-0.23,1.72-0.2c8.45,0.33,16.65-1.05,24.68-3.58c3.78-1.19,7.61-2.35,10.74-4.97
		c9.23-4.91,15.33-11.79,14.51-23.03c0-0.81,0-1.63,0-2.44c-1.64,6.23-5.39,10.84-10.35,14.65c-1.08,0.83-2.57,1.22-3.16,2.64
		c-1.14,0.48-2.31,0.91-3.42,1.45c-3.65,1.8-7.44,3.23-11.37,4.32c-8.05,2.23-16.26,2.73-24.58,2.52
		c-11.66-0.31-22.68-2.88-32.71-8.93c-3.68-2.22-7.22-4.76-9.44-8.65c3.04,0.59,6.06,1.46,9.12,1.7c2.95,0.23,5.89,1.46,8.9,0.35
		c1.97,1.23,3.93,2.47,6.07,3.41c8.11,3.57,16.63,4.49,25.36,4.04c7.22-0.37,14.14-1.98,20.51-5.5c7.22-3.98,12.55-10.11,9.97-18.44
		c0.15-0.63-0.21-1.12-0.44-1.64c-1.74-3.98-5.23-6.29-8.46-8.85c0.16-3.14-0.07-6.19-1.85-8.96
		C220.87,326.68,220.42,325.93,221.15,325.35z"/>
	<path style="fill:#D4EAFD;" d="M304.44,505.98c-5.84,2.42-11.78,4.37-18.11,5.21c-9.33,1.23-18.48,0.79-27.57-1.67
		c-7.16-1.93-13.84-4.81-19.12-10.17c-6.51-6.62-7.03-15.86-1.42-21.98c0.42,0.22,0.85,0.43,1.27,0.64c0.93,1.17,2.2,1.83,3.53,2.43
		c0.49,0.61,1.17,0.93,1.9,1.15c1.37,0.96,2.86,1.67,4.48,2.09c0.56,0.6,1.27,0.86,2.07,0.95c1.24,0.76,2.58,1.24,4.03,1.36
		c0.7,0.65,1.61,0.55,2.45,0.71c1.21,0.78,2.6,0.82,3.97,0.95c0.62,0.47,1.35,0.4,2.06,0.42c1.29,0.63,2.7,0.59,4.09,0.69
		c8.81,1.36,17.58,0.98,26.32-0.57c5.41-0.96,10.61-2.62,15.64-4.84c-0.21,0.44-0.34,0.96-0.66,1.32
		c-4.07,4.71-5.52,10.18-4.77,16.3c0,0.4-0.01,0.81-0.01,1.21C304.55,503.43,304.49,504.7,304.44,505.98z"/>
	<path style="fill:#D4EAFD;" d="M228.59,462.96c-10.49,4.98-21.65,6.21-33.03,5.46c-9.55-0.62-18.64-3.23-26.71-8.57
		c-3.03-2.01-5.72-4.55-7.56-7.79c-3.49-6.15-2.86-12.06,1.15-17.74c0.24-0.34,0.45-0.7,0.67-1.04c0.27,0.1,0.53,0.2,0.8,0.3
		c1.15,1.26,2.56,2.15,4.1,2.86c0.65,0.74,1.55,1.02,2.44,1.32c1.17,0.92,2.48,1.58,3.93,1.94c0.6,0.54,1.3,0.83,2.1,0.84
		c1.24,0.76,2.61,1.13,4.01,1.42c0.75,0.49,1.59,0.65,2.47,0.63c1.09,0.65,2.27,0.93,3.53,0.89c0.74,0.58,1.62,0.53,2.48,0.5
		c1.22,0.67,2.6,0.45,3.9,0.67c9.95,1.58,19.81,0.96,29.6-1.28c0.05,0.36,0.09,0.71,0.14,1.07c-0.01,0.73-0.02,1.46-0.03,2.18
		c-0.09,4.78,0.31,9.42,3.87,13.13C226.54,461.25,228.01,461.81,228.59,462.96z"/>
	<path style="fill:#FCD662;" d="M383.01,459.55c8.64,2.38,16.37,6.32,22.14,13.39c3.32,4.07,5.07,8.7,4.16,14.07
		c-0.78,2.52-1.35,5.08-2.83,7.37c-4.62,7.13-11.55,11.11-19.15,14.09c-12.62,4.94-25.76,5.53-39.03,3.95
		c-8.23-0.98-16.02-3.57-23.3-7.62c-3.95-2.2-7.22-5.23-10.42-8.37c-0.03-0.31-0.06-0.62-0.1-0.94c3.34,0.58,6.65,1.39,10.01,1.68
		c2.64,0.23,5.29,1.37,7.99,0.35c2.08,1.2,4.06,2.57,6.31,3.5c8.07,3.37,16.5,4.49,25.16,3.95c7.11-0.44,14.07-1.86,20.3-5.45
		c6.62-3.81,12.03-8.62,10.59-17.45c0.22-0.72-0.24-1.26-0.49-1.86c-1.75-4.33-5.3-7.02-8.86-9.69
		C386.16,466.53,384.28,463.11,383.01,459.55z"/>
	<path style="fill:#FCD662;" d="M301.95,403.36c10.66,3.16,20.15,7.91,25.3,18.58c1.47,3.05,1.31,6.31,1.24,9.55
		c-0.66,0.56-0.34,1.36-0.48,2.04l0.03-0.05c-0.67,0.45-0.85,1.21-1.15,1.88c-2.2,4.96-5.91,8.62-10.3,11.59
		c-10.01,6.78-21.38,9.24-33.19,9.98c-8.32,0.52-16.58-0.34-24.66-2.47c-9.82-2.6-18.77-6.7-25.24-14.96
		c2.83-0.44,5.33,1.17,8.08,1.28c3.14,0.13,6.26,1.57,9.44,0.21c2.32,1.46,4.61,2.97,7.18,3.98c8.58,3.36,17.4,4.59,26.61,3.63
		c6.54-0.68,12.82-2.11,18.53-5.34c6.61-3.73,11.85-8.5,10.54-17.19c-0.03-1.46-0.74-2.65-1.39-3.9c-1.93-3.69-5.3-5.82-8.51-8.13
		c0.79-0.62,0.52-1.5,0.54-2.3C304.54,408.69,302.95,406.11,301.95,403.36z"/>
	<path style="fill:#FCDD80;" d="M332.49,497.53c-2.71,1.02-5.35-0.12-7.99-0.35c-3.36-0.29-6.68-1.1-10.01-1.68
		c-0.78-1.23-1.55-2.46-2.34-3.68c-0.62-0.95-0.58-0.07-0.73,0.28c-0.45,0.03-0.9,0.23-0.82,0.71c0.62,3.58,0.53,7.42,3.41,10.25
		c0.97,1.8,1.8,3.73,3.96,4.48c0.34,0.49,0.69,0.99,1.03,1.48c-0.44,0.6-0.97,0.37-1.56,0.24c-2.98-0.62-5.97-1.17-8.96-1.75
		c-0.39-0.61-0.71-1.28-1.17-1.83c-1.19-1.42-1.15-3.52-2.7-4.73c-0.75-6.12,0.7-11.59,4.77-16.3c0.31-0.36,0.44-0.88,0.66-1.32
		c1.04-2.67,2.09-5.33,3.13-8c0.49-0.74,1.27-1.31,1.33-2.3c0.02-0.15,0.04-0.29,0.07-0.44c4.05-3.63,8.88-6.42,11.94-11.11
		c0.51,0.74-0.54,1.43-0.17,2.22c0.89-0.31,1.65-0.62,2.23-1.24c6.8-2.7,13.73-4.89,21.04-5.73c11.34-1.31,22.5-0.79,33.41,2.82
		c1.27,3.56,3.14,6.98,2.49,10.98c-1.42-0.67-2.81-1.4-4.25-2c-9.59-3.98-19.55-4.9-29.76-3.47c-6.99,0.98-13.61,3.07-19.31,7.39
		c-3.41,2.58-6.42,5.54-6.96,10.13c-0.77,3.72,0.15,7.05,2.37,10.06C328.97,494.52,330.73,496.02,332.49,497.53z"/>
	<path style="fill:#FCDD80;" d="M169.99,363.05c-3.01,1.11-5.95-0.12-8.9-0.35c-3.07-0.24-6.09-1.11-9.12-1.7
		c-1.96-2.15-2.49-5.03-3.85-7.48c-1.2-11.68,5.76-18.39,14.75-23.6c9.1-5.27,19.14-7.35,29.57-8c8.96-0.56,17.73,0.3,26.4,2.56
		c0.81,0.21,1.62,0.36,2.31,0.87c-0.73,0.58-0.28,1.33,0,1.76c1.78,2.76,2.01,5.81,1.85,8.96c-5.99-2.97-12.21-5.04-18.94-5.7
		c-11.01-1.06-21.58,0.11-31.33,5.6c-4.44,2.5-8.55,5.54-9.63,11.08c-0.97,2.89-0.85,5.73,0.43,8.5
		C164.97,358.65,167.37,360.95,169.99,363.05z"/>
	<path style="fill:#FCDD80;" d="M251.01,440.99c-3.18,1.36-6.29-0.08-9.44-0.21c-2.75-0.11-5.25-1.71-8.08-1.28
		c-1.52-1.76-2.04-4.08-3.4-6.58c-0.06,1.13-0.08,1.62-0.11,2.11c-0.65,4.41,0.28,8.41,3.02,11.96c0.87,1.78,2.01,3.3,3.95,4.04
		c0.04,1.13,1.17,1.56,1.57,2.46c-4.16,0.19-8.03-1.36-12.05-1.99c-1.08-1.13-1.7-2.54-2.41-3.91c-0.54-1.03-0.05-2.52-1.43-3.15
		c-0.05-0.36-0.09-0.71-0.14-1.07c-0.18-2.18,0.26-4.32,0.52-6.47c0.32-0.57,0.56-1.16,0.44-1.84c1.53-2.58,3.07-5.17,4.6-7.75
		c0.68-0.5,1.53-0.86,1.54-1.9c1.15-2.68,2.29-5.36,3.44-8.03c0.56-0.58,1.59-0.81,1.44-1.92l-0.01,0.02c0.45,0,0.84-0.1,1.03-0.57
		c1.35-1.27,2.71-2.54,4.06-3.81c3.12-2.25,6.96-3.46,9.49-6.57c1.81,1.3,3.11,0.26,4.38-0.95c4.52-0.95,9.03-1.9,13.54-2.88
		c0.27-0.06,0.47-0.44,0.7-0.67c0.44,3.01,0.88,6.01,1.32,9.02c-5.64,0.86-10.94,2.75-15.8,5.7c-4.51,2.73-8.19,6.22-9.01,11.82
		C243.08,432.97,246.52,437.23,251.01,440.99z"/>
	<path style="fill:#D2048E;" d="M381.09,424.94c-4.05-2.29-8.1-4.6-12.16-6.86c-0.8-0.45-1.25-0.96-1.25-1.94
		c0.03-13.16,0.03-26.33,0.05-39.49c0-0.22,0.18-0.45,0.28-0.67c3.07,1.79,6.27,3.38,9.15,5.43c2.88,2.05,5.36,2.17,8.16-0.02
		c2.75-2.16,6.37-3.05,8.74-5.81c0.27,0.02,0.55,0.03,0.82,0.05c0,6.12,0.01,12.24,0.01,18.36c-4.54,2.56-9.26,4.8-13.42,8
		c-0.56,0.83-0.3,1.77-0.3,2.65C381.12,411.4,381.11,418.17,381.09,424.94z"/>
	<path style="fill:#7421D3;" d="M394.88,393.99c0-6.12-0.01-12.24-0.01-18.36c-0.07-5.21,0.55-10.44-0.43-15.62
		c0.77,0.04,1.38-0.31,2.04-0.68c3.84-2.18,7.53-4.61,11.6-6.37c0.03,15.81,0.06,31.62,0.07,47.44c0,0.39-0.2,0.79-0.3,1.18
		c0,0-0.15,0.03-0.15,0.03C403.43,399.06,399.16,396.52,394.88,393.99z"/>
	<path style="fill:#7421D3;" d="M346.27,615.68c-1.03,0.15-1.45,1.16-2.28,1.6c0.58-1.16,0.39-2.03-0.5-3.11
		c-11.02-13.4-21.94-26.87-32.93-40.29c-11.62-14.19-23.27-28.35-34.9-42.54c-0.47-0.57-0.82-1.25-1.22-1.87
		c2.89-2.24,2.86-2.21,5.07,0.49c22.32,27.3,44.63,54.61,66.99,81.87C347.79,613.38,348.31,614.52,346.27,615.68z"/>
	<path style="fill:#FE2D9A;" d="M268.89,268.1c-2.45-0.27-3.87-1.69-4.53-3.99c-0.58-2.01-0.81-4.07-0.75-6.16
		c0.05-1.7-0.53-3.85,2.61-3c0.85,0.23,1.63-0.68,2.4-1.17c4.54-2.88,9.41-3.98,14.76-2.87c7.96,1.65,11.58,14.31,8.65,19.4
		c-0.68,1.19-1.19,2.65-2.97,2.63c-0.16-0.63-0.31-1.26-0.47-1.9c1.65-0.48,2.69-1.22,1.33-3.02c0.05-1.03,0.54-2.2-0.84-2.78
		c-1.3-0.55-1.97,0.42-2.71,1.18c-0.29,0.29-0.55,0.62-0.77,0.97c-0.6,0.96-1.27,1.29-2.13,0.3c-1.26-1.45-2.93-1.61-4.72-1.69
		C275.24,265.85,272.05,266.86,268.89,268.1z"/>
	<path style="fill:#7421D3;" d="M173.11,500.93c-1.57,2.83-2.25,3.03-4.18,0.7c-6.98-8.43-13.87-16.93-20.79-25.4
		c-8.08-9.88-16.17-19.76-24.25-29.65c-2.47-3.02-4.95-6.02-7.36-9.08c-2.13-2.71-1.95-3.15,1.5-4.5c3.58,5.1,7.73,9.74,11.65,14.57
		C144.12,465.39,158.63,483.15,173.11,500.93z"/>
	<path style="fill:#7421D3;" d="M252.97,546.13c-1.51,2.79-2.53,2.94-4.44,0.59c-10.96-13.55-21.89-27.12-32.85-40.67
		c-5.9-7.29-11.83-14.55-17.76-21.82c-0.41-0.51-0.82-1.07-1.51-1.25c0.36-0.71,1.11-0.97,1.67-1.45c1.11-0.94,1.84-0.82,2.81,0.39
		c5.35,6.7,10.81,13.32,16.21,19.98C229.06,516.63,241.01,531.38,252.97,546.13z"/>
	<path style="fill:#F5BA2C;" d="M381.09,424.94c0.02-6.77,0.03-13.54,0.08-20.31c0.01-0.88-0.26-1.82,0.3-2.65
		c4.57,2.38,8.82,5.35,13.52,7.5c-0.02,7.72-0.03,15.44-0.05,23.16c-0.84,0.18-1.37-0.44-2-0.79c-3.6-1.98-7.19-3.97-10.79-5.95
		C381.8,425.58,381.44,425.26,381.09,424.94z"/>
	<path style="fill:#E7A201;" d="M394.94,432.65c0.02-7.72,0.03-15.44,0.05-23.16c0.85-0.5,1.72-0.97,2.54-1.51
		c3.36-2.19,7.19-3.6,10.18-6.38c0,0,0.15-0.03,0.15-0.03c0.51,0.65,0.38,1.42,0.38,2.16c0,6.47-0.04,12.94,0.03,19.41
		c0.02,1.52-0.46,2.42-1.82,3.14c-2.34,1.24-4.57,2.68-6.84,4.03C398.05,431.08,396.5,431.86,394.94,432.65z"/>
	<path style="fill:#FE2D9A;" d="M122.75,278.92c-0.26-0.91,0.48-1.12,1.03-1.43c4.59-2.65,9.19-5.29,13.78-7.95
		c0.83-0.48,1.56-0.75,2.52-0.19c4.79,2.81,9.61,5.55,14.41,8.34c0.24,0.14,0.35,0.51,0.52,0.78c-0.61,0.24-1.26,0.42-1.83,0.74
		c-4.32,2.46-8.65,4.9-12.9,7.47c-1,0.6-1.68,0.69-2.68,0.1c-4.35-2.57-8.75-5.06-13.1-7.62
		C123.9,278.8,123.42,278.39,122.75,278.92z"/>
	<path style="fill:#D2048E;" d="M122.75,278.92c0.67-0.53,1.15-0.12,1.76,0.24c4.35,2.56,8.75,5.05,13.1,7.62
		c0.99,0.59,1.68,0.5,2.68-0.1c4.25-2.57,8.58-5.01,12.9-7.47c0.57-0.32,1.22-0.5,1.83-0.74c0.04,2.41,0.03,4.83,0.15,7.23
		c0.06,1.12-0.54,1.64-1.37,2.13c-1.85,1.11-3.68,2.25-5.52,3.38c-1.08,0.27-1.99,0.84-2.82,1.57c-4.51,3.85-8.95,3.32-13.34-0.23
		c-0.8-0.73-1.73-1.23-2.75-1.57c-2.13-1.35-4.26-2.7-6.39-4.05c0.01-0.16-0.05-0.28-0.2-0.35
		C122.77,284.02,122.76,281.47,122.75,278.92z"/>
	<path style="fill:#FCC2B2;" d="M288.58,271.04c0.16,0.63,0.31,1.27,0.47,1.9c-3.18,2.65-3.33,4.34-0.77,7.59
		c0.89,1.13,1.45,2.36,0.78,3.9c-0.94,2.18-2.94,2.77-4.87,2.9c-1.94,0.13-3.95-0.41-5.64-1.62c-3.32-2.38-3.32-4.74,0.08-8.15
		c-0.64-0.06-1.21-0.12-1.78-0.17c-0.74-0.97-2.32-0.64-2.88-1.88c0.72,0.15,1.43,0.31,2.15,0.43c0.69,0.12,1.45,0.03,1.64-0.72
		c0.2-0.77-0.63-0.96-1.12-1.02c-1.1-0.13-2.11-0.95-3.4-0.48c0.18,0.66,0.87,1.09,0.74,1.81c-1,0.1-1.46-1.06-2.42-1.05
		c-0.95-2.1-2.9-3.78-2.68-6.38c3.16-1.24,6.35-2.25,9.83-2.1c1.79,0.08,3.46,0.24,4.72,1.69c0.86,0.99,1.53,0.66,2.13-0.3
		c0.22-0.35,0.48-0.67,0.77-0.97c0.74-0.76,1.41-1.73,2.71-1.18c1.38,0.58,0.9,1.75,0.84,2.78c-0.91-0.04-1.91-0.23-2.28,0.95
		C287.33,269.92,287.78,270.58,288.58,271.04z"/>
	<path style="fill:#B35EF3;" d="M89.05,541.95c-1.72-1.73-3.98-2.6-6.06-3.75c-1.06-0.58-1.56-1.24-1.54-2.51
		c0.09-5.7,0.08-11.41,0.11-17.11c4.79,2.69,9.58,5.38,14.37,8.07c-0.04,6.18,0.24,12.36-0.15,18.53
		C93.27,544.66,91.57,542.46,89.05,541.95z"/>
	<path style="fill:#D2048E;" d="M81.57,505.37c0-3.13-0.01-6.26-0.01-9.39c4.28,1.67,7.94,4.45,11.95,6.62
		c1.81,0.98,3.08,0.89,4.79-0.08c3.89-2.2,7.58-4.77,11.69-6.56c0,3.14-0.01,6.28-0.01,9.42c-4.67,2.68-9.35,5.37-14.02,8.05
		C91.16,510.75,86.36,508.06,81.57,505.37z"/>
	<path style="fill:#7421D3;" d="M95.78,545.18c0.39-6.17,0.11-12.35,0.15-18.53c0.06-0.07,0.08-0.16,0.05-0.25
		c4.67-2.61,9.33-5.21,14-7.82c0.03,5.8,0.04,11.59,0.12,17.39c0.02,1.1-0.49,1.61-1.36,2.09c-2.1,1.16-4.15,2.4-6.22,3.61
		C100.17,542.64,98.32,544.58,95.78,545.18z"/>
	<path style="fill:#E7A201;" d="M256.59,365.04c0.1,0.04,0.2,0.04,0.3,0c0.43,4.94-0.03,9.65-3.46,13.6
		c-0.33,0.38-0.33,0.68-0.25,1.11c0.59,3.32,0.17,6.61-0.25,9.91c0,0,0.06,0.08,0.06,0.08c-0.71,0.59-1.11,1.32-1.01,2.27
		c0,0,0.02-0.03,0.02-0.03c-2.57,4.42-6.1,7.95-10.1,11.06c-1.09,0.22-1.71,1.41-2.91,1.41c-0.03-2.03-0.06-4.05-0.09-6.08
		c0.6-1.36,2.21-1.41,3.08-2.41c3.43-1.53,5.78-4.27,7.87-7.23c1.31-1.86,2.77-3.74,2.63-6.24c0.15-0.15,0.3-0.31,0.45-0.46
		c-0.09-0.07-0.18-0.14-0.27-0.2c-0.05,0.23-0.1,0.46-0.15,0.69c-2.69,4.88-6.16,9.1-10.61,12.49c-0.97,0.5-1.93,0.99-2.9,1.49
		c0-1.4,0.07-2.79-0.01-4.19c-0.08-1.42,0.43-2.5,1.77-2.89c1.63-0.47,1.9-1.5,1.77-2.96c-0.13-1.38-0.12-2.78-0.17-4.17
		c1.61-1.15,3.28-2.23,4.81-3.47C251.67,375.17,255.55,371.07,256.59,365.04z"/>
	<path style="fill:#FE2D9A;" d="M109.99,495.97c-4.12,1.79-7.8,4.36-11.69,6.56c-1.71,0.97-2.98,1.06-4.79,0.08
		c-4-2.17-7.67-4.95-11.95-6.62c2.06-2.35,5.04-3.31,7.59-4.89c6.59-4.06,6.69-4.04,13.25-0.01
		C104.96,492.65,107.95,493.59,109.99,495.97z"/>
	<path style="fill:#FCD662;" d="M345.45,344.2c-1.73,2.42-3.69,4.49-6.9,4.79c-4.61,0.43-8.76-2.44-9.5-6.6
		c-0.92-5.2,1.67-9.06,7.08-10.55c0.91,0.01,1.81,0.02,2.72,0.03c4.91,1.25,7.02,4.08,7.25,9.73
		C345.88,342.47,345.66,343.34,345.45,344.2z"/>
	<path style="fill:#D4EAFD;" d="M394.94,432.65c1.56-0.78,3.12-1.56,4.67-2.34c0.24,0.06,0.5,0.1,0.72,0.19
		c0.91,0.39,2.21,0.63,2.28,1.68c0.07,1.02-1.3,1.07-2.05,1.52c-3.57,2.11-7.22,4.1-10.74,6.29c-1.66,1.03-2.97,1.24-4.77,0.13
		c-4.36-2.7-8.89-5.14-13.78-7.93c3.89-2.24,7.38-4.26,10.88-6.28c3.59,1.99,7.19,3.98,10.79,5.95
		C393.57,432.2,394.1,432.82,394.94,432.65z"/>
	<path style="fill:#FCC2B2;" d="M252.15,271.03c-1.99,2.11-2.41,4.9-3.22,7.52c-2.38-0.74-3.5-2.31-4.03-4.81
		c-1.78-8.42-3.77-16.8-5.78-25.16c-0.69-2.85-2.73-5.23-2.84-8.37c-0.06-1.53,0.13-2.64,1.49-3.29c1.53-0.73,2.02,0.6,2.62,1.54
		c0.26,0.41,0.3,0.97,0.91,1.06c1.78,0.27,1.83,1.86,1.53,2.86c-0.75,2.46,0.05,4.59,0.79,6.78c1.98,5.81,4.01,11.6,5.96,17.42
		C250.13,268.26,250.84,269.8,252.15,271.03z"/>
	<path style="fill:#973CE8;" d="M408.09,352.95c-4.07,1.75-7.77,4.19-11.6,6.37c-0.67,0.38-1.27,0.73-2.04,0.68
		c-0.38-0.15-0.78-0.26-1.13-0.45c-3.99-2.15-7.74-4.73-11.9-6.56c-0.03-0.45,0.15-0.8,0.55-1.03c3.94-2.28,7.88-4.55,11.82-6.83
		c0.62-0.36,1.23-0.38,1.87,0c4.01,2.33,8.02,4.64,12.02,6.99C407.89,352.26,407.95,352.67,408.09,352.95z"/>
	<path style="fill:#B35EF3;" d="M381.42,353c4.17,1.83,7.92,4.41,11.9,6.56c0.35,0.19,0.75,0.3,1.13,0.45
		c0.97,5.18,0.36,10.41,0.43,15.62c-0.27-0.01-0.55-0.03-0.82-0.05c-4.17-2.76-8.53-5.17-12.92-7.54
		C381.28,363.03,380.77,358,381.42,353z"/>
	<path style="fill:#FE2D9A;" d="M381.13,368.04c4.39,2.37,8.76,4.78,12.92,7.54c-2.37,2.76-5.99,3.65-8.74,5.81
		c-2.8,2.2-5.28,2.07-8.16,0.02c-2.88-2.05-6.09-3.64-9.15-5.43C372.07,372.83,376.81,370.78,381.13,368.04z"/>
	<path style="fill:#FCC2B2;" d="M319.05,293.55c-0.38-2.72-0.19-5.59-2.09-7.91c2.26-0.12,4.09-1.35,5.97-2.39
		c4.87-2.7,9.68-5.51,14.54-8.22c1.84-1.03,2.54-3.06,4.1-4.31c0.54-0.43,1.03-2.1,2.09-0.24c0.38,0.66,1.29-0.27,1.93-0.53
		c1.02-0.41,2.13-0.98,2.98,0.06c0.93,1.13,0.22,2.27-0.59,3.12c-0.91,0.95-1.89,1.95-3.04,2.55c-7.19,3.78-12.98,9.48-19.52,14.14
		C323.41,291.25,321.66,293.13,319.05,293.55z"/>
	<path style="fill:#F5BA2C;" d="M81.57,505.37c4.8,2.69,9.59,5.38,14.39,8.06c0.01,4.32,0.02,8.64,0.02,12.96
		c0.03,0.09,0.01,0.17-0.05,0.25c-4.79-2.69-9.58-5.38-14.37-8.07C81.56,514.18,81.56,509.78,81.57,505.37z"/>
	<path style="fill:#E7A201;" d="M393.87,522.24c-1.66,0.9-2.99,2.33-4.84,2.91c-0.02-2.07-0.04-4.14-0.07-6.21
		c2.45-2.1,5.66-3.27,7.59-6.09c-0.69-0.43-1.07,0.17-1.55,0.13c-0.03-2.03-0.06-4.07-0.09-6.1c2.14-1.6,4.29-3.19,6.42-4.8
		c4.09-3.1,6.29-7.49,8.2-12.08c0.52,6.03-1.16,11.33-5.23,15.84c-0.32,0.36-0.69,0.8-0.75,1.25
		C402.65,513.63,398.69,518.2,393.87,522.24z M397.18,512.34l0.11-0.13l-0.16-0.03L397.18,512.34z"/>
	<path style="fill:#E7A201;" d="M95.98,526.4c-0.01-4.32-0.02-8.64-0.02-12.96c4.67-2.68,9.35-5.37,14.02-8.05c0,4.4,0,8.8,0,13.2
		C105.32,521.19,100.65,523.8,95.98,526.4z"/>
	<path style="fill:#D4EAFD;" d="M95.78,545.18c2.54-0.6,4.39-2.54,6.74-3.51c1.19,1.96,3.42,2.5,5.19,3.63
		c1.41,0.9,1.4,1.34-0.03,2.14c-3.54,1.99-7.04,4.06-10.53,6.14c-0.81,0.48-1.56,0.5-2.34,0.06c-3.83-2.16-7.66-4.31-11.47-6.52
		c-1.35-0.78-0.4-1.26,0.34-1.7c1.84-1.09,3.91-1.81,5.37-3.48C91.57,542.46,93.27,544.66,95.78,545.18z"/>
	<path style="fill:#FAE8B4;" d="M409.53,489.99c-1.91,4.58-4.11,8.98-8.2,12.08c-2.13,1.61-4.28,3.2-6.42,4.8
		c-0.39,0.14-0.79,0.25-1.15,0.44c-9.9,5.17-20.55,7.16-31.59,7.64c-4.41,0.19-8.77-0.56-13.16-0.52c-1.22-0.79-2.63-0.26-3.92-0.53
		c-0.58-0.59-1.37-0.39-2.06-0.54c-1.32-0.43-2.65-0.77-4.05-0.8c-0.76-0.43-1.48-0.99-2.43-0.94c-1.31-0.41-2.63-0.82-3.94-1.23
		c-0.6-0.53-1.3-0.84-2.1-0.93c-1.34-0.65-2.67-1.3-4.01-1.95c-0.65-0.36-1.3-0.72-1.95-1.07c-1.33-0.84-2.66-1.68-3.98-2.52
		c-0.53-0.81-1.26-1.41-2.07-1.92c-1.33-1.33-2.66-2.67-4-4c-0.1-0.41-0.2-0.82-0.3-1.23c0.12-0.11,0.25-0.23,0.37-0.34
		c3.2,3.13,6.47,6.17,10.42,8.37c7.28,4.05,15.06,6.64,23.3,7.62c13.28,1.58,26.41,0.99,39.03-3.95
		c7.61-2.98,14.53-6.96,19.15-14.09c1.48-2.28,2.05-4.85,2.83-7.37C410.33,487.94,410.18,488.94,409.53,489.99z"/>
	<path style="fill:#E7A201;" d="M328.49,433.5c0.43,2.86-0.54,5.65-0.41,8.49c-5.05,6.76-7.72,14.94-12.9,21.61
		c-2.34,1.7-4.53,3.61-7.09,5c-1.27-1.92-0.31-4.05-0.57-6.06c2.25-1.58,4.73-2.85,6.51-5.04c0,0-0.02,0.03-0.02,0.03
		c0.45-0.25,0.34-0.48-0.01-0.72c0-2.11,0-4.22-0.01-6.33c1.62-1.12,3.34-2.12,4.85-3.37c4.38-3.63,8.26-7.64,9.2-13.62
		c0,0-0.03,0.05-0.03,0.05c0,0,0.24-0.05,0.24-0.05L328.49,433.5z"/>
	<path style="fill:#FAE8B4;" d="M148.12,353.51c1.36,2.46,1.89,5.34,3.85,7.48c2.22,3.9,5.76,6.44,9.44,8.65
		c10.04,6.04,21.06,8.62,32.71,8.93c8.32,0.22,16.53-0.28,24.58-2.52c3.93-1.09,7.71-2.51,11.37-4.32c1.11-0.55,2.28-0.97,3.42-1.45
		c0.02,0.35,0.05,0.7,0.07,1.06c-0.55,0.16-1.13,0.28-1.15,1.04c-0.39,0.14-0.8,0.24-1.16,0.43c-9.89,5.24-20.55,7.2-31.6,7.66
		c-4.41,0.18-8.77-0.3-13.16-0.51c-1.21-0.83-2.62-0.27-3.9-0.56c-0.59-0.56-1.37-0.39-2.07-0.51c-1.34-0.3-2.67-0.6-4.01-0.9
		c-0.78-0.41-1.54-0.85-2.46-0.85c-1.32-0.41-2.65-0.82-3.97-1.23c-0.6-0.51-1.28-0.84-2.08-0.89c-1.29-0.56-2.43-1.46-3.89-1.63
		c-0.53-0.72-1.18-1.26-2.09-1.42c-1.33-0.84-2.66-1.68-3.99-2.52c-0.6-0.98-1.54-1.54-2.53-2.04c-1.18-1.29-2.35-2.59-3.53-3.88
		c-1.3-2.66-3.07-5.1-3.89-7.99C147.36,354.85,147.3,354.18,148.12,353.51z"/>
	<path style="fill:#D4EAFD;" d="M146.51,309.14c1.43,0.84,2.84,1.71,4.3,2.5c1.37,0.74,1.58,1.34,0.06,2.18
		c-3.41,1.9-6.78,3.86-10.16,5.81c-0.97,0.56-1.85,0.94-2.99,0.26c-3.57-2.12-7.19-4.15-10.8-6.2c-1.23-0.7-1.1-1.29,0.04-1.93
		c1.52-0.85,3.02-1.73,4.53-2.6c2.62,1.05,4.74,3.08,7.51,3.83C141.75,312.19,143.88,310.19,146.51,309.14z"/>
	<path style="fill:#FE2D9A;" d="M345.45,344.2c0.21-0.86,0.43-1.73,0.64-2.59c2.48,0.55,4.79,0.09,6.89-1.27
		c3.58-2.31,5.08-6.73,3.71-10.68c-1.43-4.13-5.33-6.61-9.7-6.18c-4.27,0.42-7.42,3.67-8.15,8.4c-0.91-0.01-1.81-0.02-2.72-0.03
		c0.98-7.4,7.13-12.28,13.82-10.97c7.1,1.39,11.44,8.11,9.58,14.85C357.83,341.91,352.1,345.36,345.45,344.2z"/>
	<path style="fill:#FE2D9A;" d="M201.41,582.64c-3.27-0.47-6.3-0.93-9.35-1.34c-1.18-0.16-1.44-0.66-1.23-1.85
		c0.52-2.85,0.91-5.73,1.25-8.62c0.17-1.42,0.72-1.74,2.12-1.47c2.77,0.54,5.57,0.88,8.36,1.27c1.15,0.16,1.77,0.5,1.52,1.9
		c-0.53,2.93-0.87,5.91-1.32,8.86C202.63,582.23,202.47,583.21,201.41,582.64z"/>
	<path style="fill:#FCD662;" d="M195.55,263.36c-1.73-0.68-3.57-1.43-5.44-2.12c-5.18-1.89-5.18-1.88-3.19-7.13
		c0.53-1.39,1.14-2.77,1.54-4.2c0.44-1.53,1.12-1.95,2.66-1.28c2.51,1.08,5.08,2.03,7.66,2.92c1.28,0.44,1.71,0.97,1.16,2.32
		c-1.12,2.76-2.1,5.58-3.16,8.37C196.59,262.76,196.48,263.42,195.55,263.36z"/>
	<path style="fill:#F5BA2C;" d="M139,313c-2.77-0.76-4.89-2.78-7.51-3.83c-2.41-1.44-4.79-2.95-7.26-4.29
		c-1.18-0.64-1.67-1.43-1.6-2.76c0.11-2.23-0.15-4.47,0.29-6.69c5.36,3.03,10.72,6.06,16.09,9.09
		C139.01,307.34,139.01,310.17,139,313z"/>
	<path style="fill:#E7A201;" d="M139,313c0-2.83,0.01-5.66,0.01-8.48c5.33-3.01,10.67-6.03,16-9.04c0.02,0.08,0.03,0.16,0.05,0.24
		c1.02,5.61-0.08,10.07-6.26,11.95c-0.84,0.25-1.53,0.97-2.29,1.47C143.88,310.19,141.75,312.19,139,313z"/>
	<path style="fill:#FCD662;" d="M133.97,429.44c0.01-3.53,2.91-6.46,6.3-6.36c3.56,0.1,6.26,2.91,6.24,6.46
		c-0.03,3.55-2.88,6.42-6.33,6.36C136.67,435.84,133.95,433.02,133.97,429.44z"/>
	<path style="fill:#FCD562;" d="M155.01,295.48c-5.33,3.01-10.67,6.03-16,9.04c-5.36-3.03-10.72-6.06-16.09-9.09
		c1.66-2.19,4.56-2.58,6.44-4.45c1.02,0.34,1.95,0.84,2.75,1.57c-0.6,0.86-1.61,1.12-2.44,1.65c-0.95,0.61-1.39,1.14-0.02,1.88
		c2.62,1.4,5.18,2.92,7.77,4.38c0.72,0.41,1.49,0.86,2.33,0.39c3.2-1.81,6.38-3.65,9.71-5.56c-1.37-1.22-2.64-1.95-4.02-2.51
		c0.83-0.73,1.74-1.3,2.82-1.57C150.58,292.53,153.27,293.26,155.01,295.48z"/>
	<path style="fill:#973CE8;" d="M122.03,429.54c-0.07-0.61-0.26-1.13-0.87-1.41c-9.11-4.03-18.21-8.07-27.32-12.09
		c-0.21-0.09-0.49-0.05-0.74-0.06c0.64-1.75,2.07-2.89,3.7-2.19c9.6,4.12,19.11,8.43,28.83,12.76
		C124.48,427.92,123.32,428.8,122.03,429.54z"/>
	<path style="fill:#FCD662;" d="M432.28,400.99c-0.84-0.18-1.24-0.84-1.59-1.49c-0.36-0.68,0.12-1.08,0.6-1.44
		c0.67-0.49,1.35-0.96,2.01-1.47c0.39-0.3,0.95-0.8,0.59-1.22c-1.95-2.19,0.29-2.73,1.38-3.74c0.55-0.51,1.74-0.83,0.89-1.88
		c-1.37-1.71,0.04-2.31,1.12-3.02c1.16-0.77,2.36-1.39,0.97-3.04c-0.7-0.83,0.21-1.34,0.79-1.76c1.41-1.03,2.88-1.97,4.25-3.04
		c0.98-0.77,1.62-0.8,2.41,0.3c0.84,1.16,0.35,1.67-0.59,2.36c-1.19,0.87-3.59,1.22-1.56,3.71c0.74,0.91-0.8,1.4-1.46,1.88
		c-1.18,0.87-2.45,1.51-1.09,3.29c0.82,1.08-0.5,1.32-1.07,1.79c-1.15,0.94-3.1,1.56-1.26,3.57c0.33,0.36,0.17,0.79-0.22,1.07
		c-1.83,1.29-3.67,2.57-5.52,3.85C432.75,400.83,432.5,400.9,432.28,400.99z"/>
	<path style="fill:#FCDD80;" d="M301.95,403.36c1,2.75,2.59,5.33,2.54,8.39c-0.01,0.79,0.26,1.68-0.54,2.3
		c-4.04-1.79-8.03-3.74-12.44-4.49c0.18-2.88,0.36-5.77,0.54-8.65C295.39,401.59,298.8,401.94,301.95,403.36z"/>
	<path style="fill:#FCD562;" d="M154.52,412c-0.02-1.84-0.04-3.67-0.06-5.51c1.75-0.98,0.19-1.99,0.04-2.99
		c0-1.83-0.01-3.67-0.01-5.5c0.18,0,0.36,0,0.54,0c0,0-0.02-0.02-0.02-0.02c0.06,0.79-0.29,1.77,0.95,2.01
		c0.63,0.29,0.56,0.86,0.54,1.41c0.01,0.44,0.04,0.89,0.52,1.11c0,0-0.02-0.02-0.02-0.02c0.17,0.17,0.35,0.34,0.52,0.52
		c0,0-0.01-0.02-0.01-0.02c-0.2,1.01,0.4,1.76,0.96,2.42c1.3,1.56,2.71,3.03,4.08,4.54c-1.15,1.78-0.23,3.77-0.6,5.63
		c-1.35-1.3-2.71-2.6-4.06-3.9c0.96,2.61,2.51,4.69,4.64,6.3c-1.13,1.78-0.19,3.77-0.6,5.62c-2.01-1.35-3.06-3.62-4.94-5.09
		l0.01,0.02c-0.01-0.42-0.1-0.8-0.51-1.02l0.02,0.03c-0.02-0.42-0.11-0.8-0.52-1.03l0.01,0.02c-0.02-0.42-0.1-0.81-0.52-1.03
		l0.02,0.03C155.4,414.28,155.14,413.09,154.52,412z M156.77,409.66c-0.18,0.15-0.38,0.28-0.37,0.3c0.14,0.29,0.25,0.65,0.49,0.82
		c0.25,0.18,0.49-0.08,0.4-0.35C157.2,410.15,156.95,409.92,156.77,409.66z"/>
	<path style="fill:#FCD562;" d="M154.5,387.5c-0.01-1.84-0.02-3.67-0.02-5.51c0.35,0.33,0.69,0.66,1.04,0.99
		c-0.02,0.56-0.13,1.16,0.46,1.54c0.18,0.16,0.36,0.31,0.54,0.47c-0.01,0.42,0.02,0.82,0.48,1.02c-0.02,0.42,0.06,0.8,0.47,1.02
		c0.16,0.34,0.32,0.69,0.47,1.03c0.25,1.19,0.99,2.07,1.81,2.93c2.77,2.9,5.95,5.28,9.36,7.38c-0.79,0.45-1.34,1.07-0.89,2.01
		c0.6,1.26,0.02,2.41-0.2,3.6c-0.7-0.42-1.38-0.87-2.1-1.24c-3.5-1.83-5.61-5.17-8.42-7.74l0.02,0.02
		c-0.17-0.17-0.34-0.35-0.52-0.52l0.01,0.02c0.02-0.44-0.06-0.83-0.52-1.02l0.02,0.03C155.97,391.47,155.46,389.41,154.5,387.5z"/>
	<path style="fill:#E7A201;" d="M326.51,461.49c-3.06,4.69-7.89,7.48-11.94,11.11c-1.2-1.8-0.18-3.87-0.67-5.75
		c0.73-0.54,1.45-1.1,2.2-1.6c3.99-2.64,7.56-5.71,9.91-9.96c0.94-1.71,1.68-3.52,2.52-5.29c-0.01,2.17-0.03,4.34-0.04,6.51
		c-0.17,0.51-0.34,1.02-0.51,1.52l0.04-0.04c-0.64,0.36-0.52,0.97-0.52,1.54l0.02-0.03c-0.49,0.18-0.54,0.59-0.52,1.03l0.02-0.03
		c-0.46,0.2-0.55,0.58-0.52,1.03L326.51,461.49z"/>
	<path style="fill:#E7A201;" d="M249.05,404.53c-2.53,3.11-6.37,4.32-9.49,6.57c-1.11-1.44-0.29-3.12-0.59-4.66
		c0.72-1.18,1.99-1.68,3.04-2.46c3.96-1.82,6.52-5.09,8.85-8.6c0.68-1.02,1.41-2.05,1.16-3.41l-0.02,0.03
		c0.34-0.34,0.67-0.69,1.01-1.03l0.19,0.03l0.19,0c0.13,1.83,0.16,3.66-0.26,5.46c-1.24,1.04-0.89,2.73-1.64,3.97
		c0,0.35,0,0.7,0,1.05l0.01-0.02c-0.37-0.03-0.48,0.2-0.51,0.51l0.01-0.01c-0.48,0.18-0.6,0.54-0.51,1l0,0
		c-0.67,0.15-0.93,0.63-1,1.25C249.34,404.34,249.2,404.44,249.05,404.53z"/>
	<path style="fill:#FCD662;" d="M237.01,475.96c-1.65-1.33-3.27-2.68-4.05-4.76c0.27-3.76-0.88-7.45-0.45-11.21
		c1.33,0.84,2.66,1.68,3.99,2.52c0,1.73,0.01,3.47-0.01,5.2c-0.01,0.9,0.45,1.5,1.27,1.54c1.07,0.05,0.71-0.91,0.73-1.48
		c0.05-1.4,0-2.81-0.01-4.21c1.35,0.67,2.7,1.33,4.05,2c-0.01,2.14-0.01,4.28-0.02,6.42c-1.36-0.46-2.45-1.63-4.03-1.48l0.03,0.02
		c-0.21-0.18-0.41-0.36-0.62-0.54c-1.02,0.23-0.88,1.04-0.88,1.77C237,473.15,237.01,474.56,237.01,475.96z"/>
	<path style="fill:#FCD562;" d="M315.18,463.61c5.18-6.68,7.86-14.85,12.9-21.61c0.8,2,0.6,3.99-0.03,5.97
		c-0.34,1.1-0.56,2.26-1.04,3.3C324.51,456.75,320.83,461.14,315.18,463.61z"/>
	<path style="fill:#B35EF3;" d="M359.81,576.79c-0.48,0.72-0.6,1.06-0.85,1.23c-2.43,1.69-2.83,3.38-0.12,5.21
		c0.85,0.58,0.53,1.18-0.12,1.82c-0.99,0.97-1.71,0.4-2.26-0.37c-1.48-2.1-2.8-1.78-4.21,0.06c-0.62,0.81-1.26,1.47-2.38,0.34
		c-1.16-1.17-0.36-1.82,0.42-2.37c2.27-1.6,1.71-2.97-0.17-4.38c-0.7-0.52-1.18-1.06-0.28-1.99c0.89-0.91,1.56-0.86,2.2,0.08
		c1.65,2.46,3.14,2.01,4.66-0.13c0.31-0.43,0.75-0.99,1.45-0.57C358.72,576.05,359.26,576.44,359.81,576.79z"/>
	<path style="fill:#B35EF3;" d="M123.56,358.91c-0.47-0.44-0.92-0.8-1.3-1.22c-0.44-0.49-0.13-0.93,0.22-1.31
		c0.4-0.42,0.79-0.88,1.25-1.22c1.38-1.01,1.25-1.94-0.03-2.9c-0.33-0.25-0.6-0.58-0.91-0.85c-0.71-0.63-1.02-1.2-0.21-2.07
		c0.9-0.97,1.59-0.7,2.21,0.17c1.51,2.11,2.97,2.23,4.53,0.04c0.57-0.8,1.22-1.25,2.22-0.27c1.01,0.98,0.56,1.62-0.26,2.17
		c-2.5,1.7-1.9,3.2,0.17,4.73c0.63,0.46,1.1,1.03,0.23,1.8c-0.66,0.58-1.3,1.31-2.02,0.27c-1.83-2.63-3.52-2.42-5.26,0.07
		C124.24,358.56,123.9,358.68,123.56,358.91z"/>
	<path style="fill:#FAE8B4;" d="M315.18,463.61c5.66-2.47,9.33-6.85,11.83-12.34c0.47-1.04,0.7-2.2,1.04-3.3
		c1.23,0.42,1.14,1.15,0.48,2.02c-0.83,1.77-1.58,3.58-2.52,5.29c-2.35,4.25-5.92,7.32-9.91,9.96c-0.76,0.5-1.47,1.07-2.2,1.6
		c-1.75,0.82-3.49,1.66-5.26,2.45c-0.86,0.38-1.04,0.08-0.55-0.69C310.64,467.22,312.84,465.3,315.18,463.61z"/>
	<path style="fill:#FCD662;" d="M151.99,363.52c1.18,1.29,2.35,2.59,3.53,3.88c-0.01,2.03-0.01,4.06-0.02,6.1
		c-1.38,1.87,0.72,3,0.98,4.52c-1.13,0.94,0.16,2.56-1,3.49c-0.81-0.44-0.2-1.55-0.96-2.01c0-0.08-0.02-0.17-0.01-0.25
		c0.41-3.97-0.19-7.65-3.13-10.64C152.6,367.04,151.71,365.21,151.99,363.52z"/>
	<path style="fill:#B35EF3;" d="M184.55,562.2c-0.05,1.76-0.89,2.77-2.71,2.85c-1.94,0.08-3.03-1-3.08-2.8
		c-0.04-1.68,1.03-2.88,2.76-2.92C183.3,559.29,184.48,560.24,184.55,562.2z"/>
	<path style="fill:#B35EF3;" d="M205.02,275.47c-1.4-0.18-2.46-1.06-2.52-2.84c-0.06-1.8,0.94-2.81,2.66-3
		c1.55-0.17,3.06,1.39,3.03,2.98C208.17,274.19,206.92,275.44,205.02,275.47z"/>
	<path style="fill:#F4C341;" d="M304.44,505.98c0.06-1.27,0.11-2.55,0.17-3.82c0.86,2.83,2.7,5.18,3.9,7.84c0,1.96,0,3.92,0.01,5.87
		C305.85,513.11,304.72,509.71,304.44,505.98z"/>
	<path style="fill:#F4C341;" d="M232.51,459.99c-0.42,3.76,0.72,7.46,0.45,11.21c-1.97-2.1-2.7-4.72-3.1-7.48
		c0.05-1.94,0.09-3.88,0.14-5.82C231.15,458.22,231.85,459.08,232.51,459.99z"/>
	<path style="fill:#F4C341;" d="M151.99,363.52c-0.27,1.69,0.62,3.51-0.6,5.09c-3.41-3.78-3.6-8.37-3.29-13.08
		C148.92,358.43,150.68,360.86,151.99,363.52z"/>
	<path style="fill:#FCD562;" d="M318.38,524.7c-0.78-0.4-1.57-0.8-2.35-1.2c-0.71-0.63-1.42-1.27-2.12-1.9
		c1.23-1.77,0.28-3.79,0.65-5.66c1.32,0.86,2.63,1.72,3.95,2.58C318.46,520.57,318.42,522.64,318.38,524.7z"/>
	<path style="fill:#FCD662;" d="M162.01,431.97c-1.67-1.32-3.24-2.71-4.05-4.77c0.03-1.92,0.07-3.84,0.1-5.76
		c1.31,1.48,2.63,2.97,3.94,4.45C162.01,427.92,162.01,429.94,162.01,431.97z"/>
	<path style="fill:#F4C341;" d="M158.06,421.44c-0.03,1.92-0.07,3.84-0.1,5.76c-3.39-3.62-3.65-8.09-3.45-12.69
		c0.33,0.34,0.66,0.68,0.99,1.01c0,0-0.02-0.03-0.02-0.03c-0.04,0.45-0.05,0.88,0.52,1.03c0,0-0.01-0.02-0.01-0.02
		c-0.08,0.47-0.02,0.87,0.52,1.03c0,0-0.02-0.03-0.02-0.03c-0.04,0.45-0.02,0.86,0.51,1.02c0,0-0.01-0.02-0.01-0.02
		C156.7,419.71,157.91,420.38,158.06,421.44z"/>
	<path style="fill:#FCD662;" d="M308.51,515.87c0-1.96,0-3.92-0.01-5.87c1.31,1.34,2.63,2.69,3.94,4.03
		c-0.93,1.93-0.22,3.97-0.44,5.95C310.52,518.88,309.22,517.63,308.51,515.87z"/>
	<path style="fill:#FCD662;" d="M230,457.9c-0.05,1.94-0.09,3.88-0.14,5.82c-0.43-0.25-0.85-0.51-1.27-0.77
		c-0.58-1.15-2.05-1.71-2.13-3.2c0.01-1.91,0.01-3.82,0.02-5.72C227.65,455.33,228.83,456.61,230,457.9z"/>
	<path style="fill:#F4C341;" d="M156.49,401.4c0.01-0.54,0.09-1.11-0.54-1.41c-0.13-0.76-0.2-1.55-0.95-2.01
		c0,0,0.02,0.02,0.02,0.02c-0.05-0.85,0.28-1.78-0.47-2.5c-0.01-1.83-0.01-3.65-0.02-5.48c0.79,1.09,0.43,2.83,1.96,3.5
		c0,0-0.02-0.03-0.02-0.03c-0.02,0.44,0.03,0.84,0.52,1.02c0,0-0.01-0.02-0.01-0.02c0.05,0.3,0.18,0.51,0.52,0.52
		c0,0-0.02-0.02-0.02-0.02c-0.24,1.05,0.71,1.82,0.67,2.83c-0.05,1.71-0.1,3.42-0.16,5.13c-0.17-0.01-0.33,0-0.5,0.03
		c0,0,0.01,0.02,0.01,0.02c-0.17-0.17-0.35-0.34-0.52-0.52c0,0,0.02,0.02,0.02,0.02C157.09,402.02,156.94,401.64,156.49,401.4z"/>
	<path style="fill:#F5BA2C;" d="M249.05,404.53c0.14-0.1,0.29-0.2,0.43-0.29c0.65-0.16,1.13-0.47,1-1.25c0,0,0,0,0,0
		c0.56-0.14,0.58-0.55,0.51-1c0,0-0.01,0.01-0.01,0.01c0.34,0,0.47-0.21,0.51-0.51c0,0-0.01,0.02-0.01,0.02
		c0.54-0.35,0.62-0.7,0-1.05c0.75-1.24,0.4-2.93,1.64-3.97c0.77,2.34,0.28,4.73,0.3,7.1C252.16,404.79,250.86,405.84,249.05,404.53z
		"/>
	<path style="fill:#F4C341;" d="M237.01,475.96c0-1.4-0.01-2.8-0.01-4.2c0-0.73-0.14-1.54,0.89-1.77c0.21,0.18,0.41,0.36,0.62,0.54
		l-0.03-0.02c0.35,0.49,0.69,0.98,1.04,1.47c-0.01,2.01-0.02,4.02-0.03,6.03c-0.42-0.21-0.85-0.43-1.27-0.64
		C237.82,476.89,237.42,476.43,237.01,475.96z"/>
	<path style="fill:#F4C341;" d="M312.01,519.98c0.22-1.98-0.49-4.03,0.44-5.95c0.86,0.47,1.55,1.11,2.1,1.91
		c-0.37,1.87,0.58,3.89-0.65,5.66C313.11,521.25,312.45,520.73,312.01,519.98z"/>
	<path style="fill:#F4C341;" d="M162.01,431.97c0-2.03,0-4.05-0.01-6.08c1.14,0.32,1.87,1.15,2.53,2.07
		c-0.34,1.86,0.56,3.85-0.61,5.62c-0.27-0.1-0.54-0.2-0.8-0.3C162.75,432.84,162.38,432.41,162.01,431.97z"/>
	<path style="fill:#E7A201;" d="M328.56,462.47c-0.58,0.62-1.33,0.93-2.23,1.24c-0.36-0.79,0.69-1.48,0.17-2.22l-0.02,0.02
		c0.68-0.09,0.61-0.55,0.52-1.03c0,0-0.02,0.03-0.02,0.03c0.63-0.11,0.54-0.59,0.52-1.03c0,0-0.02,0.03-0.02,0.03
		c0.69-0.34,0.48-0.98,0.52-1.54c0,0-0.04,0.04-0.04,0.04c0.18-0.01,0.36-0.02,0.54-0.03C328.53,459.49,328.54,460.98,328.56,462.47
		z"/>
	<path style="fill:#FAE8B4;" d="M156.5,393.52c-1.53-0.68-1.18-2.41-1.96-3.5c-0.76-0.83-0.71-1.67-0.03-2.52
		C155.46,389.41,155.97,391.47,156.5,393.52z"/>
	<path style="fill:#FAE8B4;" d="M154.5,403.5c0.15,1,1.71,2.02-0.04,2.99C153.81,405.49,153.81,404.49,154.5,403.5z"/>
	<path style="fill:#FAE8B4;" d="M154.52,379.5c0.76,0.46,0.15,1.57,0.96,2.01c0.01,0.49,0.02,0.99,0.03,1.48l0,0
		c-0.35-0.33-0.69-0.66-1.04-0.99C153.81,381.15,153.8,380.32,154.52,379.5z"/>
	<path style="fill:#FAE8B4;" d="M155.5,415.52c-0.33-0.34-0.66-0.68-0.99-1.01c-0.72-0.84-0.72-1.67,0-2.51
		C155.14,413.09,155.4,414.28,155.5,415.52z"/>
	<path style="fill:#FAE8B4;" d="M154.55,395.5c0.75,0.72,0.42,1.65,0.47,2.5c-0.18,0-0.36,0-0.54,0
		C153.82,397.14,153.78,396.31,154.55,395.5z"/>
	<path style="fill:#FAE8B4;" d="M328.49,433.5l-0.25-0.01c0,0-0.24,0.05-0.24,0.05c0.14-0.68-0.18-1.48,0.48-2.04
		C329.13,432.16,329.18,432.83,328.49,433.5z"/>
	<path style="fill:#FAE8B4;" d="M328.51,458c-0.18,0.01-0.36,0.02-0.54,0.03c0.17-0.51,0.34-1.02,0.51-1.52
		C329.09,456.99,329.11,457.48,328.51,458z"/>
	<path style="fill:#973CE8;" d="M118.02,433.03c-0.01-0.68,0.32-1.02,1.01-1.02C118.69,432.36,118.35,432.69,118.02,433.03z"/>
	<path style="fill:#F5BA2C;" d="M253.39,391.01l-0.19,0c0,0-0.19-0.03-0.19-0.03c0-0.41,0-0.83,0-1.24c0,0-0.06-0.08-0.06-0.08
		C253.85,389.86,253.43,390.5,253.39,391.01z"/>
	<path style="fill:#973CE8;" d="M289.03,278.47c-0.21-0.03-0.42-0.06-0.63-0.09c0.02-0.07,0.05-0.13,0.07-0.2
		c0.18,0.11,0.35,0.22,0.53,0.32C289,278.5,289.03,278.47,289.03,278.47z"/>
	<path style="fill:#973CE8;" d="M121.01,430.04c0.19-0.46,0.59-0.53,1.02-0.52C121.81,429.92,121.53,430.23,121.01,430.04z"/>
	<path style="fill:#973CE8;" d="M119.01,432.03c0.18-0.17,0.35-0.34,0.53-0.52C119.36,431.68,119.19,431.85,119.01,432.03z"/>
	<path style="fill:#973CE8;" d="M119.51,431.54c0.18-0.18,0.35-0.35,0.53-0.53C120.02,431.34,119.82,431.5,119.51,431.54z"/>
	<path style="fill:#973CE8;" d="M120.52,430.54c0.17-0.17,0.35-0.35,0.52-0.52C121.11,430.43,120.88,430.56,120.52,430.54z"/>
	<path style="fill:#973CE8;" d="M120.01,431.04c0.18-0.18,0.35-0.35,0.53-0.53C120.58,430.9,120.35,431.03,120.01,431.04z"/>
	<path style="fill:#FE2D9A;" d="M122.78,286.57c0.14,0.07,0.21,0.19,0.2,0.35C122.76,286.89,122.61,286.82,122.78,286.57z"/>
	<path style="fill:#FEFEFE;" d="M245.54,557.98c-3.35-0.47-5.76-2.81-8.54-4.37c-11.86-6.66-23.6-13.51-35.38-20.31
		c-9.26-5.35-18.49-10.75-27.75-16.11c-0.46-0.27-0.83-0.54-0.86-1.11c7.22-5.87,14.47-11.71,21.65-17.63
		c1.22-1.01,1.82-1.1,2.91,0.25c9.74,12.1,19.59,24.12,29.37,36.19C233.17,542.56,239.35,550.28,245.54,557.98z"/>
	<path style="fill:#FEFEFE;" d="M320.5,601.03c-1.02,0.87-1.73-0.15-2.4-0.54c-16.33-9.44-32.62-18.93-48.93-28.39
		c-4.89-2.83-9.83-5.58-14.72-8.4c-1.06-0.61-2.26-1.08-2.95-2.2c6.72-5.42,13.48-10.8,20.14-16.29c1.54-1.26,2.41-1.31,3.74,0.34
		c9.85,12.23,19.8,24.37,29.72,36.54C310.23,588.4,315.36,594.72,320.5,601.03z"/>
	<path style="fill:#FEFEFE;" d="M246.01,558.5c-0.17-0.18-0.34-0.36-0.51-0.54C245.67,558.14,245.84,558.32,246.01,558.5z"/>
	<path style="fill:#FEFEFE;" d="M164.68,511.48c-0.22-0.17-0.45-0.34-0.67-0.52C164.23,511.14,164.46,511.31,164.68,511.48z"/>
	<path style="fill:#E7A201;" d="M251.01,440.99c-4.48-3.76-7.93-8.02-6.83-14.42c0.21-0.13,0.53-0.21,0.61-0.39
		c2.36-5.5,6.76-8.82,11.98-11.31c3.91-1.87,8.02-3.06,12.25-3.87c0.92,2.02,0.29,4.29,0.97,6.35c-3.68,2.22-6.19,5.42-7.92,9.31
		c-0.58,1.32-0.54,2.39,0.67,3.28c-0.28,1.71-0.67,3.46,0.47,5c0.92,1.24-0.74,1.65-0.71,2.57c-0.79,0.73-0.44,1.35,0.26,1.83
		c0.61,0.42,1.26,0.8,2.03,0.17c0.78-0.64,1.75-1.33,2.73-0.95c4.24,1.66,8.3,0.8,12.37-0.58c2.08,3.43,3.36,3.47,5.95,0.44
		c2.36-2.76,3.06-6.01,3.26-9.48c1.96,0.98,3.68,0.48,5.12-0.99c1.89-1.92,1.48-4.18,0.76-6.44c1.14-0.24,2.04-0.61,1.08-1.99
		c-0.57-1.82-1.6-1.5-2.83-0.67c-1.74,1.19-2.37,0.53-2.2-1.39c0.18-1.98,0.33-3.96,0.49-5.94c0.72,0.17,1.46,0.29,2.17,0.51
		c6.7,2.1,13.14,4.62,17.64,10.48c0.89,1.16,0.98,2.89,2.53,3.57c1.31,8.69-3.93,13.46-10.54,17.19
		c-5.71,3.23-11.99,4.65-18.53,5.34c-9.21,0.96-18.03-0.27-26.61-3.63C255.61,443.96,253.33,442.45,251.01,440.99z"/>
	<path style="fill:#973CE8;" d="M289.08,428.94c-0.2,3.46-0.91,6.72-3.26,9.48c-2.58,3.03-3.87,2.99-5.95-0.44
		c-0.22-0.53-0.45-1.05-0.67-1.58c-1.4-3.68-0.32-7.16,0.83-10.65c0.37-1.13,0.9-1.4,2.01-0.88c1.13,0.53,2.4,0.92,3.62,0.69
		C288.56,425,289.51,426.23,289.08,428.94z"/>
	<path style="fill:#973CE8;" d="M262.73,429.93c-1.21-0.89-1.25-1.96-0.67-3.28c1.73-3.89,4.24-7.09,7.92-9.31
		c1.51,2.03,3.46,3.28,6.05,3.36c0.83,0.15,1.66,0.29,2.48,0.44c-0.8,1.7-2.48,2.62-3.54,4.09c-1.47,1.05-2.94,2.1-4.41,3.15
		C268.03,429.29,265.48,430.13,262.73,429.93z"/>
	<path style="fill:#F5BA2C;" d="M278.51,421.14c-0.83-0.15-1.66-0.29-2.48-0.44c-0.02-6.32,0.24-12.66-0.13-18.96
		c-0.47-7.89-0.02-15.8-0.54-23.66c-0.37-5.57-0.22-11.12-0.35-16.68c-0.02-0.78-0.25-1.61,0.37-2.58c0.29,3.43,0.26,6.65,0.53,9.86
		c0.6,7.18,0.69,14.4,1.14,21.6c0.56,9.09,1.29,18.16,1.89,27.25C279.02,418.72,279.41,420.03,278.51,421.14z"/>
	<path style="fill:#F5BA2C;" d="M269.01,410.99c-4.24,0.81-8.34,2-12.25,3.87c-5.22,2.49-9.61,5.81-11.98,11.31
		c-0.08,0.18-0.4,0.26-0.61,0.39c0.83-5.6,4.51-9.09,9.02-11.82c4.86-2.95,10.16-4.84,15.8-5.7C269,409.7,269,410.34,269.01,410.99z
		"/>
	<path style="fill:#F5BA2C;" d="M313.86,426.08c-1.55-0.68-1.64-2.4-2.53-3.57c-4.5-5.86-10.94-8.38-17.64-10.48
		c-0.71-0.22-1.45-0.34-2.17-0.51c0-0.65-0.01-1.31-0.01-1.96c4.42,0.75,8.4,2.7,12.44,4.49c3.22,2.31,6.59,4.43,8.51,8.13
		C313.12,423.43,313.83,424.62,313.86,426.08z"/>
	<path style="fill:#F5BA2C;" d="M279.2,436.39c0.22,0.53,0.45,1.05,0.67,1.58c-4.07,1.37-8.13,2.23-12.37,0.58
		c-0.98-0.38-1.95,0.31-2.73,0.95c-0.78,0.64-1.42,0.25-2.03-0.17c-0.7-0.48-1.05-1.09-0.26-1.83c0.66-0.07,1.34,0.73,1.89,0.25
		c2.13-1.87,4.3-0.7,6.53-0.31C273.75,437.94,276.48,437.12,279.2,436.39z"/>
	<path style="fill:#E7A201;" d="M270.55,428.37c1.47-1.05,2.94-2.1,4.41-3.15c0.17,1.56,0.46,3.12,0.48,4.68
		c0.02,1.74-1.25,2.59-2.7,3.21c-1.09,0.46-2.09,0.65-2.78-0.62c0.99-0.99,3.47-1.11,2.07-3.51
		C271.54,428.78,271.05,428.58,270.55,428.37z"/>
	<path style="fill:#F5BA2C;" d="M272.04,428.99c1.4,2.41-1.08,2.52-2.07,3.51c-0.99-0.97-0.12-1.55,0.5-2.13
		C270.97,429.9,271.75,429.73,272.04,428.99z"/>
	<path style="fill:#F5BA2C;" d="M296.05,419.51c0.95,1.38,0.06,1.75-1.08,1.99c-0.52-0.07-1.05-0.27-0.86-0.87
		C294.4,419.76,295.24,419.61,296.05,419.51z"/>
	<path style="fill:#F5BA2C;" d="M388.96,518.93c0.02,2.07,0.04,4.14,0.07,6.21c-4.92,3.23-10.42,5.02-16.08,6.36
		c-9.87,2.34-19.85,2.74-29.89,1.32c-0.01-2.1-0.02-4.19-0.03-6.29c0.99,0.02,2-0.04,2.98,0.07c9.08,1.04,18.05,0.32,26.93-1.67
		C378.54,523.68,383.81,521.44,388.96,518.93z"/>
	<path style="fill:#FCD562;" d="M337.02,531.84c-1.41-0.15-2.77-0.46-4.06-1.05c0.01-2.09,0.02-4.18,0.03-6.27
		c1.33,0.33,2.67,0.65,4,0.98C337,527.61,337.01,529.72,337.02,531.84z"/>
	<path style="fill:#FCD562;" d="M343.02,526.54c0.01,2.1,0.02,4.19,0.03,6.29c-1.4,0.01-2.76-0.24-4.09-0.67
		c0.03-2.08,0.06-4.16,0.08-6.23C340.4,525.96,341.74,526.08,343.02,526.54z"/>
	<path style="fill:#FCD562;" d="M324.52,527.88c-1.62-0.59-3.18-1.31-4.62-2.28c1.27-1.78,0.21-3.86,0.72-5.74
		c1.43,0.25,2.63,1.04,3.9,1.68C324.52,523.66,324.52,525.77,324.52,527.88z"/>
	<path style="fill:#FCD662;" d="M330.49,530.02c-1.28-0.14-2.48-0.5-3.53-1.26c0.01-2.07,0.01-4.14,0.02-6.21
		c1.25,0.26,2.5,0.51,3.52,1.37C330.5,525.95,330.49,527.98,330.49,530.02z"/>
	<path style="fill:#F4C341;" d="M326.98,522.55c-0.01,2.07-0.01,4.14-0.02,6.21c-0.86-0.16-1.72-0.32-2.44-0.87
		c0-2.11,0-4.23-0.01-6.34C325.46,521.59,326.21,522.08,326.98,522.55z"/>
	<path style="fill:#F4C341;" d="M330.49,530.02c0-2.04,0-4.07,0-6.11c0.87,0.03,1.74,0.09,2.5,0.6c-0.01,2.09-0.02,4.18-0.03,6.27
		C332.12,530.59,331.19,530.67,330.49,530.02z"/>
	<path style="fill:#F4C341;" d="M339.05,525.93c-0.03,2.08-0.06,4.15-0.08,6.23c-0.65-0.11-1.3-0.21-1.94-0.32
		c-0.01-2.12-0.02-4.23-0.03-6.35C337.71,525.51,338.45,525.37,339.05,525.93z"/>
	<path style="fill:#F4C341;" d="M320.62,519.86c-0.51,1.88,0.55,3.96-0.72,5.74c-0.61-0.13-1.12-0.43-1.52-0.9
		c0.04-2.06,0.08-4.13,0.12-6.19C319.21,518.95,320.11,519.1,320.62,519.86z"/>
	<path style="fill:#E7A201;" d="M169.99,363.05c-2.62-2.1-5.01-4.4-6.45-7.5c-1.28-2.77-1.4-5.61-0.43-8.5
		c0.55-0.09,0.83-0.47,1.08-0.93c2.14-4.08,5.64-6.72,9.61-8.74c11.59-5.89,23.82-6.72,36.33-4.03c7.06,1.52,13.62,4.26,18.75,9.7
		c1.07,1.13,1.44,2.85,3.03,3.52c2.57,8.33-2.75,14.46-9.97,18.44c-6.37,3.51-13.3,5.13-20.51,5.5c-8.73,0.45-17.25-0.47-25.36-4.04
		C173.91,365.52,171.96,364.28,169.99,363.05z M201.02,355.52c1.17-2.76,0.1-5.66,0.56-8.46c1.47-0.18,2.73-1.97,4.4-0.57
		c-0.6,0.34-1.05,0.77-1.04,1.52c-0.66,0.65-0.47,1.17,0.26,1.57c0.87,0.47,1.76,0.93,2.66,1.34c2.84,1.31,5.59-0.28,6.07-3.48
		c0.58-1.77-1.09-3.88,0.87-5.49c0.29-0.24,0.15-0.98-0.29-1.34c-0.6-0.5-1.45-0.98-2.04-0.44c-1.79,1.62-3.49,0.65-5.33,0.2
		c-4.06-0.99-7.91-0.42-11.35,2.11c-3.07,2.26-2.28,5.33-1.87,8.41c0.39,2.9-2.39,4.74-5.33,3.54c0.41-0.36,0.78-0.66,1.12-0.99
		c1.85-1.77,1.71-2.51-0.65-3.47c-0.38-0.16-0.8-0.27-1.14-0.49c-2-1.27-3.63-0.72-5.31,0.76c-1.68,1.48-2.08,3.35-1.42,5.19
		c0.54,1.52,0.66,2.74-0.17,4.07c-0.7,0.59-0.57,1.11,0.15,1.56c0.75,0.47,1.52,0.64,2.32,0.12c0.88-0.57,1.65-1.34,2.9-0.8
		c2.36,1.03,4.88,0.69,7.33,0.58C197.32,360.79,200.5,358.29,201.02,355.52z"/>
	<path style="fill:#F5BA2C;" d="M186.49,379.96c4.38,0.21,8.75,0.7,13.16,0.51c11.05-0.45,21.72-2.42,31.6-7.66
		c0.36-0.19,0.77-0.29,1.16-0.43c0.03,2.03,0.06,4.06,0.09,6.09c-3.14,2.62-6.96,3.77-10.74,4.97c-8.02,2.53-16.23,3.91-24.68,3.58
		c-0.57-0.02-1.15,0.13-1.72,0.2c-2.99-0.2-6.03,0.03-8.88-1.19C186.48,384.01,186.49,381.98,186.49,379.96z"/>
	<path style="fill:#F5BA2C;" d="M231.9,346.56c-1.59-0.66-1.96-2.38-3.03-3.52c-5.13-5.44-11.69-8.18-18.75-9.7
		c-12.51-2.69-24.74-1.86-36.33,4.03c-3.97,2.02-7.47,4.66-9.61,8.74c-0.24,0.47-0.53,0.84-1.08,0.93
		c1.08-5.54,5.18-8.58,9.63-11.08c9.75-5.49,20.32-6.66,31.33-5.6c6.73,0.65,12.95,2.72,18.94,5.7c3.23,2.56,6.72,4.87,8.46,8.85
		C231.69,345.45,232.05,345.94,231.9,346.56z"/>
	<path style="fill:#FAE8B4;" d="M186.47,386.03c2.85,1.22,5.9,0.98,8.88,1.19c1.55,1.42,3.58,1.13,5.36,1.21
		c9.89,0.44,19.72,0.11,29.3-2.89c6.8-2.13,13.25-4.98,18.68-9.61c3.4-2.9,6.28-6.38,7.45-10.92c0.01-0.04,0.15-0.08,0.22-0.07
		c0.08,0.01,0.15,0.07,0.23,0.1c-1.04,6.03-4.92,10.13-9.42,13.78c-1.53,1.24-3.2,2.32-4.81,3.47c-0.39,0.13-0.81,0.21-1.18,0.4
		c-14.09,7.27-29.08,8.75-44.58,6.99c-1.32-0.1-2.65-0.2-3.97-0.29c-0.41-0.46-1.01-0.39-1.54-0.51c-1.52-0.3-3.04-0.6-4.56-0.9
		c-0.72-0.6-1.59-0.79-2.49-0.88c-1.18-0.56-2.69-0.48-3.54-1.71c0.67,0.04,1.34,0.08,2,0.12
		C183.79,385.91,185.11,386.11,186.47,386.03z"/>
	<path style="fill:#E7A201;" d="M232.5,378.47c-0.03-2.03-0.06-4.06-0.09-6.09c0.01-0.75,0.6-0.88,1.15-1.04
		c0.58-0.29,1.21-0.53,1.75-0.89c5.59-3.68,9.67-8.55,11.7-15.01C247.83,366.68,241.73,373.57,232.5,378.47z"/>
	<path style="fill:#FCDD80;" d="M247.01,355.45c-2.03,6.46-6.11,11.33-11.7,15.01c-0.54,0.36-1.16,0.59-1.75,0.89
		c-0.02-0.35-0.05-0.7-0.07-1.05c0.6-1.42,2.09-1.81,3.16-2.64c4.97-3.81,8.71-8.42,10.35-14.65
		C247.01,353.82,247.01,354.63,247.01,355.45z"/>
	<path style="fill:#F5BA2C;" d="M313.17,475.33c-1.05,2.67-2.09,5.34-3.14,8c-5.02,2.22-10.22,3.89-15.64,4.84
		c-8.74,1.55-17.52,1.93-26.32,0.57c-0.03-2.09-0.05-4.18-0.08-6.27c1.08,0.03,2.17-0.03,3.24,0.09c7.92,0.9,15.75,0.32,23.57-1.08
		C301.24,480.34,307.27,478.04,313.17,475.33z"/>
	<path style="fill:#FAE8B4;" d="M320.62,519.86c-0.51-0.77-1.41-0.91-2.12-1.35c-1.32-0.86-2.63-1.72-3.95-2.58
		c-0.55-0.8-1.25-1.44-2.1-1.91c-1.32-1.34-2.63-2.69-3.94-4.03c-1.2-2.66-3.04-5.01-3.9-7.84c0-0.4,0-0.8,0.01-1.21
		c1.54,1.21,1.5,3.31,2.7,4.73c0.46,0.55,0.79,1.21,1.17,1.83c3,4.84,7.55,7.96,12.45,10.42c12.14,6.08,25.04,8.2,38.6,7.23
		c7.61-0.54,14.96-1.93,22.03-4.64c2.4-0.92,5.16-1.35,6.91-3.6c2.42-0.9,4.44-2.47,6.53-3.93c0.48,0.04,0.86-0.56,1.55-0.13
		c-1.93,2.82-5.15,3.99-7.59,6.09c-5.15,2.51-10.42,4.74-16.03,6c-8.88,1.99-17.85,2.71-26.93,1.67c-0.98-0.11-1.99-0.05-2.98-0.07
		c-1.29-0.45-2.62-0.58-3.97-0.61c-0.6-0.56-1.34-0.42-2.05-0.44c-1.33-0.33-2.67-0.65-4-0.98c-0.76-0.51-1.62-0.57-2.5-0.6
		c-1.02-0.85-2.27-1.11-3.52-1.37c-0.77-0.47-1.52-0.96-2.46-1C323.25,520.91,322.05,520.11,320.62,519.86z"/>
	<path style="fill:#FCD562;" d="M255.51,485.98c-1.46-0.12-2.79-0.6-4.03-1.36c0.03-2.07,0.06-4.14,0.09-6.2c1.5,0.5,3,1,4.51,1.5
		C254.89,481.84,255.79,483.97,255.51,485.98z"/>
	<path style="fill:#FCD662;" d="M268,482.47c0.03,2.09,0.05,4.18,0.08,6.27c-1.38-0.09-2.79-0.06-4.09-0.69
		c0.03-2.05,0.06-4.11,0.1-6.16C265.37,482.21,266.79,481.62,268,482.47z"/>
	<path style="fill:#FCD662;" d="M261.93,487.64c-1.37-0.13-2.76-0.17-3.97-0.95c0.01-2.06,0.03-4.13,0.04-6.19
		c1.33,0.3,2.66,0.61,3.99,0.91C261.97,483.49,261.95,485.56,261.93,487.64z"/>
	<path style="fill:#FCD562;" d="M249.4,483.67c-1.62-0.42-3.11-1.13-4.48-2.1c1.24-1.78,0.18-3.85,0.71-5.72
		c1.42,0.25,2.6,1.03,3.87,1.64C249.46,479.55,249.43,481.61,249.4,483.67z"/>
	<path style="fill:#FCD662;" d="M239.5,478.01c0.01-2.01,0.02-4.02,0.03-6.03c1.33,0.84,2.67,1.67,4,2.51
		c-1.07,1.91-0.27,3.98-0.5,5.95C241.7,479.84,240.43,479.17,239.5,478.01z"/>
	<path style="fill:#F4C341;" d="M243.02,480.43c0.23-1.98-0.57-4.05,0.5-5.95c0.78,0.33,1.57,0.67,2.11,1.37
		c-0.53,1.87,0.53,3.94-0.71,5.73C244.19,481.36,243.52,481.05,243.02,480.43z"/>
	<path style="fill:#F4C341;" d="M258,480.5c-0.01,2.06-0.03,4.13-0.04,6.19c-0.84-0.16-1.75-0.06-2.45-0.7
		c0.28-2.01-0.62-4.14,0.56-6.07C256.72,480.11,257.36,480.3,258,480.5z"/>
	<path style="fill:#F4C341;" d="M249.4,483.67c0.03-2.06,0.06-4.12,0.09-6.18c0.8,0.07,1.47,0.42,2.07,0.92
		c-0.03,2.07-0.06,4.14-0.09,6.2C250.68,484.54,249.96,484.27,249.4,483.67z"/>
	<path style="fill:#F4C341;" d="M261.93,487.64c0.02-2.08,0.04-4.15,0.07-6.23c0.71,0.09,1.48-0.07,2.09,0.48
		c-0.03,2.05-0.06,4.11-0.1,6.16C263.28,488.04,262.55,488.11,261.93,487.64z"/>
	<path style="fill:#F5BA2C;" d="M223.02,436.91c-0.27,2.15-0.71,4.28-0.53,6.47c-9.79,2.24-19.65,2.86-29.6,1.28
		c0.06-2.16,0.11-4.32,0.17-6.48c5.37,0.37,10.7,0.96,16.14,0.52C213.86,438.32,218.41,437.41,223.02,436.91z"/>
	<path style="fill:#FAE8B4;" d="M230,457.9c-1.17-1.29-2.35-2.58-3.52-3.87c-1.29-2.47-2.59-4.94-3.88-7.41
		c0.01-0.73,0.02-1.46,0.03-2.18c1.39,0.63,0.9,2.12,1.43,3.15c0.71,1.37,1.32,2.78,2.41,3.91c2.22,3.77,5.6,6.3,9.2,8.58
		c10.67,6.74,22.63,8.92,34.95,9.34c8.58,0.29,17.07-0.89,25.27-3.53c3.34-1.08,6.82-2.04,9.61-4.39c1.02-0.12,1.71-0.9,2.59-1.31
		c1.96-0.93,3.61-2.56,5.93-2.68c-1.78,2.19-4.26,3.46-6.51,5.04c-11.38,6.34-23.69,8.64-36.57,8.47c-3.3-0.04-6.61-0.3-9.91-0.46
		c-1.29-0.47-2.62-0.59-3.98-0.62c-0.6-0.55-1.34-0.43-2.06-0.43c-1.33-0.33-2.67-0.65-4-0.98c-0.66-0.2-1.32-0.4-1.98-0.6
		c-1.24-0.61-2.57-0.88-3.93-1.03c-0.61-0.91-1.67-0.95-2.56-1.33c-1.35-0.67-2.7-1.33-4.05-2c-0.66-0.35-1.32-0.7-1.97-1.05
		c-1.33-0.84-2.66-1.68-3.99-2.52C231.85,459.08,231.15,458.22,230,457.9z"/>
	<path style="fill:#FCD662;" d="M180.51,441.96c-1.4-0.29-2.78-0.66-4.01-1.42c0.03-2.05,0.06-4.09,0.09-6.14
		c1.32,0.4,2.64,0.79,3.95,1.19C180.52,437.71,180.52,439.84,180.51,441.96z"/>
	<path style="fill:#F4C341;" d="M222.6,446.63c1.29,2.47,2.59,4.94,3.88,7.41c-0.01,1.91-0.01,3.82-0.02,5.73
		C222.9,456.05,222.5,451.41,222.6,446.63z"/>
	<path style="fill:#FCD562;" d="M174.39,439.7c-1.45-0.36-2.75-1.02-3.93-1.94c0.01-2.08,0.02-4.17,0.04-6.25
		c1.33,0.66,2.66,1.32,4,1.98C174.46,435.56,174.42,437.63,174.39,439.7z"/>
	<path style="fill:#FCD662;" d="M193.06,438.17c-0.06,2.16-0.11,4.32-0.17,6.48c-1.3-0.22-2.68,0-3.9-0.67
		c0.04-2.04,0.08-4.08,0.11-6.11C190.43,437.97,191.75,438.07,193.06,438.17z"/>
	<path style="fill:#FCD662;" d="M163.92,433.58c1.17-1.77,0.27-3.76,0.61-5.62c1.34,0.83,2.68,1.66,4.01,2.49
		c-1.13,1.91-0.28,3.99-0.52,5.98C166.48,435.73,165.07,434.84,163.92,433.58z"/>
	<path style="fill:#FCD662;" d="M186.51,443.48c-1.26,0.04-2.44-0.24-3.53-0.89c0.01-2.04,0.03-4.08,0.04-6.12
		c1.23,0.01,2.4,0.27,3.47,0.9C186.5,439.41,186.51,441.44,186.51,443.48z"/>
	<path style="fill:#F4C341;" d="M183.02,436.47c-0.01,2.04-0.03,4.08-0.04,6.12c-0.88,0.02-1.72-0.14-2.47-0.63
		c0.01-2.12,0.02-4.24,0.03-6.36C181.42,435.7,182.3,435.88,183.02,436.47z"/>
	<path style="fill:#F4C341;" d="M168.02,436.44c0.24-1.99-0.6-4.07,0.52-5.98c0.65,0.35,1.3,0.7,1.95,1.05
		c-0.01,2.08-0.02,4.17-0.04,6.25C169.57,437.46,168.68,437.17,168.02,436.44z"/>
	<path style="fill:#F4C341;" d="M186.51,443.48c-0.01-2.04-0.01-4.07-0.02-6.1c0.88,0.12,1.83-0.13,2.62,0.49
		c-0.04,2.04-0.08,4.08-0.11,6.11C188.13,444.01,187.26,444.06,186.51,443.48z"/>
	<path style="fill:#F4C341;" d="M174.39,439.7c0.04-2.07,0.07-4.14,0.11-6.21c0.8,0.08,1.49,0.38,2.09,0.91
		c-0.03,2.05-0.06,4.09-0.09,6.14C175.68,440.52,174.99,440.24,174.39,439.7z"/>
	<path style="fill:#E7A201;" d="M332.49,497.53c-1.76-1.51-3.52-3.01-4.91-4.89c-2.23-3.02-3.15-6.34-2.38-10.06
		c0.53-0.15,0.79-0.57,1-1.03c2.11-4.63,5.84-7.57,10.25-9.77c11.53-5.75,23.65-6.54,36.08-3.98c6.66,1.37,12.79,3.91,17.84,8.74
		c1.76,1.68,2.62,4,4.47,5.55c1.44,8.83-3.98,13.63-10.59,17.45c-6.23,3.59-13.18,5.01-20.3,5.45c-8.66,0.54-17.09-0.58-25.16-3.95
		C336.55,500.09,334.57,498.73,332.49,497.53z M368.48,480.99c-0.55,0.39-1.37,0.5-1.38,1.42c0.27,1.53,3.19,3.57,5.15,3.59
		c1.91,0.02,3.85-1.86,4.18-4.06c0.1-1.35,0.31-2.7-0.47-3.94c0.84-0.63,2.11-1.07,1.08-2.5c-0.49-1.02-1.42-1.41-2.24-0.77
		c-1.51,1.18-2.96,0.76-4.46,0.24c-1.77-0.62-3.61-0.62-5.42-0.47c-5.65,0.45-10.41,3.27-8.58,10.3c0.61,2.34-0.95,4.37-3.29,4.67
		c-0.6,0.08-1.45,0.36-1.77-0.43c-0.29-0.72,0.53-0.88,0.95-1.23c1.82-1.54,1.68-2.38-0.51-3.3c-0.38-0.16-0.8-0.27-1.14-0.5
		c-1.82-1.25-3.43-1.13-5.14,0.36c-1.8,1.56-2.49,3.48-1.74,5.55c0.55,1.52,0.6,2.74-0.17,4.07c-0.38,2,0.61,2.2,2.18,1.66
		c1.13-0.39,2.04-1.51,3.47-0.84c2.2,1.04,4.58,0.76,6.88,0.66c3.62-0.15,6.84-2.59,7.46-5.46c1.19-2.75,0.11-5.66,0.56-8.46
		C365.55,481.39,366.81,479.58,368.48,480.99z"/>
	<path style="fill:#F5BA2C;" d="M394.84,482.08c-1.84-1.56-2.7-3.87-4.47-5.55c-5.05-4.83-11.18-7.37-17.84-8.74
		c-12.43-2.56-24.55-1.76-36.08,3.98c-4.41,2.2-8.14,5.14-10.25,9.77c-0.21,0.46-0.47,0.88-1,1.03c0.55-4.59,3.55-7.55,6.97-10.13
		c5.71-4.32,12.32-6.41,19.31-7.39c10.21-1.43,20.18-0.51,29.76,3.47c1.45,0.6,2.84,1.33,4.25,2c3.56,2.68,7.11,5.37,8.86,9.69
		C394.6,480.82,395.06,481.37,394.84,482.08z"/>
	<path style="fill:#FAE8B4;" d="M311.41,492.09c0.15-0.34,0.11-1.23,0.73-0.28c0.79,1.22,1.56,2.45,2.34,3.68
		c0.03,0.31,0.06,0.63,0.1,0.94c-0.12,0.11-0.25,0.23-0.37,0.34C312.93,495.41,311.98,493.86,311.41,492.09z"/>
	<path style="fill:#FAE8B4;" d="M328.04,433.49c-0.94,5.98-4.82,9.99-9.2,13.62c-1.51,1.25-3.23,2.25-4.85,3.37
		c-2.11,0.16-3.4,1.92-5.26,2.64c-8.45,3.29-17.16,5.18-26.23,5.42c-4.82,0.13-9.64,0.04-14.45-0.47c-1.35-0.19-2.7-0.39-4.05-0.58
		c-0.66-0.15-1.32-0.31-1.99-0.46c-1.31-0.22-2.61-0.43-3.92-0.65c-0.75-0.63-1.6-0.95-2.59-0.88c-1.34-0.5-2.67-1-4.01-1.49
		c-0.48-0.2-0.96-0.39-1.44-0.59c-1.5-0.67-3-1.33-4.5-2c-0.77-0.62-1.51-1.29-2.55-1.43c-1.17-0.82-2.35-1.63-3.52-2.45
		c-0.83-0.68-1.66-1.35-2.48-2.03c-0.97-1.36-2.14-2.52-3.47-3.53c-1.18-2.32-2.36-4.64-3.55-6.95c0.02-0.49,0.05-0.98,0.11-2.11
		c1.36,2.5,1.88,4.83,3.4,6.58c6.47,8.27,15.42,12.36,25.24,14.96c8.08,2.14,16.34,2.99,24.66,2.47c11.81-0.74,23.19-3.2,33.19-9.98
		c4.39-2.97,8.09-6.63,10.3-11.59C327.18,434.7,327.37,433.94,328.04,433.49z"/>
	<path style="fill:#F5BA2C;" d="M261.03,470.55c3.3,0.16,6.6,0.42,9.91,0.46c12.88,0.17,25.19-2.13,36.57-8.47
		c0.26,2.01-0.7,4.14,0.57,6.06c-0.49,0.77-0.31,1.07,0.55,0.69c1.77-0.79,3.51-1.63,5.26-2.45c0.49,1.88-0.52,3.95,0.67,5.75
		c-0.03,0.15-0.05,0.29-0.07,0.44c-3.02,1.32-6,2.74-9.06,3.95c-7.26,2.86-14.9,3.94-22.61,4.41c-4.95,0.3-9.93,0.19-14.82-0.9
		c-0.15-1.29,0.71-3.01-1.86-3.07c-2.07-0.05-2.31,0.94-2.18,2.52c-0.71,0.09-1.36-0.11-1.97-0.44
		C261.26,476.56,260.74,473.6,261.03,470.55z M306.65,469.65c-0.07,0.02-0.14,0.03-0.21,0.05c0.02,0.05,0.04,0.14,0.06,0.14
		c0.07,0,0.14-0.03,0.21-0.05C306.69,469.75,306.67,469.7,306.65,469.65z"/>
	<path style="fill:#FCD662;" d="M388.48,516.91c-1.75,2.24-4.51,2.68-6.91,3.6c-7.08,2.71-14.42,4.1-22.03,4.64
		c-13.56,0.97-26.46-1.15-38.6-7.23c-4.9-2.45-9.45-5.57-12.45-10.42c2.99,0.58,5.98,1.13,8.95,1.75c0.59,0.12,1.11,0.36,1.56-0.24
		c0.98,0.52,1.54,0.38,1.51-0.89c-0.03-1.4,0.04-2.8,0.06-4.2c1.33,0.84,2.66,1.68,3.98,2.52c-1.07,1.76-0.48,3.68-0.42,5.51
		c0.03,0.81,0.77,1.57,1.72,1.41c0.88-0.15,0.63-1.03,0.64-1.65c0.03-1.4,0.01-2.8,0.01-4.2c1.34,0.65,2.67,1.3,4.01,1.95
		c0,1.82,0,3.63,0,5.45c0,0.8,0.5,1.28,1.19,1.34c1.1,0.1,0.77-0.84,0.8-1.4c0.08-1.48,0.08-2.97,0.11-4.45
		c1.31,0.41,2.63,0.82,3.94,1.23c0,1.83-0.04,3.65,0,5.48c0.02,0.87,0.55,1.37,1.45,1.35c0.94-0.01,0.99-0.71,0.99-1.4
		c0-1.49-0.01-2.99-0.02-4.48c1.4,0.03,2.73,0.37,4.05,0.8c-0.01,1.73-0.02,3.45-0.02,5.17c0,0.68,0.06,1.37,0.98,1.39
		c0.94,0.02,1-0.66,1.01-1.35c0.03-1.56,0.06-3.12,0.09-4.68c1.29,0.27,2.7-0.26,3.92,0.53c0,1.67,0.03,3.33,0,4.99
		c-0.01,0.98,0.29,1.54,1.4,1.6c1.4,0.07,2.79,0.4,4.19,0.44c8.57,0.25,17.05-0.21,25.43-2.32
		C382.85,518.44,385.51,517.09,388.48,516.91z"/>
	<path style="fill:#FAE8B4;" d="M268,480.5c4.89,1.09,9.87,1.2,14.82,0.9c7.71-0.47,15.36-1.56,22.61-4.41
		c3.06-1.21,6.04-2.63,9.06-3.95c-0.06,0.99-0.84,1.56-1.33,2.3c-5.9,2.71-11.93,5.01-18.37,6.16c-7.81,1.39-15.65,1.98-23.57,1.08
		c-1.07-0.12-2.16-0.07-3.24-0.09c-1.21-0.85-2.63-0.26-3.91-0.58c-0.61-0.55-1.38-0.38-2.09-0.48c-1.33-0.31-2.66-0.61-3.99-0.91
		c-0.64-0.19-1.29-0.39-1.93-0.58c-1.5-0.5-3-1-4.51-1.5c-0.6-0.51-1.27-0.85-2.07-0.92c-1.26-0.61-2.45-1.39-3.87-1.64
		c-0.54-0.7-1.32-1.04-2.11-1.38c-1.33-0.84-2.67-1.67-4-2.51c-0.35-0.49-0.69-0.98-1.04-1.47c1.58-0.15,2.68,1.02,4.03,1.48
		c0.76,0.49,1.37,1.3,2.45,1.08l0.01-0.05c0.01,0.17,0.01,0.34,0.02,0.51c1.49,0.68,2.99,1.36,4.48,2.04
		c0.67,0.31,1.35,0.61,2.02,0.92c1.35,0.49,2.69,0.97,4.04,1.46c0.81,0.26,1.58,0.71,2.48,0.58c1.28,0.54,2.61,0.87,3.99,0.99
		c0.61,0.34,1.26,0.53,1.97,0.44C265.31,480.12,266.6,480.7,268,480.5z"/>
	<path style="fill:#FCD662;" d="M314.5,498c1.33,1.33,2.66,2.67,4,4c-1.09,1.76-0.2,3.7-0.54,5.53c-2.16-0.75-2.99-2.68-3.96-4.48
		C314.24,501.37,313.5,499.6,314.5,498z"/>
	<path style="fill:#F4C341;" d="M314.5,498c-1.01,1.6-0.26,3.37-0.5,5.05c-2.88-2.83-2.79-6.66-3.41-10.25
		c-0.08-0.48,0.36-0.68,0.82-0.71c0.57,1.78,1.52,3.33,2.8,4.68C314.3,497.18,314.4,497.59,314.5,498z"/>
	<path style="fill:#F4C341;" d="M317.96,507.53c0.34-1.83-0.55-3.78,0.54-5.53c0.81,0.51,1.54,1.11,2.07,1.92
		c-0.02,1.4-0.09,2.8-0.06,4.2c0.02,1.27-0.53,1.41-1.51,0.89C318.65,508.51,318.3,508.02,317.96,507.53z"/>
	<path style="fill:#FCD662;" d="M264,457.5c1.35,0.19,2.7,0.39,4.05,0.58c-0.01,1.58,0.03,3.16-0.05,4.73
		c-0.08,1.63,0.66,2.15,2.23,2.21c5.11,0.19,10.18,0.7,15.34,0.08c5.92-0.71,11.77-1.51,17.46-3.33c0.77-0.24,1.56-1.11,2.48-0.27
		c-2.8,2.35-6.27,3.32-9.61,4.39c-8.19,2.64-16.69,3.83-25.27,3.53c-12.32-0.42-24.27-2.6-34.95-9.34c-3.6-2.28-6.98-4.81-9.2-8.58
		c4.02,0.63,7.89,2.18,12.05,1.99c1.07-0.14,0.97-0.96,0.97-1.71c0-1.42-0.01-2.83-0.01-4.25c1.17,0.82,2.35,1.63,3.52,2.45
		c0,1.64,0.05,3.29-0.01,4.93c-0.05,1.28,0.49,2.27,1.69,2.28c1.44,0.01,0.71-1.34,0.79-2.08c0.13-1.22,0.07-2.46,0.08-3.69
		c1.5,0.67,3,1.33,4.5,2c-1.12,1.83-0.4,3.82-0.48,5.74c-0.03,0.59,0.49,0.81,1.04,0.77c0.61-0.04,0.86-0.44,0.86-0.99
		c0.02-1.64,0.01-3.29,0.01-4.93c1.34,0.5,2.67,1,4.01,1.49c0.01,1.81-0.02,3.62,0.03,5.43c0.03,1.03,0.82,1.45,1.68,1.42
		c0.96-0.03,0.75-0.91,0.77-1.53c0.06-1.48,0.07-2.96,0.11-4.44c1.31,0.22,2.61,0.43,3.92,0.65c0,1.82-0.02,3.64,0,5.46
		c0.01,0.81,0.6,1.24,1.28,1.26c0.86,0.03,0.69-0.76,0.7-1.3C264.02,460.81,264,459.15,264,457.5z"/>
	<path style="fill:#F5BA2C;" d="M238.97,406.45c0.3,1.54-0.51,3.22,0.59,4.66c-1.35,1.27-2.71,2.54-4.06,3.81
		c-0.4,0.08-0.85,0.08-1.03,0.57c0,0,0.01-0.02,0.01-0.02c-0.41,0.05-0.85,0.02-1.21,0.18c-12.96,5.38-26.43,6.42-40.22,4.78
		c-0.01-2.13-0.01-4.25-0.02-6.38c0.58,0.01,1.17-0.04,1.74,0.02c10.24,1.09,20.35,0.5,30.34-2.18
		C229.95,410.59,234.46,408.55,238.97,406.45z"/>
	<path style="fill:#F5BA2C;" d="M233.04,417.38c-1.15,2.68-2.29,5.36-3.44,8.04c-0.49,0.06-1.02,0.04-1.48,0.2
		c-7.44,2.61-15.19,3.51-22.98,3.67c-4.02,0.09-8.13,0.1-12.12-0.83c0.01-2.12,0.02-4.25,0.02-6.37c1.05,0.13,2.1,0.34,3.16,0.39
		C208.8,423.07,221.19,422.21,233.04,417.38z"/>
	<path style="fill:#F5BA2C;" d="M228.06,427.32c-1.53,2.58-3.07,5.17-4.6,7.75c-5.87,1.5-11.87,2.05-17.89,2.33
		c-4.2,0.2-8.41-0.09-12.56-0.92c0.02-2.12,0.04-4.25,0.06-6.37c3.72,0.27,7.45,0.86,11.15,0.74
		C212.28,430.6,220.3,429.72,228.06,427.32z"/>
	<path style="fill:#FAE8B4;" d="M233.04,417.38c-11.84,4.83-24.24,5.69-36.83,5.1c-1.06-0.05-2.1-0.26-3.16-0.39
		c-1.35-0.19-2.71-0.38-4.06-0.56c-0.81-0.18-1.58-0.63-2.46-0.45c-1.12-0.39-2.27-0.68-3.47-0.66c-0.76-0.57-1.63-0.82-2.56-0.89
		c-1.23-0.58-2.5-1.06-3.88-1.15c-0.38-0.55-0.92-0.84-1.58-0.94c-1.51-0.66-3.01-1.32-4.52-1.98c-0.75-0.63-1.49-1.28-2.51-1.41
		c-1.37-0.8-2.43-2.07-3.98-2.59c-0.32-0.68-0.87-1.12-1.5-1.5c-1.37-1.51-2.78-2.98-4.08-4.54c-0.56-0.67-1.17-1.41-0.96-2.42
		c0.16-0.03,0.33-0.04,0.5-0.03c1.02,1.79,2.31,3.35,3.96,4.6c0.67,0.88,1.37,1.73,2.53,1.99c0.91,1.18,2.25,1.77,3.49,2.49
		c0.72,0.69,1.48,1.31,2.51,1.45c1.34,0.67,2.68,1.34,4.02,2c0.66,0.23,1.31,0.46,1.97,0.68c1.33,0.46,2.67,0.92,4,1.37
		c0.72,0.58,1.58,0.76,2.48,0.83c1.17,0.23,2.34,0.46,3.51,0.69c0.72,0.69,1.68,0.41,2.52,0.61c1.36,0.25,2.72,0.5,4.07,0.75
		c13.79,1.64,27.26,0.6,40.22-4.78c0.36-0.15,0.81-0.12,1.21-0.18C234.63,416.58,233.59,416.8,233.04,417.38z"/>
	<path style="fill:#FAE8B4;" d="M228.06,427.32c-7.77,2.4-15.78,3.28-23.84,3.54c-3.71,0.12-7.43-0.47-11.15-0.74
		c-1.36-0.19-2.73-0.38-4.09-0.57c-0.81-0.15-1.62-0.3-2.43-0.44c-1.16-0.22-2.33-0.45-3.49-0.67c-0.84-0.29-1.68-0.58-2.52-0.87
		c-1.31-0.39-2.62-0.78-3.92-1.17c-0.58-0.57-1.32-0.82-2.09-0.98c-1.15-0.86-2.5-1.24-3.88-1.54c-0.35-0.97-1.23-1.19-2.07-1.47
		c-1.34-0.83-2.68-1.65-4.01-2.48c-0.68-0.65-1.35-1.3-2.03-1.96c-2.13-1.61-3.68-3.69-4.64-6.3c1.35,1.3,2.71,2.6,4.06,3.9
		c0.51,0.49,1.02,0.98,1.53,1.46c1.43,1.1,2.72,2.42,4.48,3.02c0.73,0.68,1.49,1.31,2.53,1.46c1.09,1.01,2.48,1.3,3.86,1.62
		c0.37,0.58,0.91,0.86,1.57,0.98c1.46,0.61,2.92,1.25,4.51,1.48c0.75,0.56,1.62,0.8,2.54,0.85c1.12,0.4,2.26,0.68,3.46,0.64
		c0.75,0.57,1.61,0.76,2.52,0.81c1.36,0.19,2.71,0.37,4.07,0.56c3.99,0.93,8.1,0.92,12.12,0.83c7.79-0.17,15.54-1.07,22.98-3.67
		c0.46-0.16,0.98-0.14,1.48-0.2C229.59,426.46,228.74,426.82,228.06,427.32z"/>
	<path style="fill:#FAE8B4;" d="M193.01,436.49c4.15,0.82,8.36,1.11,12.56,0.92c6.02-0.28,12.02-0.83,17.89-2.33
		c0.12,0.68-0.12,1.27-0.44,1.84c-4.62,0.5-9.17,1.41-13.82,1.79c-5.44,0.44-10.77-0.15-16.14-0.52c-1.32-0.1-2.64-0.2-3.95-0.31
		c-0.79-0.62-1.73-0.38-2.62-0.5c-1.07-0.63-2.24-0.89-3.47-0.9c-0.72-0.59-1.6-0.76-2.49-0.87c-1.32-0.4-2.64-0.79-3.95-1.19
		c-0.59-0.53-1.29-0.84-2.08-0.91c-1.33-0.66-2.66-1.32-4-1.98c-0.65-0.35-1.3-0.7-1.95-1.05c-1.34-0.83-2.68-1.66-4.01-2.49
		c-0.65-0.92-1.39-1.74-2.53-2.07c-1.31-1.49-2.63-2.97-3.94-4.45c-0.15-1.06-1.36-1.72-1.08-2.94c1.88,1.47,2.93,3.75,4.94,5.09
		c0.53,0.81,1.23,1.44,2.06,1.93c1.22,1,2.44,2.01,3.95,2.56c0.62,0.88,1.54,1.27,2.55,1.49c1.2,0.91,2.54,1.54,3.98,1.97
		c0.67,0.3,1.34,0.61,2.01,0.91c1.33,0.33,2.49,1.23,3.93,1.14c0.74,0.65,1.58,0.96,2.57,0.87c1.05,0.7,2.27,0.52,3.43,0.63
		c0.62,1,1.58,0.94,2.56,0.83C190.32,436.11,191.66,436.3,193.01,436.49z"/>
	<path style="fill:#FCD562;" d="M233.53,441.99c1.33,1,2.5,2.17,3.47,3.53c-0.02,1.84-0.03,3.68-0.05,5.52
		c-1.94-0.74-3.08-2.26-3.95-4.04C233.25,445.33,232.46,443.56,233.53,441.99z"/>
	<path style="fill:#F4C341;" d="M233.53,441.99c-1.07,1.58-0.28,3.35-0.53,5.01c-2.74-3.55-3.67-7.56-3.02-11.96
		C231.17,437.35,232.35,439.67,233.53,441.99z"/>
	<path style="fill:#F4C341;" d="M236.95,451.03c0.02-1.84,0.03-3.68,0.05-5.52c0.83,0.68,1.66,1.35,2.48,2.03
		c0,1.42,0.01,2.83,0.01,4.25c0,0.75,0.1,1.56-0.97,1.71C238.12,452.6,236.98,452.17,236.95,451.03z"/>
	<path style="fill:#FAE8B4;" d="M234.47,415.48c0.17-0.49,0.63-0.49,1.03-0.57C235.31,415.38,234.92,415.49,234.47,415.48z"/>
	<path style="fill:#FCD562;" d="M407.71,401.6c-2.98,2.78-6.82,4.19-10.18,6.38c-0.82,0.54-1.69,1.01-2.54,1.51
		c-4.7-2.15-8.95-5.12-13.52-7.5c4.16-3.19,8.88-5.44,13.42-8C399.16,396.52,403.43,399.06,407.71,401.6z"/>
	<path style="fill:#FEFEFE;" d="M288.58,271.04c-0.8-0.47-1.25-1.13-0.95-2.07c0.37-1.19,1.37-0.99,2.28-0.95
		C291.27,269.82,290.23,270.57,288.58,271.04z"/>
	<path style="fill:#E7A201;" d="M145.45,292.77c1.38,0.56,2.65,1.29,4.02,2.51c-3.33,1.91-6.51,3.75-9.71,5.56
		c-0.84,0.47-1.61,0.02-2.33-0.39c-2.59-1.46-5.15-2.98-7.77-4.38c-1.37-0.73-0.93-1.26,0.02-1.88c0.83-0.53,1.84-0.79,2.44-1.65
		C136.5,296.1,140.94,296.63,145.45,292.77z"/>
	<path style="fill:#FEFEFE;" d="M273.99,275.52c0.13-0.72-0.57-1.15-0.74-1.81c1.29-0.47,2.3,0.35,3.4,0.48
		c0.49,0.06,1.31,0.25,1.12,1.02c-0.19,0.76-0.94,0.84-1.64,0.72c-0.72-0.12-1.43-0.29-2.15-0.43
		C273.98,275.51,273.99,275.52,273.99,275.52z"/>
	<path style="fill:#F5BA2C;" d="M196.59,389.67c15.5,1.76,30.49,0.28,44.58-6.99c0.36-0.19,0.79-0.27,1.18-0.4
		c0.05,1.39,0.04,2.79,0.17,4.17c0.13,1.46-0.14,2.5-1.77,2.96c-1.33,0.38-1.85,1.47-1.77,2.89c0.08,1.39,0.01,2.79,0.01,4.19
		c-2.66,1.87-5.68,2.99-8.68,4.12c-7.27,2.73-14.88,3.87-22.59,4.3c-4.94,0.28-9.9,0.18-14.78-0.86c0.01-2.04,0.02-4.09,0.03-6.13
		c0.91,0.03,1.83,0,2.73,0.1c7.97,0.88,15.88,0.48,23.73-1.08c3.03-0.12,5.81-1.15,8.62-2.09c-0.04-0.2-0.09-0.4-0.13-0.6
		c-3.01,0.68-6.02,1.37-9.03,2.05c-7.45,0.65-14.9,0.89-22.35,0.08C196.58,394.15,196.58,391.91,196.59,389.67z"/>
	<path style="fill:#F5BA2C;" d="M238.91,398.38c0.03,2.03,0.06,4.05,0.09,6.08c-0.7,0.89-1.75,1.23-2.71,1.69
		c-9.75,4.66-20.06,6.83-30.83,6.88c-4.21,0.02-8.45,0.31-12.57-0.91c0.04-2.03,0.08-4.07,0.12-6.1c0.66,0.01,1.33-0.05,1.99,0.03
		c9.23,1.11,18.36,0.47,27.42-1.55C228.18,403.2,233.65,401.06,238.91,398.38z"/>
	<path style="fill:#FAE8B4;" d="M238.91,398.38c-5.26,2.69-10.73,4.82-16.5,6.11c-9.05,2.02-18.18,2.66-27.42,1.55
		c-0.65-0.08-1.33-0.02-1.99-0.03c-1.29-0.41-2.61-0.57-3.96-0.57c-0.76-0.66-1.67-0.43-2.54-0.46c-1.06-0.72-2.37-0.55-3.51-0.95
		c-0.74-0.52-1.62-0.55-2.47-0.67c-1.33-0.47-2.66-0.93-3.99-1.39c-0.67-0.3-1.34-0.6-2.01-0.9c-1.31-0.56-2.61-1.11-3.92-1.67
		c-0.36-0.55-0.9-0.83-1.5-1.01c-3.41-2.1-6.59-4.48-9.36-7.38c-0.81-0.85-1.56-1.73-1.81-2.93c0.06-0.06,0.12-0.12,0.18-0.17
		c1.91,0.53,2.25,2.77,3.89,3.59c0.64,0.53,1.29,1.07,1.93,1.6c1.18,1.21,2.67,1.99,4.09,2.86c0.64,0.37,1.28,0.75,1.92,1.12
		c1.49,0.68,2.97,1.36,4.46,2.04c0.6,0.55,1.3,0.86,2.11,0.91c1.33,0.49,2.66,0.97,4,1.46c0.77,0.5,1.62,0.62,2.51,0.55
		c1.12,0.48,2.24,0.97,3.5,0.94c0.81,0.24,1.58,0.67,2.48,0.52c1.29,0.41,2.61,0.59,3.96,0.56c4.88,1.05,9.84,1.14,14.78,0.86
		c7.7-0.43,15.32-1.57,22.59-4.3c3-1.12,6.03-2.24,8.68-4.12c0.97-0.5,1.93-0.99,2.9-1.49c0.03,0.32,0.06,0.64,0.09,0.96
		C241.12,396.97,239.51,397.02,238.91,398.38z"/>
	<path style="fill:#FAE8B4;" d="M192.89,412.11c4.12,1.22,8.36,0.93,12.57,0.91c10.77-0.05,21.08-2.22,30.83-6.88
		c0.96-0.46,2.01-0.8,2.71-1.69c1.2,0,1.82-1.18,2.91-1.41c0.03,0.32,0.06,0.63,0.09,0.94c-1.05,0.77-2.32,1.28-3.04,2.46
		c-4.51,2.1-9.02,4.15-13.86,5.44c-9.99,2.68-20.1,3.26-30.34,2.18c-0.57-0.06-1.16-0.02-1.74-0.02c-1.34-0.18-2.68-0.37-4.02-0.55
		c-0.77-0.45-1.61-0.55-2.48-0.45c-1.11-0.39-2.24-0.66-3.42-0.65c-0.73-0.69-1.61-0.94-2.59-0.95c-1.33-0.48-2.67-0.96-4-1.45
		c-0.48-0.2-0.95-0.4-1.43-0.6c-1.51-0.65-3.02-1.31-4.53-1.96c-0.76-0.64-1.51-1.29-2.55-1.43c-1.06-0.98-2.25-1.76-3.54-2.4
		c-0.84-0.67-1.39-1.69-2.46-2.08c-1.13-1.39-2.22-2.82-3.84-3.69c0.04-1.01-0.91-1.78-0.67-2.83c2.81,2.57,4.92,5.91,8.42,7.74
		c0.72,0.38,1.4,0.83,2.1,1.24c0.64,0.37,1.29,0.74,1.93,1.12c1.38,0.89,2.79,1.73,4.44,2.03c0.59,0.56,1.3,0.86,2.1,0.98
		c1.34,0.47,2.67,0.94,4.01,1.41c0.75,0.51,1.62,0.56,2.49,0.6c1.16,0.31,2.33,0.62,3.49,0.93c0.74,0.73,1.68,0.4,2.54,0.48
		C190.23,412.22,191.59,411.92,192.89,412.11z"/>
	<path style="fill:#FCDD80;" d="M241.99,395.96c-0.03-0.32-0.06-0.64-0.09-0.96c4.45-3.39,7.93-7.61,10.61-12.49l-0.03-0.03
		c0.15,2.51-1.32,4.39-2.63,6.24C247.77,391.69,245.42,394.43,241.99,395.96z"/>
	<path style="fill:#FCDD80;" d="M242,403.99c-0.03-0.31-0.06-0.63-0.09-0.94c4-3.11,7.53-6.65,10.1-11.06
		c0.25,1.35-0.48,2.38-1.16,3.41C248.53,398.9,245.97,402.17,242,403.99z"/>
	<path style="fill:#FCDD80;" d="M253,389.74c0,0.41,0,0.83,0,1.24c-0.34,0.34-0.67,0.69-1.01,1.03
		C251.89,391.06,252.29,390.33,253,389.74z"/>
	<path style="fill:#FCDD80;" d="M252.51,382.51c0.05-0.23,0.1-0.46,0.15-0.69c0.09,0.07,0.18,0.14,0.27,0.2
		c-0.15,0.15-0.3,0.31-0.45,0.46C252.48,382.49,252.51,382.51,252.51,382.51z"/>
	<path style="fill:#FEFEFE;" d="M338.84,331.88c0.73-4.73,3.88-7.98,8.15-8.4c4.37-0.43,8.26,2.05,9.7,6.18
		c1.37,3.95-0.13,8.37-3.71,10.68c-2.1,1.36-4.42,1.82-6.89,1.27C345.87,335.96,343.76,333.12,338.84,331.88z"/>
	<path style="fill:#F5BA2C;" d="M388.48,516.91c-2.96,0.18-5.62,1.53-8.45,2.24c-8.38,2.11-16.86,2.57-25.43,2.32
		c-1.4-0.04-2.79-0.37-4.19-0.44c-1.11-0.06-1.41-0.61-1.4-1.6c0.02-1.66,0-3.33,0-4.99c4.39-0.03,8.75,0.71,13.16,0.52
		c11.04-0.48,21.7-2.47,31.59-7.64c0.36-0.19,0.77-0.29,1.15-0.44c0.03,2.03,0.06,4.07,0.09,6.1
		C392.92,514.44,390.9,516,388.48,516.91z"/>
	<polygon style="fill:#FAE8B4;" points="397.18,512.34 397.13,512.18 397.29,512.21 	"/>
	<path style="fill:#F4C341;" d="M338.97,512.56c0.01,1.49,0.02,2.99,0.02,4.48c0,0.69-0.05,1.39-0.99,1.4
		c-0.9,0.01-1.43-0.48-1.45-1.35c-0.04-1.82-0.01-3.65,0-5.48C337.49,511.57,338.21,512.13,338.97,512.56z"/>
	<path style="fill:#F4C341;" d="M326.5,507.51c0,1.4,0.02,2.8-0.01,4.2c-0.01,0.62,0.24,1.5-0.64,1.65
		c-0.96,0.16-1.69-0.6-1.72-1.41c-0.06-1.84-0.66-3.75,0.42-5.51C325.2,506.79,325.85,507.15,326.5,507.51z"/>
	<path style="fill:#F4C341;" d="M332.61,510.39c-0.03,1.48-0.03,2.97-0.11,4.45c-0.03,0.57,0.31,1.51-0.8,1.4
		c-0.69-0.07-1.19-0.54-1.19-1.34c0-1.81,0-3.63,0-5.45C331.3,509.55,332,509.86,332.61,510.39z"/>
	<path style="fill:#F4C341;" d="M345.09,513.9c-0.03,1.56-0.05,3.12-0.09,4.68c-0.01,0.69-0.08,1.37-1.01,1.35
		c-0.93-0.02-0.98-0.71-0.98-1.39c0-1.72,0.01-3.45,0.02-5.17C343.72,513.51,344.5,513.31,345.09,513.9z"/>
	<path style="fill:#F5BA2C;" d="M305.5,461.49c-0.92-0.83-1.71,0.03-2.48,0.27c-5.69,1.82-11.55,2.62-17.46,3.33
		c-5.16,0.62-10.23,0.11-15.34-0.08c-1.57-0.06-2.31-0.58-2.23-2.21c0.08-1.57,0.04-3.15,0.05-4.73c4.8,0.5,9.62,0.59,14.45,0.47
		c9.07-0.24,17.78-2.14,26.23-5.42c1.86-0.72,3.15-2.49,5.26-2.64c0,2.11,0,4.22,0.01,6.33c0,0.24,0.01,0.48,0.01,0.72
		c0,0,0.02-0.03,0.02-0.03c-2.32,0.13-3.97,1.76-5.93,2.68C307.22,460.6,306.52,461.37,305.5,461.49z"/>
	<path style="fill:#FAE8B4;" d="M314,457.53c0-0.24-0.01-0.48-0.01-0.72C314.34,457.04,314.45,457.28,314,457.53z"/>
	<path style="fill:#FCD662;" d="M180.49,385.37c0.86,1.24,2.36,1.15,3.54,1.71c0.09,2.44-0.44,4.92,0.51,7.3
		c-1.2-0.29-2.42-0.52-3.59-0.89c-7.82-2.5-15.11-5.91-20.8-12.08c-0.83-0.9-2.03-1.8-1.47-3.17c0.5-1.22-0.21-1.86-0.69-2.68
		c0.02-2.04,0.03-4.08,0.05-6.13c1.33,0.84,2.66,1.68,3.99,2.52c-1.12,1.67-0.13,3.57-0.58,5.29c-0.4,1.52,0.81,1.47,1.53,1.61
		c1.16,0.22,0.98-0.8,1.01-1.51c0.06-1.32,0.08-2.64,0.12-3.97c1.45,0.17,2.6,1.07,3.89,1.63c0,1.83-0.02,3.66,0.01,5.49
		c0.01,0.73,0.33,1.37,1.14,1.37c1.01,0,0.82-0.85,0.84-1.48c0.05-1.5,0.05-2.99,0.08-4.49c1.32,0.41,2.65,0.82,3.97,1.23
		c-0.02,1.57-0.02,3.15-0.05,4.72c-0.01,0.47,0.08,1.35-0.36,1.3c-3.54-0.39-1.8,2.27-2.07,3.63c-0.21,1.07,0.49,2.09,1.64,2.05
		c1.25-0.05,0.62-1.27,0.8-1.99c0.23-0.95-0.65-2.53,0.86-2.73c1.75-0.23,1.67-1.21,1.65-2.41c-0.02-1.24,0-2.49,0.01-3.73
		c1.34,0.3,2.67,0.6,4.01,0.91C180.51,381.05,180.5,383.21,180.49,385.37z M180,388.98c0-0.86-0.02-1.53,0.01-2.19
		c0.04-0.91-0.46-1.5-1.26-1.55c-1.07-0.05-0.67,0.91-0.73,1.48c-0.07,0.65-0.06,1.32-0.01,1.98c0.1,1.14-0.51,3.03,1.24,2.94
		C180.85,391.58,179.54,389.73,180,388.98z M167.24,384.65c0.52-0.89,0.21-1.79,0.24-2.65c0.03-0.81-0.6-1.26-1.25-1.27
		c-1.03-0.02-0.69,0.92-0.72,1.49C165.45,383.44,166.15,384.16,167.24,384.65z"/>
	<path style="fill:#F4C341;" d="M176.51,377.98c0,1.24-0.03,2.49-0.01,3.73c0.02,1.2,0.1,2.18-1.65,2.41
		c-1.51,0.2-0.62,1.78-0.86,2.73c-0.17,0.72,0.45,1.94-0.8,1.99c-1.15,0.04-1.85-0.98-1.64-2.05c0.27-1.36-1.48-4.02,2.07-3.63
		c0.45,0.05,0.35-0.83,0.36-1.3c0.03-1.57,0.04-3.15,0.05-4.72C174.97,377.14,175.73,377.58,176.51,377.98z"/>
	<path style="fill:#FCD662;" d="M186.47,386.03c-1.36,0.08-2.69-0.12-3.98-0.54c0.03-2.03,0.06-4.06,0.09-6.09
		c1.29,0.29,2.7-0.27,3.9,0.56C186.49,381.98,186.48,384.01,186.47,386.03z"/>
	<path style="fill:#F4C341;" d="M164.12,373.38c-0.04,1.32-0.07,2.64-0.12,3.97c-0.03,0.71,0.14,1.73-1.01,1.51
		c-0.72-0.13-1.93-0.08-1.53-1.61c0.45-1.72-0.54-3.62,0.58-5.29C162.94,372.12,163.59,372.65,164.12,373.38z"/>
	<path style="fill:#F4C341;" d="M158.04,369.44c-0.02,2.04-0.03,4.08-0.05,6.12c-1.16-0.29-1.69-1.34-2.5-2.07
		c0.01-2.03,0.01-4.06,0.02-6.1C156.51,367.9,157.44,368.46,158.04,369.44z"/>
	<path style="fill:#F4C341;" d="M170.08,375.9c-0.02,1.5-0.03,2.99-0.08,4.49c-0.02,0.62,0.17,1.48-0.84,1.48
		c-0.82,0-1.13-0.64-1.14-1.37c-0.03-1.83-0.01-3.66-0.01-5.49C168.8,375.06,169.48,375.4,170.08,375.9z"/>
	<path style="fill:#F4C341;" d="M182.59,379.4c-0.03,2.03-0.06,4.06-0.09,6.09c-0.67-0.04-1.34-0.08-2-0.12
		c0.01-2.16,0.02-4.32,0.03-6.48C181.22,379.01,181.99,378.83,182.59,379.4z"/>
	<path style="fill:#F4C341;" d="M163.99,425.52c-0.84-0.48-1.53-1.12-2.06-1.93c0.41-1.85-0.53-3.85,0.6-5.62
		c0.68,0.65,1.35,1.3,2.03,1.96C164.17,421.77,165.09,423.75,163.99,425.52z"/>
	<path style="fill:#F4C341;" d="M163.48,417.03c-0.51-0.49-1.02-0.98-1.53-1.46c0.37-1.86-0.55-3.85,0.6-5.63
		c0.62,0.38,1.17,0.83,1.5,1.5C163.73,413.3,164.59,415.26,163.48,417.03z"/>
	<path style="fill:#FAE8B4;" d="M155,397.98c0.75,0.46,0.82,1.25,0.95,2.01C154.71,399.75,155.07,398.77,155,397.98z"/>
	<path style="fill:#FAE8B4;" d="M156.77,409.66c0.18,0.26,0.43,0.49,0.52,0.77c0.09,0.27-0.15,0.53-0.4,0.35
		c-0.24-0.17-0.35-0.53-0.49-0.82C156.39,409.93,156.59,409.81,156.77,409.66z"/>
	<path style="fill:#FAE8B4;" d="M156.5,417.52c-0.53-0.16-0.6-0.56-0.52-1.03C156.39,416.72,156.48,417.1,156.5,417.52z"/>
	<path style="fill:#FAE8B4;" d="M156.49,401.4c0.45,0.24,0.59,0.62,0.52,1.11C156.53,402.28,156.51,401.84,156.49,401.4z"/>
	<path style="fill:#FAE8B4;" d="M156,416.52c-0.56-0.15-0.55-0.58-0.52-1.03C155.9,415.71,155.98,416.1,156,416.52z"/>
	<path style="fill:#FAE8B4;" d="M157,418.52c-0.53-0.16-0.55-0.58-0.51-1.02C156.9,417.71,156.99,418.09,157,418.52z"/>
	<path style="fill:#FAE8B4;" d="M157,402.48c0.17,0.17,0.35,0.34,0.52,0.52C157.34,402.83,157.17,402.66,157,402.48z"/>
	<path style="fill:#F4C341;" d="M169.94,405.1c-0.64-0.37-1.29-0.74-1.93-1.12c0.21-1.19,0.8-2.34,0.2-3.6
		c-0.45-0.94,0.1-1.56,0.89-2.01c0.61,0.18,1.15,0.46,1.5,1.01C170.14,401.26,171.13,403.3,169.94,405.1z"/>
	<path style="fill:#FAE8B4;" d="M155.98,384.52c-0.59-0.38-0.48-0.97-0.46-1.54c0,0,0,0,0,0c0.55,0.32,0.51,0.89,0.62,1.41
		L155.98,384.52z"/>
	<path style="fill:#FAE8B4;" d="M157.93,388.06c-0.16-0.34-0.32-0.69-0.47-1.03c0,0,0.07-0.05,0.07-0.05c0.2,0.3,0.39,0.6,0.59,0.9
		C158.06,387.94,158,388,157.93,388.06z"/>
	<path style="fill:#FAE8B4;" d="M157.46,387.03c-0.41-0.22-0.49-0.6-0.47-1.02c0,0,0.07-0.05,0.07-0.05
		c0.17,0.16,0.35,0.32,0.52,0.48c-0.02,0.18-0.03,0.37-0.05,0.55L157.46,387.03z"/>
	<path style="fill:#FAE8B4;" d="M157,394.52c-0.48-0.18-0.53-0.59-0.52-1.02C156.94,393.69,157.02,394.08,157,394.52z"/>
	<path style="fill:#FAE8B4;" d="M156.99,386.01c-0.46-0.2-0.49-0.6-0.48-1.02c0,0-0.01,0.01-0.01,0.01c0.39,0.2,0.51,0.56,0.55,0.96
		L156.99,386.01z"/>
	<path style="fill:#FAE8B4;" d="M156.51,384.99c-0.18-0.16-0.36-0.31-0.54-0.47c0,0,0.15-0.13,0.15-0.12
		C156.25,384.6,156.38,384.8,156.51,384.99C156.5,385,156.51,384.99,156.51,384.99z"/>
	<path style="fill:#FAE8B4;" d="M157.5,395.02c-0.33-0.01-0.47-0.22-0.52-0.52C157.16,394.67,157.33,394.84,157.5,395.02z"/>
	<path style="fill:#FCDD80;" d="M328.01,457.98c-0.04,0.56,0.17,1.2-0.52,1.54C327.49,458.94,327.38,458.33,328.01,457.98z"/>
	<path style="fill:#FCDD80;" d="M327.51,459.48c0.02,0.44,0.11,0.92-0.52,1.03C326.97,460.07,327.02,459.67,327.51,459.48z"/>
	<path style="fill:#FCDD80;" d="M327.01,460.48c0.09,0.48,0.16,0.94-0.52,1.03C326.46,461.06,326.55,460.68,327.01,460.48z"/>
	<path style="fill:#FCDD80;" d="M250.48,402.99c0.13,0.78-0.35,1.09-1,1.25C249.56,403.61,249.82,403.14,250.48,402.99z"/>
	<path style="fill:#FCDD80;" d="M251.48,400.44c0.62,0.35,0.54,0.7,0,1.05C251.48,401.15,251.48,400.8,251.48,400.44z"/>
	<path style="fill:#FCDD80;" d="M250.99,401.98c0.08,0.46,0.05,0.86-0.51,1C250.39,402.52,250.51,402.16,250.99,401.98z"/>
	<path style="fill:#FCDD80;" d="M251.49,401.48c-0.04,0.3-0.17,0.51-0.51,0.51C251.01,401.68,251.12,401.45,251.49,401.48z"/>
	<path style="fill:#F4C341;" d="M244.96,473.06c-1.07,0.22-1.69-0.59-2.45-1.08c0.01-2.14,0.01-4.28,0.02-6.42
		c0.89,0.38,1.95,0.42,2.56,1.33C245.04,468.95,245,471,244.96,473.06z"/>
	<path style="fill:#F4C341;" d="M236.5,462.51c0.66,0.35,1.32,0.7,1.97,1.05c0.01,1.4,0.06,2.81,0.01,4.21
		c-0.02,0.56,0.34,1.53-0.73,1.48c-0.81-0.04-1.28-0.64-1.27-1.54C236.52,465.97,236.5,464.24,236.5,462.51z"/>
	<path style="fill:#FAE8B4;" d="M238.51,470.52c-0.21-0.18-0.41-0.36-0.62-0.54C238.09,470.16,238.3,470.34,238.51,470.52z"/>
	<path style="fill:#FAE8B4;" d="M155.5,373.5c0.8,0.72,1.34,1.77,2.5,2.07c0.48,0.82,1.19,1.46,0.69,2.68
		c-0.56,1.37,0.64,2.27,1.47,3.17c5.68,6.17,12.98,9.58,20.8,12.08c1.17,0.37,2.39,0.6,3.59,0.89c0.48,0.06,0.96,0.12,1.44,0.18
		c1.42,0.71,2.93,1.02,4.52,0.93c0.65,0.13,1.3,0.26,1.95,0.39c1.39,0.05,2.68,0.82,4.11,0.5c7.45,0.81,14.9,0.57,22.35-0.08
		c0.18,0.21,0.36,0.42,0.54,0.63c-7.86,1.56-15.77,1.96-23.73,1.08c-0.9-0.1-1.82-0.07-2.73-0.1c-1.22-0.77-2.62-0.25-3.91-0.52
		c-0.76-0.66-1.69-0.41-2.56-0.5c-1.11-0.53-2.28-0.83-3.51-0.92c-0.74-0.54-1.63-0.52-2.47-0.69c-1.24-0.7-2.57-1.15-3.97-1.37
		c-0.58-0.55-1.28-0.83-2.06-0.93c-1.28-0.59-2.44-1.44-3.89-1.61c-0.47-0.79-1.32-1.05-2.07-1.42c-1.34-0.83-2.67-1.66-4.01-2.49
		c-0.65-0.92-1.36-1.76-2.5-2.08c-1.32-1.48-2.64-2.97-3.96-4.45c-0.53-0.97-1.05-1.95-1.58-2.92
		C156.22,376.5,154.12,375.37,155.5,373.5z"/>
	<path style="fill:#F4C341;" d="M156.47,378.02c0.53,0.97,1.05,1.95,1.58,2.92c-0.32,1.81,0.46,3.73-0.47,5.49
		c-0.17-0.16-0.35-0.32-0.52-0.48c-0.05-0.4-0.16-0.76-0.55-0.96c-0.13-0.2-0.25-0.4-0.37-0.6c-0.1-0.52-0.07-1.09-0.62-1.41
		c-0.01-0.49-0.02-0.99-0.03-1.48C156.63,380.58,155.35,378.96,156.47,378.02z"/>
	<path style="fill:#FCD662;" d="M158.16,397.83c1.63,0.87,2.71,2.3,3.84,3.69c-0.01,2.01-0.02,4.02-0.04,6.03
		c-1.65-1.25-2.94-2.8-3.96-4.6C158.05,401.25,158.1,399.54,158.16,397.83z"/>
	<path style="fill:#FCD562;" d="M204.94,348.01c-0.01-0.75,0.45-1.18,1.04-1.52c0.75-0.35,1.22-0.91,0.83-1.74
		c-0.37-0.79-1.2-0.87-1.92-0.7c-1.64,0.38-3.09,1.04-3.32,3.01c-0.46,2.8,0.61,5.71-0.56,8.46c-3.66,3.06-7.73,4.67-12.55,3.48
		c-1.89-0.47-3.71-1.09-5.51,0.39c-0.4,0.33-1.28,0.08-1.94,0.1c0.83-1.33,0.72-2.55,0.17-4.07c-0.66-1.84-0.27-3.71,1.42-5.19
		c1.68-1.48,3.31-2.03,5.31-0.76c0.35,0.22,0.76,0.34,1.14,0.49c2.36,0.96,2.5,1.71,0.65,3.47c-0.34,0.33-0.71,0.63-1.12,0.99
		c2.94,1.2,5.72-0.64,5.33-3.54c-0.41-3.08-1.2-6.15,1.87-8.41c3.44-2.54,7.29-3.1,11.35-2.11c1.83,0.44,3.54,1.42,5.33-0.2
		c0.59-0.54,1.44-0.06,2.04,0.44c0.44,0.37,0.59,1.1,0.29,1.34c-1.95,1.61-0.29,3.72-0.87,5.49c-2.73,3.02-5.71,2.14-8.75,0.59
		C205.12,347.99,205.03,348.02,204.94,348.01z"/>
	<path style="fill:#F5BA2C;" d="M181.01,359.5c0.66-0.02,1.54,0.23,1.94-0.1c1.8-1.48,3.62-0.86,5.51-0.39
		c4.82,1.19,8.9-0.41,12.55-3.48c-0.52,2.77-3.71,5.27-7.3,5.44c-2.45,0.12-4.97,0.45-7.33-0.58c-1.25-0.55-2.02,0.23-2.9,0.8
		c-0.8,0.52-1.57,0.34-2.32-0.12C180.45,360.61,180.32,360.09,181.01,359.5z"/>
	<path style="fill:#F5BA2C;" d="M204.94,348.01c0.08,0,0.18-0.02,0.25,0.02c3.03,1.55,6.02,2.43,8.75-0.59
		c-0.48,3.2-3.24,4.79-6.07,3.48c-0.9-0.42-1.79-0.87-2.66-1.34C204.47,349.19,204.28,348.66,204.94,348.01z"/>
	<path style="fill:#F5BA2C;" d="M201.58,347.06c0.23-1.97,1.68-2.63,3.32-3.01c0.72-0.16,1.55-0.09,1.92,0.7
		c0.39,0.83-0.08,1.39-0.83,1.74C204.31,345.09,203.05,346.87,201.58,347.06z"/>
	<path style="fill:#FCD662;" d="M190.5,395.5c-1.59,0.09-3.1-0.22-4.52-0.93c1.02-2.13,0.28-4.41,0.55-6.61
		c1.52,0.3,3.04,0.6,4.56,0.91C189.85,390.99,190.78,393.3,190.5,395.5z"/>
	<path style="fill:#FCD662;" d="M196.57,396.39c-1.43,0.32-2.73-0.45-4.11-0.5c0.06-2.17,0.11-4.34,0.17-6.51
		c1.32,0.1,2.65,0.19,3.97,0.29C196.58,391.91,196.58,394.15,196.57,396.39z"/>
	<path style="fill:#F4C341;" d="M186.52,387.96c-0.26,2.19,0.47,4.47-0.55,6.61c-0.48-0.06-0.96-0.12-1.44-0.18
		c-0.94-2.38-0.42-4.87-0.51-7.3C184.94,387.17,185.8,387.36,186.52,387.96z"/>
	<path style="fill:#F4C341;" d="M192.62,389.38c-0.06,2.17-0.11,4.34-0.17,6.51c-0.65-0.13-1.3-0.26-1.95-0.39
		c0.27-2.2-0.65-4.51,0.58-6.63C191.62,388.98,192.21,388.91,192.62,389.38z"/>
	<path style="fill:#FCD562;" d="M262,479.5c-1.38-0.12-2.71-0.45-3.99-0.99c-0.71-2.82-1.35-5.65-0.95-8.59
		c1.35,0.03,2.69,0.15,3.98,0.62C260.74,473.6,261.26,476.56,262,479.5z"/>
	<path style="fill:#FCD662;" d="M255.53,477.93c-1.35-0.48-2.69-0.97-4.04-1.45c-0.65-2.62-0.47-5.3-0.5-7.96
		c1.33,0.33,2.67,0.65,4,0.98C255.02,472.32,254.83,475.15,255.53,477.93z"/>
	<path style="fill:#FCD562;" d="M244.96,473.06c0.04-2.06,0.08-4.11,0.13-6.17c1.36,0.15,2.69,0.42,3.93,1.03
		c0.03,2.55-0.31,5.12,0.45,7.63c-1.49-0.68-2.99-1.36-4.48-2.04c0.33-0.18,0.37-0.35-0.02-0.51L244.96,473.06z"/>
	<path style="fill:#F4C341;" d="M255.53,477.93c-0.7-2.78-0.51-5.61-0.53-8.44c0.72,0,1.46-0.12,2.06,0.43
		c-0.39,2.94,0.24,5.77,0.95,8.59C257.11,478.64,256.34,478.19,255.53,477.93z"/>
	<path style="fill:#F4C341;" d="M249.46,475.55c-0.76-2.51-0.42-5.08-0.45-7.63c0.66,0.2,1.32,0.4,1.98,0.59
		c0.03,2.66-0.16,5.34,0.5,7.96C250.81,476.17,250.14,475.86,249.46,475.55z"/>
	<path style="fill:#FCD562;" d="M375.97,478c0.77,1.24,0.57,2.6,0.47,3.94c-2.6,2.74-5.42,2.41-8.38,0.64
		c-0.26-0.16-0.63-0.12-0.95-0.18c0-0.92,0.83-1.03,1.38-1.42c0.76-0.36,1.22-0.91,0.83-1.75c-0.32-0.69-1.04-0.84-1.69-0.7
		c-1.69,0.37-3.45,0.74-3.55,3.02c-0.44,2.8,0.63,5.71-0.56,8.46c-3.59,2.92-7.55,4.64-12.28,3.48c-1.99-0.49-3.89-1.11-5.77,0.39
		c-0.41,0.33-1.28,0.09-1.94,0.11c0.77-1.33,0.72-2.54,0.17-4.07c-0.75-2.07-0.06-4,1.74-5.55c1.72-1.49,3.32-1.61,5.14-0.36
		c0.33,0.23,0.75,0.34,1.14,0.5c2.19,0.92,2.33,1.76,0.51,3.3c-0.42,0.35-1.24,0.51-0.95,1.23c0.31,0.79,1.17,0.5,1.77,0.43
		c2.34-0.3,3.9-2.33,3.29-4.67c-1.82-7.03,2.94-9.85,8.58-10.3c1.81-0.14,3.65-0.14,5.42,0.47c1.5,0.52,2.95,0.94,4.46-0.24
		c0.82-0.64,1.75-0.25,2.24,0.77C376.31,476.18,373.86,476.11,375.97,478z"/>
	<path style="fill:#F5BA2C;" d="M343.53,493.99c0.66-0.02,1.53,0.22,1.94-0.11c1.88-1.5,3.79-0.88,5.77-0.39
		c4.73,1.16,8.68-0.56,12.28-3.48c-0.62,2.86-3.85,5.31-7.46,5.46c-2.31,0.1-4.68,0.38-6.88-0.66c-1.42-0.67-2.34,0.45-3.47,0.84
		C344.14,496.19,343.15,495.99,343.53,493.99z"/>
	<path style="fill:#F5BA2C;" d="M367.11,482.41c0.32,0.05,0.69,0.02,0.95,0.18c2.95,1.77,5.78,2.1,8.38-0.64
		c-0.34,2.2-2.27,4.08-4.18,4.06C370.3,485.98,367.37,483.94,367.11,482.41z"/>
	<path style="fill:#F5BA2C;" d="M364.07,481.55c0.1-2.27,1.85-2.65,3.55-3.02c0.65-0.14,1.38,0.01,1.69,0.7
		c0.39,0.84-0.07,1.4-0.83,1.75C366.81,479.58,365.55,481.39,364.07,481.55z"/>
	<path style="fill:#F5BA2C;" d="M375.97,478c-2.11-1.89,0.34-1.83,1.08-2.5C378.08,476.94,376.8,477.37,375.97,478z"/>
	<path style="fill:#F4C341;" d="M258.1,456.39c-0.03,1.48-0.05,2.96-0.11,4.44c-0.02,0.62,0.19,1.5-0.77,1.53
		c-0.86,0.03-1.65-0.39-1.68-1.42c-0.05-1.81-0.02-3.62-0.03-5.43C256.49,455.44,257.35,455.76,258.1,456.39z"/>
	<path style="fill:#F4C341;" d="M245.56,451.43c-0.02,1.23,0.05,2.47-0.08,3.69c-0.08,0.74,0.65,2.09-0.79,2.08
		c-1.2-0.01-1.74-1-1.69-2.28c0.06-1.64,0.01-3.28,0.01-4.93C244.04,450.13,244.79,450.8,245.56,451.43z"/>
	<path style="fill:#F4C341;" d="M264,457.5c0,1.65,0.02,3.31-0.01,4.96c-0.01,0.53,0.17,1.33-0.7,1.3
		c-0.68-0.03-1.27-0.45-1.28-1.26c-0.02-1.82,0-3.64,0-5.46C262.68,457.19,263.34,457.34,264,457.5z"/>
	<path style="fill:#F4C341;" d="M251.5,454.01c0,1.64,0.01,3.29-0.01,4.93c-0.01,0.55-0.26,0.95-0.86,0.99
		c-0.55,0.03-1.07-0.19-1.04-0.77c0.08-1.92-0.64-3.91,0.48-5.74C250.54,453.62,251.02,453.82,251.5,454.01z"/>
	<path style="fill:#FCD662;" d="M268,480.5c-1.4,0.2-2.69-0.37-4.04-0.55c-0.13-1.57,0.11-2.56,2.18-2.52
		C268.71,477.49,267.85,479.21,268,480.5z"/>
	<path style="fill:#FAE8B4;" d="M306.65,469.65c0.02,0.05,0.04,0.09,0.06,0.14c-0.07,0.02-0.14,0.05-0.21,0.05
		c-0.02,0-0.04-0.09-0.06-0.14C306.51,469.69,306.58,469.67,306.65,469.65z"/>
	<path style="fill:#F4C341;" d="M244.96,473.01c0.39,0.15,0.35,0.32,0.02,0.51C244.98,473.35,244.97,473.18,244.96,473.01z"/>
	<path style="fill:#FCD662;" d="M189,413.49c1.34,0.18,2.68,0.37,4.02,0.55c0.01,2.13,0.01,4.25,0.02,6.38
		c-1.36-0.25-2.72-0.5-4.07-0.75C188.98,417.61,188.99,415.55,189,413.49z"/>
	<path style="fill:#FCD662;" d="M193.03,428.46c-1.36-0.19-2.71-0.37-4.07-0.56c0.01-2.12,0.02-4.25,0.03-6.37
		c1.35,0.19,2.71,0.38,4.06,0.56C193.04,424.21,193.04,426.34,193.03,428.46z"/>
	<path style="fill:#FCD662;" d="M193.01,436.49c-1.35-0.19-2.69-0.37-4.04-0.56c0-2.13,0.01-4.25,0.01-6.38
		c1.36,0.19,2.73,0.38,4.09,0.57C193.05,432.24,193.03,434.36,193.01,436.49z"/>
	<path style="fill:#FCD562;" d="M163.48,417.03c1.11-1.77,0.25-3.74,0.56-5.59c1.55,0.52,2.61,1.8,3.98,2.59
		c-0.02,2-0.04,4.01-0.06,6.01C166.2,419.45,164.91,418.14,163.48,417.03z"/>
	<path style="fill:#FCD562;" d="M174.35,423.14c-1.38-0.32-2.77-0.61-3.86-1.62c0.01-2.02,0.02-4.04,0.03-6.06
		c1.51,0.66,3.01,1.32,4.52,1.98C173.83,419.21,174.9,421.27,174.35,423.14z"/>
	<path style="fill:#FCD662;" d="M176.51,409.99c1.33,0.48,2.67,0.96,4,1.45c-0.01,2.04-0.02,4.07-0.04,6.11
		c-1.33-0.46-2.67-0.92-4-1.37C176.49,414.11,176.5,412.05,176.51,409.99z"/>
	<path style="fill:#FCD662;" d="M180.43,425.59c-1.59-0.22-3.04-0.86-4.51-1.48c1.24-1.79,0.18-3.86,0.71-5.74
		c1.38,0.09,2.64,0.57,3.88,1.15C180.48,421.54,180.46,423.57,180.43,425.59z"/>
	<path style="fill:#FCD562;" d="M170.55,407.43c1.51,0.65,3.02,1.31,4.53,1.96c-1.24,1.93-0.3,4.07-0.57,6.1
		c-1.34-0.67-2.68-1.34-4.02-2C170.51,411.46,170.53,409.45,170.55,407.43z"/>
	<path style="fill:#FCD662;" d="M164.46,403.6c1.29,0.63,2.48,1.41,3.54,2.4c-0.01,2.01-0.01,4.02-0.02,6.03
		c-1.24-0.72-2.58-1.31-3.49-2.49C164.48,407.56,164.47,405.58,164.46,403.6z"/>
	<path style="fill:#FCD662;" d="M186.44,427.08c-1.2,0.04-2.34-0.24-3.46-0.64c0.03-2.01,0.06-4.02,0.09-6.03
		c1.2-0.02,2.34,0.27,3.47,0.66C186.5,423.08,186.47,425.08,186.44,427.08z"/>
	<path style="fill:#FCD662;" d="M183.1,412.39c1.18-0.01,2.31,0.27,3.42,0.65c-0.02,2.01-0.04,4.02-0.06,6.02
		c-1.17-0.23-2.34-0.46-3.51-0.69C183,416.38,183.05,414.38,183.1,412.39z"/>
	<path style="fill:#F4C341;" d="M183.1,412.39c-0.05,2-0.1,3.99-0.15,5.98c-0.9-0.07-1.75-0.25-2.48-0.83
		c0.01-2.04,0.02-4.07,0.04-6.11C181.48,411.45,182.37,411.7,183.1,412.39z"/>
	<path style="fill:#F4C341;" d="M167.98,412.03c0.01-2.01,0.01-4.02,0.02-6.03c1.04,0.14,1.79,0.79,2.55,1.43
		c-0.02,2.02-0.04,4.03-0.06,6.05C169.46,413.33,168.7,412.71,167.98,412.03z"/>
	<path style="fill:#F4C341;" d="M170.53,415.45c-0.01,2.02-0.02,4.04-0.03,6.06c-1.04-0.15-1.8-0.78-2.53-1.46
		c0.02-2,0.04-4.01,0.06-6.01C169.04,414.18,169.79,414.82,170.53,415.45z"/>
	<path style="fill:#F4C341;" d="M186.44,427.08c0.03-2,0.06-4.01,0.09-6.01c0.88-0.18,1.64,0.27,2.46,0.45
		c-0.01,2.12-0.02,4.25-0.03,6.37C188.05,427.84,187.18,427.65,186.44,427.08z"/>
	<path style="fill:#F4C341;" d="M183.07,420.41c-0.03,2.01-0.06,4.02-0.09,6.03c-0.93-0.05-1.79-0.29-2.54-0.85
		c0.03-2.02,0.05-4.05,0.08-6.07C181.44,419.6,182.31,419.85,183.07,420.41z"/>
	<path style="fill:#F4C341;" d="M164.46,403.6c0.01,1.98,0.02,3.96,0.03,5.94c-1.16-0.26-1.86-1.11-2.53-1.99
		c0.01-2.01,0.02-4.02,0.04-6.03C163.07,401.92,163.62,402.94,164.46,403.6z"/>
	<path style="fill:#F4C341;" d="M186.46,419.06c0.02-2.01,0.04-4.02,0.06-6.02c0.87-0.1,1.71,0,2.48,0.45
		c-0.01,2.06-0.02,4.12-0.03,6.18C188.13,419.47,187.18,419.76,186.46,419.06z"/>
	<path style="fill:#F4C341;" d="M174.51,415.48c0.27-2.02-0.67-4.16,0.57-6.1c0.48,0.2,0.95,0.4,1.43,0.6
		c-0.01,2.06-0.02,4.12-0.04,6.18C175.82,415.94,175.16,415.71,174.51,415.48z"/>
	<path style="fill:#F4C341;" d="M176.63,418.37c-0.53,1.88,0.53,3.95-0.71,5.74c-0.65-0.12-1.2-0.4-1.57-0.98
		c0.55-1.86-0.53-3.92,0.7-5.7C175.71,417.53,176.25,417.82,176.63,418.37z"/>
	<path style="fill:#FCD562;" d="M174.47,431.55c-1.43-0.44-2.77-1.07-3.98-1.98c0.05-1.9,0.1-3.8,0.15-5.7
		c1.38,0.3,2.72,0.67,3.87,1.54C174.5,427.45,174.48,429.5,174.47,431.55z"/>
	<path style="fill:#FCD662;" d="M180.41,433.6c-1.45,0.09-2.61-0.82-3.93-1.14c0.04-2.02,0.08-4.05,0.12-6.07
		c1.31,0.39,2.62,0.78,3.92,1.17C180.49,429.57,180.45,431.59,180.41,433.6z"/>
	<path style="fill:#FCD662;" d="M163.99,425.52c1.1-1.77,0.18-3.75,0.57-5.59c1.34,0.83,2.68,1.65,4.01,2.48
		c-1.18,1.78-0.24,3.8-0.63,5.67C166.43,427.52,165.21,426.52,163.99,425.52z"/>
	<path style="fill:#FCD662;" d="M186.41,435.1c-1.16-0.11-2.38,0.07-3.43-0.63c0.02-2.01,0.04-4.03,0.06-6.04
		c1.16,0.22,2.33,0.45,3.49,0.67C186.5,431.1,186.46,433.1,186.41,435.1z"/>
	<path style="fill:#F4C341;" d="M186.41,435.1c0.04-2,0.09-4,0.13-6c0.81,0.15,1.62,0.3,2.43,0.44c0,2.13,0,4.25-0.01,6.38
		C187.99,436.04,187.03,436.1,186.41,435.1z"/>
	<path style="fill:#F4C341;" d="M167.94,428.08c0.39-1.87-0.55-3.89,0.63-5.67c0.84,0.28,1.72,0.5,2.07,1.47
		c-0.05,1.9-0.1,3.8-0.15,5.7C169.48,429.35,168.56,428.96,167.94,428.08z"/>
	<path style="fill:#F4C341;" d="M183.05,428.43c-0.02,2.01-0.04,4.03-0.06,6.04c-0.99,0.09-1.83-0.22-2.57-0.87
		c0.04-2.01,0.07-4.03,0.11-6.04C181.37,427.85,182.21,428.14,183.05,428.43z"/>
	<path style="fill:#F4C341;" d="M176.6,426.39c-0.04,2.02-0.08,4.05-0.12,6.07c-0.67-0.3-1.34-0.61-2.01-0.91
		c0.02-2.05,0.03-4.09,0.05-6.14C175.29,425.57,176.02,425.82,176.6,426.39z"/>
	<path style="fill:#FCD662;" d="M189.08,397.41c1.29,0.27,2.69-0.25,3.91,0.52c-0.01,2.04-0.02,4.08-0.03,6.13
		c-1.35,0.03-2.67-0.15-3.96-0.56C189.02,401.46,189.05,399.43,189.08,397.41z"/>
	<path style="fill:#FCDD80;" d="M219.45,396.94c-0.18-0.21-0.36-0.42-0.54-0.63c3.01-0.68,6.02-1.37,9.03-2.05
		c0.04,0.2,0.09,0.4,0.13,0.6C225.27,395.79,222.48,396.82,219.45,396.94z"/>
	<path style="fill:#FCD662;" d="M192.89,412.11c-1.29-0.18-2.66,0.11-3.87-0.58c0.01-2.03,0.02-4.06,0.03-6.09
		c1.35,0,2.67,0.16,3.96,0.57C192.96,408.04,192.92,410.07,192.89,412.11z"/>
	<path style="fill:#FCD662;" d="M157.58,386.43c0.94-1.76,0.15-3.67,0.47-5.49c1.32,1.48,2.64,2.97,3.96,4.45
		c0,2.03-0.01,4.06-0.01,6.08c-1.64-0.82-1.98-3.06-3.89-3.59c-0.19-0.3-0.39-0.6-0.59-0.91
		C157.55,386.8,157.56,386.61,157.58,386.43z"/>
	<path style="fill:#FCD662;" d="M180.49,409.51c-1.34-0.47-2.67-0.94-4.01-1.41c0.02-2.05,0.03-4.1,0.05-6.14
		c1.33,0.47,2.66,0.93,3.99,1.4C180.51,405.4,180.5,407.46,180.49,409.51z"/>
	<path style="fill:#FCD662;" d="M176.56,393.93c1.4,0.23,2.73,0.67,3.97,1.37c-0.01,2.06-0.01,4.12-0.02,6.18
		c-1.33-0.49-2.66-0.97-4-1.46C176.53,397.99,176.54,395.96,176.56,393.93z"/>
	<path style="fill:#FCD562;" d="M170.6,391.39c1.45,0.17,2.62,1.02,3.89,1.61c-0.03,2.04-0.06,4.08-0.09,6.12
		c-1.49-0.68-2.97-1.36-4.46-2.04C171.13,395.29,170.13,393.25,170.6,391.39z"/>
	<path style="fill:#FCD562;" d="M169.94,405.1c1.18-1.79,0.19-3.84,0.66-5.72c1.31,0.56,2.61,1.11,3.92,1.67
		c-0.05,2.02-0.09,4.05-0.14,6.07C172.73,406.82,171.32,405.99,169.94,405.1z"/>
	<path style="fill:#FCD662;" d="M164.52,387.47c1.34,0.83,2.67,1.66,4.01,2.49c-1.09,1.92-0.28,3.99-0.51,5.98
		c-1.42-0.88-2.9-1.66-4.09-2.86C165.07,391.31,164.22,389.33,164.52,387.47z"/>
	<path style="fill:#FCD662;" d="M186.47,411.05c-1.16-0.31-2.33-0.62-3.49-0.94c0-2.03,0.01-4.06,0.01-6.09
		c1.15,0.4,2.45,0.24,3.51,0.95C186.49,407,186.48,409.02,186.47,411.05z"/>
	<path style="fill:#FCD662;" d="M183,395.99c1.23,0.09,2.4,0.38,3.51,0.92c0,2.02,0,4.04,0,6.06c-1.26,0.04-2.38-0.46-3.5-0.94
		C183.01,400.02,183.01,398,183,395.99z"/>
	<path style="fill:#F4C341;" d="M186.47,411.05c0.01-2.02,0.02-4.05,0.03-6.07c0.87,0.03,1.79-0.2,2.54,0.46
		c-0.01,2.03-0.02,4.06-0.03,6.09C188.15,411.44,187.21,411.78,186.47,411.05z"/>
	<path style="fill:#F4C341;" d="M164.52,387.47c-0.3,1.86,0.55,3.83-0.58,5.61c-0.64-0.53-1.29-1.07-1.93-1.6
		c0-2.03,0-4.06,0.01-6.08C163.16,385.72,163.87,386.56,164.52,387.47z"/>
	<path style="fill:#F4C341;" d="M186.52,402.97c0-2.02,0-4.04,0-6.06c0.87,0.09,1.8-0.16,2.56,0.5c-0.03,2.03-0.05,4.05-0.08,6.08
		C188.1,403.64,187.33,403.2,186.52,402.97z"/>
	<path style="fill:#F4C341;" d="M182.99,404.02c0,2.03-0.01,4.06-0.01,6.09c-0.87-0.04-1.73-0.09-2.49-0.6
		c0.01-2.05,0.02-4.1,0.03-6.16C181.37,403.47,182.25,403.5,182.99,404.02z"/>
	<path style="fill:#F4C341;" d="M183,395.99c0,2.01,0.01,4.02,0.01,6.04c-0.89,0.07-1.74-0.05-2.51-0.55
		c0.01-2.06,0.01-4.12,0.02-6.18C181.37,395.47,182.26,395.46,183,395.99z"/>
	<path style="fill:#F4C341;" d="M168.02,395.95c0.23-1.99-0.58-4.06,0.51-5.98c0.76,0.38,1.6,0.63,2.07,1.42
		c-0.47,1.86,0.53,3.9-0.66,5.68C169.3,396.7,168.66,396.32,168.02,395.95z"/>
	<path style="fill:#F4C341;" d="M174.4,399.11c0.03-2.04,0.06-4.08,0.09-6.12c0.78,0.1,1.48,0.38,2.06,0.93
		c-0.01,2.03-0.03,4.06-0.04,6.1C175.7,399.97,175,399.66,174.4,399.11z"/>
	<path style="fill:#F4C341;" d="M174.38,407.12c0.05-2.02,0.09-4.05,0.14-6.07c0.67,0.3,1.34,0.6,2.01,0.9
		c-0.02,2.05-0.03,4.1-0.05,6.14C175.69,407.98,174.97,407.68,174.38,407.12z"/>
	<path style="fill:#F4C341;" d="M180,388.98c-0.46,0.74,0.84,2.6-0.75,2.67c-1.75,0.09-1.15-1.8-1.24-2.94
		c-0.05-0.66-0.06-1.33,0.01-1.98c0.06-0.57-0.34-1.54,0.73-1.48c0.8,0.04,1.3,0.64,1.26,1.55C179.98,387.46,180,388.12,180,388.98z
		"/>
	<path style="fill:#F4C341;" d="M167.24,384.65c-1.09-0.5-1.79-1.22-1.72-2.43c0.03-0.58-0.32-1.51,0.72-1.49
		c0.64,0.01,1.27,0.46,1.25,1.27C167.45,382.86,167.76,383.76,167.24,384.65z"/>
</g>
</svg>
