<svg
          viewBox="0 0 421 310"
          xmlns="http://www.w3.org/2000/svg"
          fill="none"
          style="min-width: 100%"
        >
          <style>
            .a {
              fill: #6c63ff;
              opacity: 0.5;
            }
            .b {
              fill: #6c63ff;
            }
            .c {
              stroke: #535461;
            }
            .d {
              fill: black;
              opacity: 0.1;
            }
            .e {
              fill: white;
            }
            .f {
              stroke-width: 2;
              stroke: #535461;
            }
            .g {
              fill: #fec3be;
            }
            .h {
              fill: #8b416f;
            }
            .i {
              fill: #4d4981;
            }
            .j {
              fill: #25c296;
            }
            .k {
              stop-opacity: 0.1;
            }
          </style>
          <path
            d="M104.2 198.5C78.8 186.8 49.8 176.9 26.1 193.7 23.1 195.8 20.1 198.5 18.5 202.5 14.2 213 21 226.7 17.7 237.8 14.4 248.9 1.9 254.5 2.9 266.3 3.2 269.4 4.4 272.2 5.9 274.7 15.2 289.8 32.3 291.3 46.7 287.6 61.1 283.8 75.1 276 89.8 277 103.9 278 116.9 287 129.8 294.6 151.5 307.4 176.9 316.6 198.7 303.7 208.6 297.8 216.9 287.8 226.4 280.7 239.3 271.3 254 267.7 268.6 270.4 278.2 272.2 287.5 276.8 297 280 318.5 287.1 341 286.9 363.1 286.6 367.3 286.6 371.5 286.5 375.4 284.9 381.3 282.6 386.1 277.2 390.8 271.9 396.9 264.9 403.3 257.3 405.3 246.9 407.6 234.6 402.8 221.5 395.7 213.1 388.5 204.7 379.4 200.1 370.5 195.7 368.3 194.6 365.9 193.5 363.6 194.3 362.2 194.9 360.9 196.2 359.8 197.6 353.5 205.7 348.1 219.5 339.5 217.3 336.4 216.5 333.9 213.6 331.5 211 318.4 196.9 300.9 186 285.2 193.8 273.7 199.5 265.6 214.1 253.9 219.3 245.7 223 236.7 221.4 227.9 222.1 215.3 223.1 202.9 229.1 190.2 228.7 157.8 227.8 130.9 186.5 98.6 190.4 96.1 190.7 93.3 191.5 91.8 194.2"
            class="a"
          />
          <path
            d="M63.4 172.2C63.4 172.2 36.5 193.9 86.1 227.3 86.1 227.3 97 200.2 84.9 178.1 82.6 173.8 79.2 170.8 75.3 169.6 71.4 168.5 67.3 169.3 63.8 171.9L63.4 172.2Z"
            class="b"
          />
          <path d="M63.7 171.8C63.7 171.8 86.8 195.3 86.1 227.2" class="c" />
          <path
            d="M403.8 154.2C409.2 180.8 386 256.5 386 256.5 386 256.5 337.1 207.1 331.6 180.5 330.2 174.1 329.7 167.4 330.3 160.8 330.8 154.2 332.3 147.8 334.7 142 337.2 136.2 340.4 131 344.4 126.9 348.3 122.8 352.8 119.8 357.6 118.1 362.4 116.3 367.4 115.8 372.4 116.7 377.3 117.6 382.1 119.8 386.4 123.1 390.7 126.5 394.4 131 397.4 136.3 400.4 141.6 402.6 147.7 403.8 154.2L403.8 154.2Z"
            class="b"
          />
          <path
            d="M403.8 154.2C409.2 180.8 386 256.5 386 256.5 386 256.5 337.1 207.1 331.6 180.5 330.2 174.1 329.7 167.4 330.3 160.8 330.8 154.2 332.3 147.8 334.7 142 337.2 136.2 340.4 131 344.4 126.9 348.3 122.8 352.8 119.8 357.6 118.1 362.4 116.3 367.4 115.8 372.4 116.7 377.3 117.6 382.1 119.8 386.4 123.1 390.7 126.5 394.4 131 397.4 136.3 400.4 141.6 402.6 147.7 403.8 154.2L403.8 154.2Z"
            class="d"
          />
          <path d="M358 119.3C358 119.3 388.5 180.7 386.2 256.7" class="c" />
          <path
            d="M411.5 202.8C411.5 202.8 383.9 182.7 387.4 256.7 387.4 256.7 410.5 255.6 418.6 230.5 420.2 225.7 420.4 220.2 419.2 215.1 418 210 415.4 205.8 412 203.1L411.5 202.8Z"
            class="b"
          />
          <path d="M412 202.9C412 202.9 408.4 241.3 387.4 256.7" class="c" />
          <path
            d="M7.3 194.5C7.3 194.5-19.6 216.2 30 249.5 30 249.5 40.9 222.5 28.8 200.4 26.5 196.1 23 193.1 19.1 191.9 15.3 190.8 11.2 191.6 7.7 194.2L7.3 194.5Z"
            class="b"
          />
          <path d="M7.6 194.1C7.6 194.1 30.6 217.6 30 249.5" class="c" />
          <path d="M308 57H91V243H308V57Z" class="e" />
          <path d="M113.9 72.9V206.8H279.9" class="f" />
          <path d="M145.7 166.3H128.6V201.6H145.7V166.3Z" class="a" />
          <path
            d="M175.1 135H158V201.6H175.1V135Z"
            style="fill:#6C63FF;opacity:0.7"
          />
          <path d="M204.5 153.9H187.3V201.6H204.5V153.9Z" class="a" />
          <path
            d="M233.8 124.5H216.7V201.6H233.8V124.5Z"
            style="fill:#6C63FF;opacity:0.8"
          />
          <path d="M263.2 97.1H246.1V201.6H263.2V97.1Z" class="b" />
          <path
            d="M136.9 144.8L166.8 108.8 196.2 142.8 225 101.7 254.4 85.3"
            class="f"
          />
          <path
            d="M136.9 149.3C138.8 149.3 140.4 147.3 140.4 144.8 140.4 142.2 138.8 140.2 136.9 140.2 135 140.2 133.5 142.2 133.5 144.8 133.5 147.3 135 149.3 136.9 149.3Z"
            class="b"
          />
          <path
            d="M195.7 146.7C197.6 146.7 199.1 144.7 199.1 142.1 199.1 139.6 197.6 137.6 195.7 137.6 193.8 137.6 192.2 139.6 192.2 142.1 192.2 144.7 193.8 146.7 195.7 146.7Z"
            class="b"
          />
          <path
            d="M225.5 106.2C227.4 106.2 228.9 104.2 228.9 101.7 228.9 99.1 227.4 97.1 225.5 97.1 223.6 97.1 222.1 99.1 222.1 101.7 222.1 104.2 223.6 106.2 225.5 106.2Z"
            class="b"
          />
          <path
            d="M166.8 112.8C168.7 112.8 170.2 110.7 170.2 108.2 170.2 105.7 168.7 103.6 166.8 103.6 164.9 103.6 163.4 105.7 163.4 108.2 163.4 110.7 164.9 112.8 166.8 112.8Z"
            class="b"
          />
          <path
            d="M254.4 89.9C256.3 89.9 257.8 87.8 257.8 85.3 257.8 82.8 256.3 80.8 254.4 80.8 252.5 80.8 251 82.8 251 85.3 251 87.8 252.5 89.9 254.4 89.9Z"
            class="b"
          />
          <path
            d="M381.8 226.6C380 225.8 377.4 224.9 375.2 225.2 373.2 224.2 368.5 221.7 365.2 217.8 365.3 214.1 365.2 210.3 365 206.5 363.3 181.3 367.1 164.7 367.1 164.7 367.1 164.7 370 152.1 369.7 141.6 369.9 142.1 370 142.3 370 142.3 370.2 133.3 372.5 123.9 374.3 118 374.3 118 374.4 118 374.5 117.9L376.4 111.8C376.6 111.5 376.7 111.1 376.8 110.7L377.1 109.7 377 109.7C377 109.5 377.1 109.3 377.1 109.2 378.3 102.2 379.3 85.6 379.3 85.6 382.6 68.2 374.7 57.4 374.7 57.4L361.4 42.1C361.4 42.3 361.5 42.5 361.5 42.7L361.4 42.6C361.2 41.8 361 41 360.8 40 361.3 39.5 361.7 39 362.1 38.5 363.6 36.6 364.7 34.1 365.1 31.3 365.4 29.2 365.4 27 365.3 24.9L365.1 17.5C365.1 16 365 14.6 364.7 13.2 363.7 7.3 359.2 3.2 354.7 2.9 353.3 2.9 351.8 3 350.4 3.2 349.2 3.3 348 3.4 346.9 3.3 346.7 3.3 346.6 3.3 346.5 3.2 346.4 3 346.3 2.8 346.3 2.7 346.3 2.3 346.3 2 346.4 1.6 346.5 1.3 346.6 1 346.8 0.7 347 0.5 347.2 0.4 347.4 0.3L347.1 0.4C347.2 0.2 347.4 0.1 347.6 0 346.4 0.3 345.3 0.8 344.3 1.6 344 1.9 343.7 2.2 343.5 2.5 342.9 3.2 342.5 4.2 342.4 5.3 341.8 4.7 341.4 3.9 341.2 2.9 341.1 2.6 341.1 2.2 341.2 1.8 341.1 1.9 341 2.1 340.9 2.2 340.9 2.2 340.9 2.1 340.9 2.1 340.1 3.5 339.5 5.1 339.2 6.9 339.1 6.7 339 6.4 338.9 6.2 338.9 6 338.8 5.7 338.9 5.5 338.8 5.8 338.7 6 338.7 6.3 338.7 6.1 338.7 5.9 338.7 5.8 338.2 7.9 337.9 10.1 338 12.3 338 14.5 338.7 18 340.5 18.8 340.6 18.8 340.7 18.9 340.8 18.9 339.8 21 339.2 23.3 339 25.8 338.9 28.3 339.2 30.7 340 33 340.7 35.3 341.9 37.2 343.3 38.8 344.8 40.3 346.5 41.3 348.3 41.7 348.4 42 348.4 42.3 348.4 42.6H348.5C348.5 43.1 348.6 43.8 348.6 44.4 348.2 45 347.7 45.6 347.1 46 345.6 47.2 344 47.9 342.2 48.2 340.2 48.4 338.2 49.2 336.4 50.5 334.2 52.1 331.9 54.4 331.1 57.3 329.9 62 323.1 69.3 318.6 70.2L316.9 70.1 316.8 70V70.1L316.4 70H316.4 316.3V70.1L315.9 70C315.9 70 315.8 70.3 315.8 70.7 313.5 69.7 308.6 66.8 302.3 59.1 295.3 50.6 285.7 52.2 282 53.3 281.9 53.4 281.8 53.4 281.7 53.6 281.6 53.7 281.6 53.8 281.6 54 281.5 54.2 281.6 54.4 281.6 54.5 281.7 54.7 281.8 54.8 281.9 54.9 283.4 56 285.7 57.5 286.7 57.7 286.7 57.7 284.5 60.8 286.9 62.4 287.1 62.6 287.5 62.7 287.8 62.6 288.1 62.6 288.4 62.4 288.6 62.2 289.8 61.1 292.9 63.6 297.5 64.9 297.5 64.9 310.4 82.7 316.8 85.5 317 85.8 317.1 86.2 317.3 86.6L317.7 86.6V86.6H317.9L317.9 87.2C317.9 87.2 327.9 86.5 331.1 81.7 331.3 81.4 331.6 81.1 331.7 80.8L328.3 138.9H328.3L328.3 139.5H330.8C331 146.6 330.8 153.8 330.1 160.9V198.8C330.1 198.8 330 202.1 335.2 207 340.6 212.1 345.9 217.5 350.9 223.3L351.6 224C350.6 235.6 348.6 257.2 346.9 258L348 258.3C346.2 261.3 341.2 269.4 339.7 269.7 337.8 269.9 336.6 273.8 339.7 274.6 345.9 276.1 352.3 275.2 358.2 272.2 358.8 271.9 359.2 271.3 359.6 270.6 359.9 269.9 360 269 359.9 268.2L359.3 262.1C359.4 262.2 359.5 262.3 359.6 262.5 360 264.1 359.6 260.2 359.6 260.2 361.3 252.9 362.6 245.5 363.6 237.9L369.8 245C369.8 245 369.9 244.8 370.1 244.4 371.6 249 374.3 258.4 373.7 265.2 372.9 274.6 380.8 266.3 379.9 260.8 379.3 256.3 382.3 237.3 383.4 230.2 383.5 229.5 383.5 228.7 383.2 228 382.9 227.3 382.4 226.8 381.8 226.6V226.6Z"
            fill="url(#paint0_linear)"
          />
          <path
            d="M317.4 73.1C317.4 73.1 311.5 71.7 302.8 61.2 295.9 52.8 286.7 54.5 283.1 55.5 282.9 55.6 282.8 55.6 282.8 55.8 282.7 55.9 282.6 56 282.6 56.2 282.6 56.4 282.6 56.5 282.7 56.7 282.7 56.8 282.8 57 282.9 57 284.4 58.1 286.6 59.6 287.7 59.8 287.7 59.8 285.5 62.8 287.8 64.4 288.1 64.6 288.4 64.7 288.7 64.6 289 64.6 289.3 64.4 289.5 64.2 290.6 63.1 293.7 65.6 298.2 66.8 298.2 66.8 315.6 90.9 319.7 86.8L317.4 73.1Z"
            class="g"
          />
          <path
            d="M347.4 40.4C347.4 40.4 349 49.5 347.4 56L354.7 57.4 361.2 53.1V47.4C361.2 47.4 358.1 38.7 358.9 28.7L347.4 40.4Z"
            class="g"
          />
          <path
            d="M368 239.5C368 239.5 373.3 253.3 372.5 262.5 371.7 271.6 379.4 263.5 378.6 258.1 377.9 253.8 380.8 235.2 382 228.3 382.1 227.6 382 226.8 381.7 226.1 381.5 225.5 381 225 380.5 224.7 378 223.7 373.9 222.4 371.9 224.4 368.9 227.3 368 239.5 368 239.5Z"
            class="h"
          />
          <path
            d="M348 254.6C348 254.6 341.1 266.5 339.3 266.8 337.5 267.1 336.3 270.8 339.3 271.6 345.4 273.1 351.6 272.2 357.4 269.3 357.9 269 358.4 268.5 358.7 267.7 359 267 359.2 266.2 359.1 265.4L357.9 253.8 348 254.6Z"
            class="h"
          />
          <path
            d="M336.7 128.4L330.1 129.6C331 139.9 330.9 150.3 330 160.6V197.6C330 197.6 329.9 200.9 334.9 205.6 340.3 210.5 345.4 215.8 350.3 221.5L368.7 242.7C368.7 242.7 376 230.8 374.9 223.8 374.9 223.8 362.8 218.7 361.2 210.3 360.2 205.5 355.5 201.5 351.7 198.9 349.3 197.4 347.3 194.7 346.2 191.5 345 188.2 344.7 184.6 345.4 181.1 345.6 179.8 345.9 178.7 346.4 177.6 349.6 170 354.3 153 354.3 153L345.4 130.3 336.7 128.4Z"
            class="i"
          />
          <path
            d="M336.7 128.4L330.1 129.6C331 139.9 330.9 150.3 330 160.6V197.6C330 197.6 329.9 200.9 334.9 205.6 340.3 210.5 345.4 215.8 350.3 221.5L368.7 242.7C368.7 242.7 376 230.8 374.9 223.8 374.9 223.8 362.8 218.7 361.2 210.3 360.2 205.5 355.5 201.5 351.7 198.9 349.3 197.4 347.3 194.7 346.2 191.5 345 188.2 344.7 184.6 345.4 181.1 345.6 179.8 345.9 178.7 346.4 177.6 349.6 170 354.3 153 354.3 153L345.4 130.3 336.7 128.4Z"
            style="fill:black;opacity:0.05"
          />
          <path
            d="M346.4 255.5C346.4 255.5 358.3 258.2 358.7 259.8 359.2 261.4 358.7 257.6 358.7 257.6 358.7 257.6 365.6 229.8 364 205.2 362.4 180.6 366.1 164.4 366.1 164.4 366.1 164.4 370.3 146 367.9 135.5 365.4 124.9 339.9 129.5 339.9 129.5 339.9 129.5 348.8 157.4 348.6 170.6 348.6 170.6 349.7 210.6 351.5 215.2 351.5 215.2 348.6 254.4 346.4 255.5Z"
            class="i"
          />
          <path
            d="M347.8 47.4C347.8 47.4 349 57.4 361.2 53.1L353.1 135.2C353.1 135.2 329.6 136.3 329.8 132.5L334.6 82.8 347.8 47.4Z"
            class="e"
          />
          <path
            d="M348.1 46.8C346.5 48.9 344.5 50.2 342.3 50.5 340.2 50.8 338.3 51.5 336.5 52.8 334.4 54.4 332.1 56.6 331.4 59.4 330 64.8 321.1 73.7 317 71.8L318.4 88C318.4 88 330 87.2 332 81.3L328.6 139.1H331.6C331.6 139.1 333.2 123.5 334.4 120.2 335.7 117 338.1 99.2 338.3 94.8 338.5 90.5 341.5 65.6 344.2 61.3L348.1 48.5 348.1 46.8Z"
            class="d"
          />
          <path
            d="M348.1 47.7C346.3 49.5 344.1 50.7 341.9 51.1 339.8 51.3 337.9 52.1 336.1 53.4 334 54.9 331.7 57.2 331 60 329.6 65.4 320.7 74.3 316.6 72.4L318 88.6C318 88.6 329.6 87.8 331.6 81.8L328.2 139.7H331.2C331.2 139.7 332.8 124 334 120.7 335.3 117.5 337.7 99.7 337.9 95.3 338.1 91 341.1 66.2 343.8 61.9L348.1 49.3V47.7Z"
            class="d"
          />
          <path
            d="M348.1 47.1C346.3 49 344.1 50.2 341.9 50.5 339.8 50.8 337.9 51.5 336.1 52.8 334 54.4 331.7 56.6 331 59.4 329.6 64.8 320.7 73.7 316.6 71.8L318 88C318 88 329.6 87.2 331.6 81.3L328.2 139.1H331.2C331.2 139.1 332.8 123.5 334 120.2 335.3 117 337.7 99.2 337.9 94.8 338.1 90.5 341.1 65.6 343.8 61.3L348.1 48.8 348.1 47.1Z"
            class="j"
          />
          <path
            d="M358.4 36.7C358.2 34.1 358.7 32.5 358.9 29.5L347.4 41.2C347.4 41.2 347.7 42.7 347.9 45 348.5 45.2 349.1 45.2 349.7 45.2 353.7 45.2 356.5 41 358.4 36.7Z"
            class="d"
          />
          <path
            d="M349.6 44.4C355.7 44.4 360.6 37.9 360.6 29.8 360.6 21.8 355.7 15.2 349.6 15.2 343.6 15.2 338.7 21.8 338.7 29.8 338.7 37.9 343.6 44.4 349.6 44.4Z"
            class="g"
          />
          <path
            d="M337.7 15.5C337.6 13.1 337.9 10.6 338.6 8.3 338.4 8.7 338.3 9.1 338.4 9.5 338.4 10 338.6 10.4 338.8 10.6 339.2 8.1 340.1 5.9 341.6 4.2 340.8 4.3 340.4 5.6 340.6 6.6 340.8 7.6 341.3 8.5 341.9 9.2 341.9 7.6 342.6 6.2 343.6 5.3 344.6 4.6 345.7 4 346.8 3.8 346.5 3.9 346.1 4.3 345.9 4.8 345.7 5.2 345.6 5.8 345.6 6.3 345.6 6.5 345.7 6.7 345.8 6.8 345.9 6.9 346 7 346.1 7 347.3 7 348.4 7 349.6 6.9 350.9 6.7 352.4 6.6 353.8 6.6 358.2 6.8 362.6 10.8 363.6 16.6 363.8 17.9 363.9 19.4 363.9 20.8L364.1 28C364.2 30.1 364.2 32.2 363.9 34.3 363.6 36.3 363 38.1 362.1 39.6 361.2 41.2 360.1 42.5 358.8 43.4 357.2 40.3 357 36.4 356.5 32.7 356.4 31.9 356.2 31.1 355.8 30.4 355.6 30 355.3 29.8 355 29.7 354.7 29.5 354.4 29.5 354.1 29.6 353.5 29.9 353.3 31.2 353.7 31.7 353.3 32.4 352.5 31.9 352 31.3 350.6 29.5 349.6 27.2 349.2 24.7 349 23.5 348.8 21.9 347.9 21.5 347.6 21.4 347.3 21.3 346.9 21.4 345 21.6 342 22.6 340.1 21.8 338.4 21.1 337.7 17.7 337.7 15.5Z"
            class="d"
          />
          <path
            d="M337.9 15.2C337.8 12.8 338.1 10.3 338.8 8 338.6 8.4 338.5 8.8 338.6 9.3 338.6 9.7 338.8 10.1 339 10.4 339.4 7.9 340.3 5.6 341.8 3.9 341 4.1 340.6 5.3 340.8 6.4 341 7.4 341.5 8.2 342.1 8.9 342.1 7.4 342.8 5.9 343.8 5.1 344.8 4.3 345.9 3.8 347 3.5 346.7 3.7 346.3 4 346.1 4.5 345.9 5 345.8 5.5 345.8 6.1 345.8 6.3 345.9 6.4 346 6.6 346.1 6.7 346.2 6.7 346.3 6.7 347.5 6.8 348.6 6.7 349.8 6.6 351.2 6.4 352.6 6.3 354 6.3 358.4 6.5 362.8 10.6 363.8 16.3 364 17.7 364.1 19.1 364.1 20.5L364.3 27.7C364.4 29.8 364.4 32 364.1 34.1 363.8 36 363.2 37.8 362.3 39.4 361.4 40.9 360.3 42.2 359 43.2 357.4 40.1 357.2 36.1 356.7 32.5 356.6 31.6 356.4 30.8 356 30.1 355.8 29.8 355.5 29.5 355.2 29.4 354.9 29.2 354.6 29.2 354.3 29.4 353.7 29.7 353.5 30.9 353.9 31.4 353.5 32.1 352.7 31.6 352.2 31 350.8 29.2 349.8 26.9 349.4 24.4 349.2 23.2 349 21.6 348.1 21.2 347.8 21.1 347.5 21.1 347.1 21.1 345.2 21.3 342.2 22.4 340.3 21.5 338.6 20.8 337.9 17.4 337.9 15.2Z"
            fill="#784F69"
          />
          <path
            d="M316.1 71.8C316.1 71.8 314.5 81.8 317.5 88L319.2 87.9 318.3 72 316.1 71.8Z"
            class="d"
          />
          <path
            d="M316.5 71.8C316.5 71.8 314.9 81.8 318 88L319.7 87.9 318.7 72 316.5 71.8Z"
            class="j"
          />
          <path
            d="M360.1 44.6L373.1 59.6C373.1 59.6 380.8 70.1 377.6 87.1 377.6 87.1 376.2 112 374.5 113.1 374.5 113.1 368.9 128.2 368.5 142.5 368.5 142.5 360.9 122.1 357.4 134.5 354 147 346 148.7 346 148.7L350.4 75.2C350.4 75.2 361.7 49.1 360.1 44.6Z"
            class="d"
          />
          <path
            d="M360.5 44.6L373.5 59.6C373.5 59.6 381.2 70.1 378 87.1 378 87.1 376.6 112 374.9 113.1 374.9 113.1 369.3 128.2 368.9 142.5 368.9 142.5 360.9 121 357.4 133.5 354 145.9 346.4 148.7 346.4 148.7L350.8 75.2C350.8 75.2 362.1 49.1 360.5 44.6Z"
            class="j"
          />
          <path
            d="M366.4 107.9C366.4 107.9 369.7 104.9 374.9 113L362 144.4 357.6 135.6C357.6 135.6 366.8 111.4 366.4 107.9Z"
            class="g"
          />
          <path
            d="M363.3 109.7C363.3 109.7 370.5 120.4 373.3 118.7L375.9 110.6 366.1 105.1 363.3 109.7Z"
            class="d"
          />
          <path
            d="M363.3 109.1C363.3 109.1 370.5 119.9 373.3 118.1L375.9 110.1 366.1 104.5 363.3 109.1Z"
            class="j"
          />
          <path
            d="M358.1 133.6C358.1 133.6 361.5 142.9 363.3 143.4L360.7 147.5 356.8 137.8 358.1 133.6Z"
            class="d"
          />
          <path
            d="M357.9 133.9C357.9 133.9 361.3 143.2 363.1 143.7L360.5 147.8 356.6 138 357.9 133.9Z"
            class="i"
          />
          <path d="M364.3 76.2C364.3 76.2 364.7 95.6 363.1 102.9Z" class="d" />
          <path d="M331.5 79.9C331.5 79.9 333.9 78.9 333.9 76.2Z" class="d" />
          <path
            d="M36.4 83.2C36.4 83.2 24.9 115.1 32.4 152.8 40 190.5 37.6 235.6 30.1 246.8"
            class="f"
          />
          <path
            d="M36.4 87.4C38.2 87.4 39.6 85.5 39.6 83.2 39.6 80.9 38.2 79 36.4 79 34.6 79 33.2 80.9 33.2 83.2 33.2 85.5 34.6 87.4 36.4 87.4Z"
            class="b"
          />
          <path d="M31.6 103.7C31.6 103.7 43.6 106.6 46.8 100.8" class="f" />
          <path d="M30.5 112.9C30.5 112.9 23.3 102.3 23.7 95.9" class="f" />
          <path d="M29.9 132.4C29.9 132.4 36.4 134.7 42.4 117.7" class="f" />
          <path d="M31.6 146.6C31.6 146.6 15.3 132.6 17.3 123.6" class="f" />
          <path d="M34.1 162.6C34.1 162.6 45.6 149.1 44.4 135.8" class="f" />
          <path d="M35.4 172C35.4 172 20.9 166.6 21.3 158.1" class="f" />
          <path d="M36.4 183.2C36.4 183.2 45.6 171.9 46.7 165" class="f" />
          <path d="M37 202.4C37 202.4 27.7 187.8 27.3 180.4" class="f" />
          <path d="M37 214.5C37 214.5 47.6 199 48.3 191.5" class="f" />
          <path
            d="M23.7 101.3C25.4 101.3 26.8 99.4 26.8 97 26.8 94.7 25.4 92.8 23.7 92.8 21.9 92.8 20.5 94.7 20.5 97 20.5 99.4 21.9 101.3 23.7 101.3Z"
            class="b"
          />
          <path
            d="M20.1 162.3C21.8 162.3 23.3 160.4 23.3 158.1 23.3 155.7 21.8 153.8 20.1 153.8 18.3 153.8 16.9 155.7 16.9 158.1 16.9 160.4 18.3 162.3 20.1 162.3Z"
            class="b"
          />
          <path
            d="M17.3 127.8C19.1 127.8 20.5 125.9 20.5 123.6 20.5 121.2 19.1 119.3 17.3 119.3 15.5 119.3 14.1 121.2 14.1 123.6 14.1 125.9 15.5 127.8 17.3 127.8Z"
            class="b"
          />
          <path
            d="M46.8 105C48.5 105 49.9 103.1 49.9 100.7 49.9 98.4 48.5 96.5 46.8 96.5 45 96.5 43.6 98.4 43.6 100.7 43.6 103.1 45 105 46.8 105Z"
            class="b"
          />
          <path
            d="M46.8 170.3C48.5 170.3 49.9 168.4 49.9 166 49.9 163.7 48.5 161.8 46.8 161.8 45 161.8 43.6 163.7 43.6 166 43.6 168.4 45 170.3 46.8 170.3Z"
            class="b"
          />
          <path
            d="M41.6 122C43.3 122 44.8 120.1 44.8 117.7 44.8 115.4 43.3 113.5 41.6 113.5 39.8 113.5 38.4 115.4 38.4 117.7 38.4 120.1 39.8 122 41.6 122Z"
            class="b"
          />
          <path
            d="M47.9 198.4C49.7 198.4 51.1 196.5 51.1 194.2 51.1 191.8 49.7 189.9 47.9 189.9 46.2 189.9 44.8 191.8 44.8 194.2 44.8 196.5 46.2 198.4 47.9 198.4Z"
            class="b"
          />
          <path
            d="M26.5 187.3C28.2 187.3 29.6 185.4 29.6 183 29.6 180.7 28.2 178.8 26.5 178.8 24.7 178.8 23.3 180.7 23.3 183 23.3 185.4 24.7 187.3 26.5 187.3Z"
            class="b"
          />
          <path
            d="M44.8 140C46.5 140 47.9 138.1 47.9 135.8 47.9 133.4 46.5 131.5 44.8 131.5 43 131.5 41.6 133.4 41.6 135.8 41.6 138.1 43 140 44.8 140Z"
            class="b"
          />
          <defs>
            <linearGradient
              x1="89801.7"
              y1="177242"
              x2="89801.7"
              y2="48200.2"
              gradientUnits="userSpaceOnUse"
            >
              <stop stop-color="#808080" stop-opacity="0.3" />
              <stop offset="0.54" stop-color="#808080" class="k" />
              <stop offset="1" stop-color="#808080" class="k" />
            </linearGradient>
          </defs>
        </svg>